G04 #@! TF.GenerationSoftware,KiCad,Pcbnew,(5.1.4)-1*
G04 #@! TF.CreationDate,2020-07-02T23:01:46-04:00*
G04 #@! TF.ProjectId,soph68,736f7068-3638-42e6-9b69-6361645f7063,rev?*
G04 #@! TF.SameCoordinates,Original*
G04 #@! TF.FileFunction,Legend,Bot*
G04 #@! TF.FilePolarity,Positive*
%FSLAX46Y46*%
G04 Gerber Fmt 4.6, Leading zero omitted, Abs format (unit mm)*
G04 Created by KiCad (PCBNEW (5.1.4)-1) date 2020-07-02 23:01:46*
%MOMM*%
%LPD*%
G04 APERTURE LIST*
%ADD10C,0.150000*%
%ADD11C,0.250000*%
%ADD12C,0.100000*%
%ADD13C,0.120000*%
G04 APERTURE END LIST*
D10*
X134273276Y-139051374D02*
X134273276Y-139718040D01*
X134273276Y-139146612D02*
X134225657Y-139098993D01*
X134130419Y-139051374D01*
X133987561Y-139051374D01*
X133892323Y-139098993D01*
X133844704Y-139194231D01*
X133844704Y-139718040D01*
X133368514Y-139718040D02*
X133368514Y-139051374D01*
X133368514Y-138718040D02*
X133416133Y-138765660D01*
X133368514Y-138813279D01*
X133320895Y-138765660D01*
X133368514Y-138718040D01*
X133368514Y-138813279D01*
X132463752Y-139670421D02*
X132558990Y-139718040D01*
X132749466Y-139718040D01*
X132844704Y-139670421D01*
X132892323Y-139622802D01*
X132939942Y-139527564D01*
X132939942Y-139241850D01*
X132892323Y-139146612D01*
X132844704Y-139098993D01*
X132749466Y-139051374D01*
X132558990Y-139051374D01*
X132463752Y-139098993D01*
X131892323Y-139718040D02*
X131987561Y-139670421D01*
X132035180Y-139622802D01*
X132082800Y-139527564D01*
X132082800Y-139241850D01*
X132035180Y-139146612D01*
X131987561Y-139098993D01*
X131892323Y-139051374D01*
X131749466Y-139051374D01*
X131654228Y-139098993D01*
X131606609Y-139146612D01*
X131558990Y-139241850D01*
X131558990Y-139527564D01*
X131606609Y-139622802D01*
X131654228Y-139670421D01*
X131749466Y-139718040D01*
X131892323Y-139718040D01*
X130987561Y-139718040D02*
X131082800Y-139670421D01*
X131130419Y-139575183D01*
X131130419Y-138718040D01*
X130225657Y-139670421D02*
X130320895Y-139718040D01*
X130511371Y-139718040D01*
X130606609Y-139670421D01*
X130654228Y-139575183D01*
X130654228Y-139194231D01*
X130606609Y-139098993D01*
X130511371Y-139051374D01*
X130320895Y-139051374D01*
X130225657Y-139098993D01*
X130178038Y-139194231D01*
X130178038Y-139289469D01*
X130654228Y-139384707D01*
X128558990Y-139718040D02*
X128558990Y-139194231D01*
X128606609Y-139098993D01*
X128701847Y-139051374D01*
X128892323Y-139051374D01*
X128987561Y-139098993D01*
X128558990Y-139670421D02*
X128654228Y-139718040D01*
X128892323Y-139718040D01*
X128987561Y-139670421D01*
X129035180Y-139575183D01*
X129035180Y-139479945D01*
X128987561Y-139384707D01*
X128892323Y-139337088D01*
X128654228Y-139337088D01*
X128558990Y-139289469D01*
X128082800Y-139051374D02*
X128082800Y-140051374D01*
X128082800Y-139098993D02*
X127987561Y-139051374D01*
X127797085Y-139051374D01*
X127701847Y-139098993D01*
X127654228Y-139146612D01*
X127606609Y-139241850D01*
X127606609Y-139527564D01*
X127654228Y-139622802D01*
X127701847Y-139670421D01*
X127797085Y-139718040D01*
X127987561Y-139718040D01*
X128082800Y-139670421D01*
X127320895Y-139051374D02*
X126939942Y-139051374D01*
X127178038Y-138718040D02*
X127178038Y-139575183D01*
X127130419Y-139670421D01*
X127035180Y-139718040D01*
X126939942Y-139718040D01*
X126225657Y-139670421D02*
X126320895Y-139718040D01*
X126511371Y-139718040D01*
X126606609Y-139670421D01*
X126654228Y-139575183D01*
X126654228Y-139194231D01*
X126606609Y-139098993D01*
X126511371Y-139051374D01*
X126320895Y-139051374D01*
X126225657Y-139098993D01*
X126178038Y-139194231D01*
X126178038Y-139289469D01*
X126654228Y-139384707D01*
X125749466Y-139718040D02*
X125749466Y-138718040D01*
X125654228Y-139337088D02*
X125368514Y-139718040D01*
X125368514Y-139051374D02*
X125749466Y-139432326D01*
X124511371Y-139718040D02*
X124511371Y-139194231D01*
X124558990Y-139098993D01*
X124654228Y-139051374D01*
X124844704Y-139051374D01*
X124939942Y-139098993D01*
X124511371Y-139670421D02*
X124606609Y-139718040D01*
X124844704Y-139718040D01*
X124939942Y-139670421D01*
X124987561Y-139575183D01*
X124987561Y-139479945D01*
X124939942Y-139384707D01*
X124844704Y-139337088D01*
X124606609Y-139337088D01*
X124511371Y-139289469D01*
X124035180Y-139718040D02*
X124035180Y-139051374D01*
X124035180Y-139241850D02*
X123987561Y-139146612D01*
X123939942Y-139098993D01*
X123844704Y-139051374D01*
X123749466Y-139051374D01*
D11*
X131386744Y-141016621D02*
X131291506Y-141064240D01*
X131101030Y-141064240D01*
X131005792Y-141016621D01*
X130958173Y-140921383D01*
X130958173Y-140873764D01*
X131005792Y-140778526D01*
X131101030Y-140730907D01*
X131243887Y-140730907D01*
X131339125Y-140683288D01*
X131386744Y-140588050D01*
X131386744Y-140540431D01*
X131339125Y-140445193D01*
X131243887Y-140397574D01*
X131101030Y-140397574D01*
X131005792Y-140445193D01*
X130386744Y-141064240D02*
X130481982Y-141016621D01*
X130529601Y-140969002D01*
X130577220Y-140873764D01*
X130577220Y-140588050D01*
X130529601Y-140492812D01*
X130481982Y-140445193D01*
X130386744Y-140397574D01*
X130243887Y-140397574D01*
X130148649Y-140445193D01*
X130101030Y-140492812D01*
X130053411Y-140588050D01*
X130053411Y-140873764D01*
X130101030Y-140969002D01*
X130148649Y-141016621D01*
X130243887Y-141064240D01*
X130386744Y-141064240D01*
X129624840Y-140397574D02*
X129624840Y-141397574D01*
X129624840Y-140445193D02*
X129529601Y-140397574D01*
X129339125Y-140397574D01*
X129243887Y-140445193D01*
X129196268Y-140492812D01*
X129148649Y-140588050D01*
X129148649Y-140873764D01*
X129196268Y-140969002D01*
X129243887Y-141016621D01*
X129339125Y-141064240D01*
X129529601Y-141064240D01*
X129624840Y-141016621D01*
X128720078Y-141064240D02*
X128720078Y-140064240D01*
X128291506Y-141064240D02*
X128291506Y-140540431D01*
X128339125Y-140445193D01*
X128434363Y-140397574D01*
X128577220Y-140397574D01*
X128672459Y-140445193D01*
X128720078Y-140492812D01*
X127386744Y-140064240D02*
X127577220Y-140064240D01*
X127672459Y-140111860D01*
X127720078Y-140159479D01*
X127815316Y-140302336D01*
X127862935Y-140492812D01*
X127862935Y-140873764D01*
X127815316Y-140969002D01*
X127767697Y-141016621D01*
X127672459Y-141064240D01*
X127481982Y-141064240D01*
X127386744Y-141016621D01*
X127339125Y-140969002D01*
X127291506Y-140873764D01*
X127291506Y-140635669D01*
X127339125Y-140540431D01*
X127386744Y-140492812D01*
X127481982Y-140445193D01*
X127672459Y-140445193D01*
X127767697Y-140492812D01*
X127815316Y-140540431D01*
X127862935Y-140635669D01*
X126720078Y-140492812D02*
X126815316Y-140445193D01*
X126862935Y-140397574D01*
X126910554Y-140302336D01*
X126910554Y-140254717D01*
X126862935Y-140159479D01*
X126815316Y-140111860D01*
X126720078Y-140064240D01*
X126529601Y-140064240D01*
X126434363Y-140111860D01*
X126386744Y-140159479D01*
X126339125Y-140254717D01*
X126339125Y-140302336D01*
X126386744Y-140397574D01*
X126434363Y-140445193D01*
X126529601Y-140492812D01*
X126720078Y-140492812D01*
X126815316Y-140540431D01*
X126862935Y-140588050D01*
X126910554Y-140683288D01*
X126910554Y-140873764D01*
X126862935Y-140969002D01*
X126815316Y-141016621D01*
X126720078Y-141064240D01*
X126529601Y-141064240D01*
X126434363Y-141016621D01*
X126386744Y-140969002D01*
X126339125Y-140873764D01*
X126339125Y-140683288D01*
X126386744Y-140588050D01*
X126434363Y-140540431D01*
X126529601Y-140492812D01*
X125243887Y-140397574D02*
X125005792Y-141064240D01*
X124767697Y-140397574D01*
X123862935Y-141064240D02*
X124434363Y-141064240D01*
X124148649Y-141064240D02*
X124148649Y-140064240D01*
X124243887Y-140207098D01*
X124339125Y-140302336D01*
X124434363Y-140349955D01*
D12*
G36*
X121538988Y-139446012D02*
G01*
X123146208Y-137837120D01*
X120988560Y-135678227D01*
X118830912Y-133519333D01*
X123146762Y-129200993D01*
X121559884Y-127614116D01*
X119973007Y-126027238D01*
X115654667Y-130343088D01*
X113516222Y-128205878D01*
X113021900Y-127712989D01*
X112565592Y-127260214D01*
X112161030Y-126861005D01*
X111821941Y-126528818D01*
X111562056Y-126277105D01*
X111395105Y-126119320D01*
X111335220Y-126068667D01*
X111266482Y-126126138D01*
X111094475Y-126288121D01*
X110835245Y-126538973D01*
X110504839Y-126863051D01*
X110119303Y-127244710D01*
X109706093Y-127656885D01*
X108119525Y-129245104D01*
X110278441Y-131402774D01*
X112437357Y-133560445D01*
X110278227Y-135720773D01*
X108119097Y-137881102D01*
X109707433Y-139467788D01*
X111295770Y-141054475D01*
X113453441Y-138895559D01*
X115611111Y-136736643D01*
X117771440Y-138895773D01*
X119931768Y-141054903D01*
X121538988Y-139446012D01*
X121538988Y-139446012D01*
G37*
D13*
X336370000Y-111559000D02*
X335880000Y-111069000D01*
X339270000Y-111559000D02*
X336370000Y-111559000D01*
X339270000Y-111559000D02*
X339760000Y-111069000D01*
X339270000Y-106119000D02*
X336370000Y-106119000D01*
X339270000Y-106119000D02*
X339760000Y-106609000D01*
X335100000Y-109879000D02*
X335100000Y-107799000D01*
X336370000Y-106119000D02*
X335880000Y-106609000D01*
X340540000Y-109879000D02*
X340540000Y-107799000D01*
X348287000Y-106119000D02*
X348777000Y-106609000D01*
X345387000Y-106119000D02*
X348287000Y-106119000D01*
X345387000Y-106119000D02*
X344897000Y-106609000D01*
X345387000Y-111559000D02*
X348287000Y-111559000D01*
X345387000Y-111559000D02*
X344897000Y-111069000D01*
X349557000Y-107799000D02*
X349557000Y-109879000D01*
X348287000Y-111559000D02*
X348777000Y-111069000D01*
X344117000Y-107799000D02*
X344117000Y-109879000D01*
X338817000Y-92111000D02*
X338817000Y-86101000D01*
X331997000Y-89861000D02*
X331997000Y-86101000D01*
X338817000Y-86101000D02*
X337557000Y-86101000D01*
X331997000Y-86101000D02*
X333257000Y-86101000D01*
X328982000Y-90555578D02*
X328982000Y-90038422D01*
X330402000Y-90555578D02*
X330402000Y-90038422D01*
X314520000Y-90413252D02*
X314520000Y-87640748D01*
X317940000Y-90413252D02*
X317940000Y-87640748D01*
X322825000Y-92577000D02*
X322825000Y-86877000D01*
X318525000Y-92577000D02*
X318525000Y-86877000D01*
X322825000Y-92577000D02*
X318525000Y-92577000D01*
X325398000Y-92200000D02*
X325398000Y-86500000D01*
X328398000Y-92200000D02*
X325398000Y-92200000D01*
X328398000Y-86500000D02*
X328398000Y-92200000D01*
X324814000Y-85339422D02*
X324814000Y-85856578D01*
X323394000Y-85339422D02*
X323394000Y-85856578D01*
X323394000Y-90555578D02*
X323394000Y-90038422D01*
X324814000Y-90555578D02*
X324814000Y-90038422D01*
X299922000Y-51303422D02*
X299922000Y-51820578D01*
X298502000Y-51303422D02*
X298502000Y-51820578D01*
X297763000Y-51303422D02*
X297763000Y-51820578D01*
X296343000Y-51303422D02*
X296343000Y-51820578D01*
X325335113Y-100775198D02*
X326247281Y-101687366D01*
X325653311Y-100457000D02*
X325335113Y-100775198D01*
X325335113Y-100138802D02*
X325653311Y-100457000D01*
X320548000Y-95351689D02*
X320229802Y-95669887D01*
X320866198Y-95669887D02*
X320548000Y-95351689D01*
X320548000Y-105562311D02*
X320866198Y-105244113D01*
X320229802Y-105244113D02*
X320548000Y-105562311D01*
X315442689Y-100457000D02*
X315760887Y-100138802D01*
X315760887Y-100775198D02*
X315442689Y-100457000D01*
X312756300Y-56982000D02*
X310306300Y-56982000D01*
X310956300Y-53762000D02*
X312756300Y-53762000D01*
X344038422Y-102922000D02*
X344555578Y-102922000D01*
X344038422Y-104342000D02*
X344555578Y-104342000D01*
X312133064Y-100224000D02*
X310928936Y-100224000D01*
X312133064Y-98404000D02*
X310928936Y-98404000D01*
X305741000Y-53344578D02*
X305741000Y-52827422D01*
X307161000Y-53344578D02*
X307161000Y-52827422D01*
X316536000Y-53598578D02*
X316536000Y-53081422D01*
X317956000Y-53598578D02*
X317956000Y-53081422D01*
X338744779Y-138940000D02*
X338419221Y-138940000D01*
X338744779Y-137920000D02*
X338419221Y-137920000D01*
X319694779Y-138940000D02*
X319369221Y-138940000D01*
X319694779Y-137920000D02*
X319369221Y-137920000D01*
X300644779Y-138940000D02*
X300319221Y-138940000D01*
X300644779Y-137920000D02*
X300319221Y-137920000D01*
X269656779Y-138940000D02*
X269331221Y-138940000D01*
X269656779Y-137920000D02*
X269331221Y-137920000D01*
X245907779Y-138940000D02*
X245582221Y-138940000D01*
X245907779Y-137920000D02*
X245582221Y-137920000D01*
X222031779Y-138940000D02*
X221706221Y-138940000D01*
X222031779Y-137920000D02*
X221706221Y-137920000D01*
X150530779Y-138940000D02*
X150205221Y-138940000D01*
X150530779Y-137920000D02*
X150205221Y-137920000D01*
X79156779Y-138940000D02*
X78831221Y-138940000D01*
X79156779Y-137920000D02*
X78831221Y-137920000D01*
X55407779Y-138940000D02*
X55082221Y-138940000D01*
X55407779Y-137920000D02*
X55082221Y-137920000D01*
X31531779Y-138940000D02*
X31206221Y-138940000D01*
X31531779Y-137920000D02*
X31206221Y-137920000D01*
X319694779Y-119890000D02*
X319369221Y-119890000D01*
X319694779Y-118870000D02*
X319369221Y-118870000D01*
X279181779Y-119890000D02*
X278856221Y-119890000D01*
X279181779Y-118870000D02*
X278856221Y-118870000D01*
X243494779Y-119890000D02*
X243169221Y-119890000D01*
X243494779Y-118870000D02*
X243169221Y-118870000D01*
X224444779Y-119890000D02*
X224119221Y-119890000D01*
X224444779Y-118870000D02*
X224119221Y-118870000D01*
X205394779Y-119890000D02*
X205069221Y-119890000D01*
X205394779Y-118870000D02*
X205069221Y-118870000D01*
X186344779Y-119890000D02*
X186019221Y-119890000D01*
X186344779Y-118870000D02*
X186019221Y-118870000D01*
X167294779Y-119890000D02*
X166969221Y-119890000D01*
X167294779Y-118870000D02*
X166969221Y-118870000D01*
X148244779Y-119890000D02*
X147919221Y-119890000D01*
X148244779Y-118870000D02*
X147919221Y-118870000D01*
X129194779Y-119890000D02*
X128869221Y-119890000D01*
X129194779Y-118870000D02*
X128869221Y-118870000D01*
X110144779Y-119890000D02*
X109819221Y-119890000D01*
X110144779Y-118870000D02*
X109819221Y-118870000D01*
X91094779Y-119890000D02*
X90769221Y-119890000D01*
X91094779Y-118870000D02*
X90769221Y-118870000D01*
X72044779Y-119890000D02*
X71719221Y-119890000D01*
X72044779Y-118870000D02*
X71719221Y-118870000D01*
X41056779Y-119890000D02*
X40731221Y-119890000D01*
X41056779Y-118870000D02*
X40731221Y-118870000D01*
X284007779Y-100840000D02*
X283682221Y-100840000D01*
X284007779Y-99820000D02*
X283682221Y-99820000D01*
X253019779Y-100840000D02*
X252694221Y-100840000D01*
X253019779Y-99820000D02*
X252694221Y-99820000D01*
X233969779Y-100840000D02*
X233644221Y-100840000D01*
X233969779Y-99820000D02*
X233644221Y-99820000D01*
X214919779Y-100840000D02*
X214594221Y-100840000D01*
X214919779Y-99820000D02*
X214594221Y-99820000D01*
X195869779Y-100840000D02*
X195544221Y-100840000D01*
X195869779Y-99820000D02*
X195544221Y-99820000D01*
X176819779Y-100840000D02*
X176494221Y-100840000D01*
X176819779Y-99820000D02*
X176494221Y-99820000D01*
X157769779Y-100840000D02*
X157444221Y-100840000D01*
X157769779Y-99820000D02*
X157444221Y-99820000D01*
X138719779Y-100840000D02*
X138394221Y-100840000D01*
X138719779Y-99820000D02*
X138394221Y-99820000D01*
X119669779Y-100840000D02*
X119344221Y-100840000D01*
X119669779Y-99820000D02*
X119344221Y-99820000D01*
X100619779Y-100840000D02*
X100294221Y-100840000D01*
X100619779Y-99820000D02*
X100294221Y-99820000D01*
X81569779Y-100840000D02*
X81244221Y-100840000D01*
X81569779Y-99820000D02*
X81244221Y-99820000D01*
X62519779Y-100840000D02*
X62194221Y-100840000D01*
X62519779Y-99820000D02*
X62194221Y-99820000D01*
X36357779Y-100840000D02*
X36032221Y-100840000D01*
X36357779Y-99820000D02*
X36032221Y-99820000D01*
X338744779Y-81790000D02*
X338419221Y-81790000D01*
X338744779Y-80770000D02*
X338419221Y-80770000D01*
X319694779Y-81790000D02*
X319369221Y-81790000D01*
X319694779Y-80770000D02*
X319369221Y-80770000D01*
X291119779Y-81790000D02*
X290794221Y-81790000D01*
X291119779Y-80770000D02*
X290794221Y-80770000D01*
X267243779Y-81790000D02*
X266918221Y-81790000D01*
X267243779Y-80770000D02*
X266918221Y-80770000D01*
X248193779Y-81790000D02*
X247868221Y-81790000D01*
X248193779Y-80770000D02*
X247868221Y-80770000D01*
X229118279Y-81790000D02*
X228792721Y-81790000D01*
X229118279Y-80770000D02*
X228792721Y-80770000D01*
X210093779Y-81790000D02*
X209768221Y-81790000D01*
X210093779Y-80770000D02*
X209768221Y-80770000D01*
X191043779Y-81790000D02*
X190718221Y-81790000D01*
X191043779Y-80770000D02*
X190718221Y-80770000D01*
X171993779Y-81790000D02*
X171668221Y-81790000D01*
X171993779Y-80770000D02*
X171668221Y-80770000D01*
X152943779Y-81790000D02*
X152618221Y-81790000D01*
X152943779Y-80770000D02*
X152618221Y-80770000D01*
X133919279Y-81790000D02*
X133593721Y-81790000D01*
X133919279Y-80770000D02*
X133593721Y-80770000D01*
X114843779Y-81790000D02*
X114518221Y-81790000D01*
X114843779Y-80770000D02*
X114518221Y-80770000D01*
X95793779Y-81790000D02*
X95468221Y-81790000D01*
X95793779Y-80770000D02*
X95468221Y-80770000D01*
X76743779Y-81790000D02*
X76418221Y-81790000D01*
X76743779Y-80770000D02*
X76418221Y-80770000D01*
X57693779Y-81790000D02*
X57368221Y-81790000D01*
X57693779Y-80770000D02*
X57368221Y-80770000D01*
X33944779Y-81790000D02*
X33619221Y-81790000D01*
X33944779Y-80770000D02*
X33619221Y-80770000D01*
X338744779Y-62740000D02*
X338419221Y-62740000D01*
X338744779Y-61720000D02*
X338419221Y-61720000D01*
X319694779Y-62740000D02*
X319369221Y-62740000D01*
X319694779Y-61720000D02*
X319369221Y-61720000D01*
X286293779Y-62740000D02*
X285968221Y-62740000D01*
X286293779Y-61720000D02*
X285968221Y-61720000D01*
X257718779Y-62740000D02*
X257393221Y-62740000D01*
X257718779Y-61720000D02*
X257393221Y-61720000D01*
X238668779Y-62740000D02*
X238343221Y-62740000D01*
X238668779Y-61720000D02*
X238343221Y-61720000D01*
X219618779Y-62740000D02*
X219293221Y-62740000D01*
X219618779Y-61720000D02*
X219293221Y-61720000D01*
X200568779Y-62740000D02*
X200243221Y-62740000D01*
X200568779Y-61720000D02*
X200243221Y-61720000D01*
X181518779Y-62740000D02*
X181193221Y-62740000D01*
X181518779Y-61720000D02*
X181193221Y-61720000D01*
X162468779Y-62740000D02*
X162143221Y-62740000D01*
X162468779Y-61720000D02*
X162143221Y-61720000D01*
X143418779Y-62740000D02*
X143093221Y-62740000D01*
X143418779Y-61720000D02*
X143093221Y-61720000D01*
X124368779Y-62740000D02*
X124043221Y-62740000D01*
X124368779Y-61720000D02*
X124043221Y-61720000D01*
X105318779Y-62740000D02*
X104993221Y-62740000D01*
X105318779Y-61720000D02*
X104993221Y-61720000D01*
X86268779Y-62740000D02*
X85943221Y-62740000D01*
X86268779Y-61720000D02*
X85943221Y-61720000D01*
X67218779Y-62740000D02*
X66893221Y-62740000D01*
X67218779Y-61720000D02*
X66893221Y-61720000D01*
X48168779Y-62740000D02*
X47843221Y-62740000D01*
X48168779Y-61720000D02*
X47843221Y-61720000D01*
X29118779Y-62740000D02*
X28793221Y-62740000D01*
X29118779Y-61720000D02*
X28793221Y-61720000D01*
X342844000Y-91124500D02*
X342844000Y-92584500D01*
X346004000Y-91124500D02*
X346004000Y-93284500D01*
X346004000Y-91124500D02*
X345074000Y-91124500D01*
X342844000Y-91124500D02*
X343774000Y-91124500D01*
X340511000Y-129120000D02*
X343061000Y-129120000D01*
X340511000Y-127420000D02*
X343061000Y-127420000D01*
X340511000Y-129120000D02*
X340511000Y-127420000D01*
X321461000Y-129120000D02*
X324011000Y-129120000D01*
X321461000Y-127420000D02*
X324011000Y-127420000D01*
X321461000Y-129120000D02*
X321461000Y-127420000D01*
X302411000Y-129120000D02*
X304961000Y-129120000D01*
X302411000Y-127420000D02*
X304961000Y-127420000D01*
X302411000Y-129120000D02*
X302411000Y-127420000D01*
X271423000Y-129120000D02*
X273973000Y-129120000D01*
X271423000Y-127420000D02*
X273973000Y-127420000D01*
X271423000Y-129120000D02*
X271423000Y-127420000D01*
X247674000Y-129120000D02*
X250224000Y-129120000D01*
X247674000Y-127420000D02*
X250224000Y-127420000D01*
X247674000Y-129120000D02*
X247674000Y-127420000D01*
X223798000Y-129120000D02*
X226348000Y-129120000D01*
X223798000Y-127420000D02*
X226348000Y-127420000D01*
X223798000Y-129120000D02*
X223798000Y-127420000D01*
X152424000Y-129120000D02*
X154974000Y-129120000D01*
X152424000Y-127420000D02*
X154974000Y-127420000D01*
X152424000Y-129120000D02*
X152424000Y-127420000D01*
X81050000Y-129120000D02*
X83600000Y-129120000D01*
X81050000Y-127420000D02*
X83600000Y-127420000D01*
X81050000Y-129120000D02*
X81050000Y-127420000D01*
X57174000Y-129120000D02*
X59724000Y-129120000D01*
X57174000Y-127420000D02*
X59724000Y-127420000D01*
X57174000Y-129120000D02*
X57174000Y-127420000D01*
X33425000Y-129120000D02*
X35975000Y-129120000D01*
X33425000Y-127420000D02*
X35975000Y-127420000D01*
X33425000Y-129120000D02*
X33425000Y-127420000D01*
X321524500Y-110070000D02*
X324074500Y-110070000D01*
X321524500Y-108370000D02*
X324074500Y-108370000D01*
X321524500Y-110070000D02*
X321524500Y-108370000D01*
X281075000Y-110070000D02*
X283625000Y-110070000D01*
X281075000Y-108370000D02*
X283625000Y-108370000D01*
X281075000Y-110070000D02*
X281075000Y-108370000D01*
X245261000Y-110070000D02*
X247811000Y-110070000D01*
X245261000Y-108370000D02*
X247811000Y-108370000D01*
X245261000Y-110070000D02*
X245261000Y-108370000D01*
X226211000Y-110070000D02*
X228761000Y-110070000D01*
X226211000Y-108370000D02*
X228761000Y-108370000D01*
X226211000Y-110070000D02*
X226211000Y-108370000D01*
X207161000Y-110070000D02*
X209711000Y-110070000D01*
X207161000Y-108370000D02*
X209711000Y-108370000D01*
X207161000Y-110070000D02*
X207161000Y-108370000D01*
X188111000Y-110070000D02*
X190661000Y-110070000D01*
X188111000Y-108370000D02*
X190661000Y-108370000D01*
X188111000Y-110070000D02*
X188111000Y-108370000D01*
X169061000Y-110070000D02*
X171611000Y-110070000D01*
X169061000Y-108370000D02*
X171611000Y-108370000D01*
X169061000Y-110070000D02*
X169061000Y-108370000D01*
X150011000Y-110070000D02*
X152561000Y-110070000D01*
X150011000Y-108370000D02*
X152561000Y-108370000D01*
X150011000Y-110070000D02*
X150011000Y-108370000D01*
X130961000Y-110070000D02*
X133511000Y-110070000D01*
X130961000Y-108370000D02*
X133511000Y-108370000D01*
X130961000Y-110070000D02*
X130961000Y-108370000D01*
X111911000Y-110070000D02*
X114461000Y-110070000D01*
X111911000Y-108370000D02*
X114461000Y-108370000D01*
X111911000Y-110070000D02*
X111911000Y-108370000D01*
X92861000Y-110070000D02*
X95411000Y-110070000D01*
X92861000Y-108370000D02*
X95411000Y-108370000D01*
X92861000Y-110070000D02*
X92861000Y-108370000D01*
X73938000Y-110070000D02*
X76488000Y-110070000D01*
X73938000Y-108370000D02*
X76488000Y-108370000D01*
X73938000Y-110070000D02*
X73938000Y-108370000D01*
X42950000Y-110070000D02*
X45500000Y-110070000D01*
X42950000Y-108370000D02*
X45500000Y-108370000D01*
X42950000Y-110070000D02*
X42950000Y-108370000D01*
X285774000Y-91020000D02*
X288324000Y-91020000D01*
X285774000Y-89320000D02*
X288324000Y-89320000D01*
X285774000Y-91020000D02*
X285774000Y-89320000D01*
X254786000Y-91020000D02*
X257336000Y-91020000D01*
X254786000Y-89320000D02*
X257336000Y-89320000D01*
X254786000Y-91020000D02*
X254786000Y-89320000D01*
X235736000Y-91020000D02*
X238286000Y-91020000D01*
X235736000Y-89320000D02*
X238286000Y-89320000D01*
X235736000Y-91020000D02*
X235736000Y-89320000D01*
X216686000Y-91020000D02*
X219236000Y-91020000D01*
X216686000Y-89320000D02*
X219236000Y-89320000D01*
X216686000Y-91020000D02*
X216686000Y-89320000D01*
X197509000Y-91020000D02*
X200059000Y-91020000D01*
X197509000Y-89320000D02*
X200059000Y-89320000D01*
X197509000Y-91020000D02*
X197509000Y-89320000D01*
X178586000Y-91020000D02*
X181136000Y-91020000D01*
X178586000Y-89320000D02*
X181136000Y-89320000D01*
X178586000Y-91020000D02*
X178586000Y-89320000D01*
X159536000Y-91020000D02*
X162086000Y-91020000D01*
X159536000Y-89320000D02*
X162086000Y-89320000D01*
X159536000Y-91020000D02*
X159536000Y-89320000D01*
X140486000Y-91020000D02*
X143036000Y-91020000D01*
X140486000Y-89320000D02*
X143036000Y-89320000D01*
X140486000Y-91020000D02*
X140486000Y-89320000D01*
X121436000Y-91020000D02*
X123986000Y-91020000D01*
X121436000Y-89320000D02*
X123986000Y-89320000D01*
X121436000Y-91020000D02*
X121436000Y-89320000D01*
X102386000Y-91020000D02*
X102386000Y-89320000D01*
X102386000Y-89320000D02*
X104936000Y-89320000D01*
X102386000Y-91020000D02*
X104936000Y-91020000D01*
X83336000Y-91020000D02*
X85886000Y-91020000D01*
X83336000Y-89320000D02*
X85886000Y-89320000D01*
X83336000Y-91020000D02*
X83336000Y-89320000D01*
X64286000Y-91020000D02*
X66836000Y-91020000D01*
X64286000Y-89320000D02*
X66836000Y-89320000D01*
X64286000Y-91020000D02*
X64286000Y-89320000D01*
X38124000Y-91020000D02*
X40674000Y-91020000D01*
X38124000Y-89320000D02*
X40674000Y-89320000D01*
X38124000Y-91020000D02*
X38124000Y-89320000D01*
X340511000Y-71970000D02*
X343061000Y-71970000D01*
X340511000Y-70270000D02*
X343061000Y-70270000D01*
X340511000Y-71970000D02*
X340511000Y-70270000D01*
X321461000Y-71970000D02*
X324011000Y-71970000D01*
X321461000Y-70270000D02*
X324011000Y-70270000D01*
X321461000Y-71970000D02*
X321461000Y-70270000D01*
X292886000Y-71970000D02*
X295436000Y-71970000D01*
X292886000Y-70270000D02*
X295436000Y-70270000D01*
X292886000Y-71970000D02*
X292886000Y-70270000D01*
X269137000Y-71970000D02*
X271687000Y-71970000D01*
X269137000Y-70270000D02*
X271687000Y-70270000D01*
X269137000Y-71970000D02*
X269137000Y-70270000D01*
X250087000Y-71970000D02*
X252637000Y-71970000D01*
X250087000Y-70270000D02*
X252637000Y-70270000D01*
X250087000Y-71970000D02*
X250087000Y-70270000D01*
X231037000Y-71970000D02*
X233587000Y-71970000D01*
X231037000Y-70270000D02*
X233587000Y-70270000D01*
X231037000Y-71970000D02*
X231037000Y-70270000D01*
X211987000Y-71970000D02*
X214537000Y-71970000D01*
X211987000Y-70270000D02*
X214537000Y-70270000D01*
X211987000Y-71970000D02*
X211987000Y-70270000D01*
X192937000Y-71970000D02*
X195487000Y-71970000D01*
X192937000Y-70270000D02*
X195487000Y-70270000D01*
X192937000Y-71970000D02*
X192937000Y-70270000D01*
X173887000Y-71970000D02*
X176437000Y-71970000D01*
X173887000Y-70270000D02*
X176437000Y-70270000D01*
X173887000Y-71970000D02*
X173887000Y-70270000D01*
X154837000Y-71970000D02*
X157387000Y-71970000D01*
X154837000Y-70270000D02*
X157387000Y-70270000D01*
X154837000Y-71970000D02*
X154837000Y-70270000D01*
X135787000Y-71970000D02*
X138337000Y-71970000D01*
X135787000Y-70270000D02*
X138337000Y-70270000D01*
X135787000Y-71970000D02*
X135787000Y-70270000D01*
X116737000Y-71970000D02*
X119287000Y-71970000D01*
X116737000Y-70270000D02*
X119287000Y-70270000D01*
X116737000Y-71970000D02*
X116737000Y-70270000D01*
X97687000Y-71970000D02*
X100237000Y-71970000D01*
X97687000Y-70270000D02*
X100237000Y-70270000D01*
X97687000Y-71970000D02*
X97687000Y-70270000D01*
X78637000Y-71970000D02*
X81187000Y-71970000D01*
X78637000Y-70270000D02*
X81187000Y-70270000D01*
X78637000Y-71970000D02*
X78637000Y-70270000D01*
X59587000Y-71970000D02*
X62137000Y-71970000D01*
X59587000Y-70270000D02*
X62137000Y-70270000D01*
X59587000Y-71970000D02*
X59587000Y-70270000D01*
X35711000Y-71970000D02*
X38261000Y-71970000D01*
X35711000Y-70270000D02*
X38261000Y-70270000D01*
X35711000Y-71970000D02*
X35711000Y-70270000D01*
X340638000Y-52920000D02*
X343188000Y-52920000D01*
X340638000Y-51220000D02*
X343188000Y-51220000D01*
X340638000Y-52920000D02*
X340638000Y-51220000D01*
X321588000Y-52920000D02*
X324138000Y-52920000D01*
X321588000Y-51220000D02*
X324138000Y-51220000D01*
X321588000Y-52920000D02*
X321588000Y-51220000D01*
X288187000Y-52920000D02*
X290737000Y-52920000D01*
X288187000Y-51220000D02*
X290737000Y-51220000D01*
X288187000Y-52920000D02*
X288187000Y-51220000D01*
X259612000Y-52920000D02*
X262162000Y-52920000D01*
X259612000Y-51220000D02*
X262162000Y-51220000D01*
X259612000Y-52920000D02*
X259612000Y-51220000D01*
X240562000Y-52920000D02*
X243112000Y-52920000D01*
X240562000Y-51220000D02*
X243112000Y-51220000D01*
X240562000Y-52920000D02*
X240562000Y-51220000D01*
X221512000Y-52920000D02*
X224062000Y-52920000D01*
X221512000Y-51220000D02*
X224062000Y-51220000D01*
X221512000Y-52920000D02*
X221512000Y-51220000D01*
X202462000Y-52920000D02*
X205012000Y-52920000D01*
X202462000Y-51220000D02*
X205012000Y-51220000D01*
X202462000Y-52920000D02*
X202462000Y-51220000D01*
X183412000Y-52920000D02*
X185962000Y-52920000D01*
X183412000Y-51220000D02*
X185962000Y-51220000D01*
X183412000Y-52920000D02*
X183412000Y-51220000D01*
X164362000Y-52920000D02*
X166912000Y-52920000D01*
X164362000Y-51220000D02*
X166912000Y-51220000D01*
X164362000Y-52920000D02*
X164362000Y-51220000D01*
X145312000Y-52920000D02*
X147862000Y-52920000D01*
X145312000Y-51220000D02*
X147862000Y-51220000D01*
X145312000Y-52920000D02*
X145312000Y-51220000D01*
X126262000Y-52920000D02*
X128812000Y-52920000D01*
X126262000Y-51220000D02*
X128812000Y-51220000D01*
X126262000Y-52920000D02*
X126262000Y-51220000D01*
X107212000Y-52920000D02*
X109762000Y-52920000D01*
X107212000Y-51220000D02*
X109762000Y-51220000D01*
X107212000Y-52920000D02*
X107212000Y-51220000D01*
X88162000Y-52920000D02*
X90712000Y-52920000D01*
X88162000Y-51220000D02*
X90712000Y-51220000D01*
X88162000Y-52920000D02*
X88162000Y-51220000D01*
X69112000Y-52920000D02*
X71662000Y-52920000D01*
X69112000Y-51220000D02*
X71662000Y-51220000D01*
X69112000Y-52920000D02*
X69112000Y-51220000D01*
X50062000Y-52920000D02*
X52612000Y-52920000D01*
X50062000Y-51220000D02*
X52612000Y-51220000D01*
X50062000Y-52920000D02*
X50062000Y-51220000D01*
X31012000Y-52920000D02*
X33562000Y-52920000D01*
X31012000Y-51220000D02*
X33562000Y-51220000D01*
X31012000Y-52920000D02*
X31012000Y-51220000D01*
D10*
X340510476Y-112926761D02*
X340367619Y-112974380D01*
X340129523Y-112974380D01*
X340034285Y-112926761D01*
X339986666Y-112879142D01*
X339939047Y-112783904D01*
X339939047Y-112688666D01*
X339986666Y-112593428D01*
X340034285Y-112545809D01*
X340129523Y-112498190D01*
X340320000Y-112450571D01*
X340415238Y-112402952D01*
X340462857Y-112355333D01*
X340510476Y-112260095D01*
X340510476Y-112164857D01*
X340462857Y-112069619D01*
X340415238Y-112022000D01*
X340320000Y-111974380D01*
X340081904Y-111974380D01*
X339939047Y-112022000D01*
X339605714Y-111974380D02*
X339367619Y-112974380D01*
X339177142Y-112260095D01*
X338986666Y-112974380D01*
X338748571Y-111974380D01*
X337796190Y-112974380D02*
X338129523Y-112498190D01*
X338367619Y-112974380D02*
X338367619Y-111974380D01*
X337986666Y-111974380D01*
X337891428Y-112022000D01*
X337843809Y-112069619D01*
X337796190Y-112164857D01*
X337796190Y-112307714D01*
X337843809Y-112402952D01*
X337891428Y-112450571D01*
X337986666Y-112498190D01*
X338367619Y-112498190D01*
X337415238Y-112926761D02*
X337272380Y-112974380D01*
X337034285Y-112974380D01*
X336939047Y-112926761D01*
X336891428Y-112879142D01*
X336843809Y-112783904D01*
X336843809Y-112688666D01*
X336891428Y-112593428D01*
X336939047Y-112545809D01*
X337034285Y-112498190D01*
X337224761Y-112450571D01*
X337320000Y-112402952D01*
X337367619Y-112355333D01*
X337415238Y-112260095D01*
X337415238Y-112164857D01*
X337367619Y-112069619D01*
X337320000Y-112022000D01*
X337224761Y-111974380D01*
X336986666Y-111974380D01*
X336843809Y-112022000D01*
X336558095Y-111974380D02*
X335986666Y-111974380D01*
X336272380Y-112974380D02*
X336272380Y-111974380D01*
X335129523Y-112974380D02*
X335700952Y-112974380D01*
X335415238Y-112974380D02*
X335415238Y-111974380D01*
X335510476Y-112117238D01*
X335605714Y-112212476D01*
X335700952Y-112260095D01*
X349051285Y-112843761D02*
X348908428Y-112891380D01*
X348670333Y-112891380D01*
X348575095Y-112843761D01*
X348527476Y-112796142D01*
X348479857Y-112700904D01*
X348479857Y-112605666D01*
X348527476Y-112510428D01*
X348575095Y-112462809D01*
X348670333Y-112415190D01*
X348860809Y-112367571D01*
X348956047Y-112319952D01*
X349003666Y-112272333D01*
X349051285Y-112177095D01*
X349051285Y-112081857D01*
X349003666Y-111986619D01*
X348956047Y-111939000D01*
X348860809Y-111891380D01*
X348622714Y-111891380D01*
X348479857Y-111939000D01*
X348146523Y-111891380D02*
X347908428Y-112891380D01*
X347717952Y-112177095D01*
X347527476Y-112891380D01*
X347289380Y-111891380D01*
X346575095Y-112367571D02*
X346432238Y-112415190D01*
X346384619Y-112462809D01*
X346337000Y-112558047D01*
X346337000Y-112700904D01*
X346384619Y-112796142D01*
X346432238Y-112843761D01*
X346527476Y-112891380D01*
X346908428Y-112891380D01*
X346908428Y-111891380D01*
X346575095Y-111891380D01*
X346479857Y-111939000D01*
X346432238Y-111986619D01*
X346384619Y-112081857D01*
X346384619Y-112177095D01*
X346432238Y-112272333D01*
X346479857Y-112319952D01*
X346575095Y-112367571D01*
X346908428Y-112367571D01*
X346051285Y-111891380D02*
X345479857Y-111891380D01*
X345765571Y-112891380D02*
X345765571Y-111891380D01*
X344622714Y-112891380D02*
X345194142Y-112891380D01*
X344908428Y-112891380D02*
X344908428Y-111891380D01*
X345003666Y-112034238D01*
X345098904Y-112129476D01*
X345194142Y-112177095D01*
D12*
X345963809Y-105461571D02*
X345987619Y-105485380D01*
X346059047Y-105509190D01*
X346106666Y-105509190D01*
X346178095Y-105485380D01*
X346225714Y-105437761D01*
X346249523Y-105390142D01*
X346273333Y-105294904D01*
X346273333Y-105223476D01*
X346249523Y-105128238D01*
X346225714Y-105080619D01*
X346178095Y-105033000D01*
X346106666Y-105009190D01*
X346059047Y-105009190D01*
X345987619Y-105033000D01*
X345963809Y-105056809D01*
X345582857Y-105247285D02*
X345511428Y-105271095D01*
X345487619Y-105294904D01*
X345463809Y-105342523D01*
X345463809Y-105413952D01*
X345487619Y-105461571D01*
X345511428Y-105485380D01*
X345559047Y-105509190D01*
X345749523Y-105509190D01*
X345749523Y-105009190D01*
X345582857Y-105009190D01*
X345535238Y-105033000D01*
X345511428Y-105056809D01*
X345487619Y-105104428D01*
X345487619Y-105152047D01*
X345511428Y-105199666D01*
X345535238Y-105223476D01*
X345582857Y-105247285D01*
X345749523Y-105247285D01*
X345320952Y-105009190D02*
X345035238Y-105009190D01*
X345178095Y-105509190D02*
X345178095Y-105009190D01*
X344606666Y-105509190D02*
X344892380Y-105509190D01*
X344749523Y-105509190D02*
X344749523Y-105009190D01*
X344797142Y-105080619D01*
X344844761Y-105128238D01*
X344892380Y-105152047D01*
D10*
X339359380Y-87249095D02*
X340168904Y-87249095D01*
X340264142Y-87296714D01*
X340311761Y-87344333D01*
X340359380Y-87439571D01*
X340359380Y-87630047D01*
X340311761Y-87725285D01*
X340264142Y-87772904D01*
X340168904Y-87820523D01*
X339359380Y-87820523D01*
X339359380Y-88201476D02*
X339359380Y-88820523D01*
X339740333Y-88487190D01*
X339740333Y-88630047D01*
X339787952Y-88725285D01*
X339835571Y-88772904D01*
X339930809Y-88820523D01*
X340168904Y-88820523D01*
X340264142Y-88772904D01*
X340311761Y-88725285D01*
X340359380Y-88630047D01*
X340359380Y-88344333D01*
X340311761Y-88249095D01*
X340264142Y-88201476D01*
X330826952Y-93162380D02*
X331160285Y-92686190D01*
X331398380Y-93162380D02*
X331398380Y-92162380D01*
X331017428Y-92162380D01*
X330922190Y-92210000D01*
X330874571Y-92257619D01*
X330826952Y-92352857D01*
X330826952Y-92495714D01*
X330874571Y-92590952D01*
X330922190Y-92638571D01*
X331017428Y-92686190D01*
X331398380Y-92686190D01*
X330446000Y-93114761D02*
X330303142Y-93162380D01*
X330065047Y-93162380D01*
X329969809Y-93114761D01*
X329922190Y-93067142D01*
X329874571Y-92971904D01*
X329874571Y-92876666D01*
X329922190Y-92781428D01*
X329969809Y-92733809D01*
X330065047Y-92686190D01*
X330255523Y-92638571D01*
X330350761Y-92590952D01*
X330398380Y-92543333D01*
X330446000Y-92448095D01*
X330446000Y-92352857D01*
X330398380Y-92257619D01*
X330350761Y-92210000D01*
X330255523Y-92162380D01*
X330017428Y-92162380D01*
X329874571Y-92210000D01*
X329446000Y-93162380D02*
X329446000Y-92162380D01*
X328446000Y-93162380D02*
X329017428Y-93162380D01*
X328731714Y-93162380D02*
X328731714Y-92162380D01*
X328826952Y-92305238D01*
X328922190Y-92400476D01*
X329017428Y-92448095D01*
X316563333Y-85399571D02*
X316896666Y-85399571D01*
X316896666Y-85923380D02*
X316896666Y-84923380D01*
X316420476Y-84923380D01*
X315515714Y-85923380D02*
X316087142Y-85923380D01*
X315801428Y-85923380D02*
X315801428Y-84923380D01*
X315896666Y-85066238D01*
X315991904Y-85161476D01*
X316087142Y-85209095D01*
X321841666Y-85224880D02*
X321841666Y-84224880D01*
X321603571Y-84224880D01*
X321460714Y-84272500D01*
X321365476Y-84367738D01*
X321317857Y-84462976D01*
X321270238Y-84653452D01*
X321270238Y-84796309D01*
X321317857Y-84986785D01*
X321365476Y-85082023D01*
X321460714Y-85177261D01*
X321603571Y-85224880D01*
X321841666Y-85224880D01*
X320508333Y-84701071D02*
X320841666Y-84701071D01*
X320841666Y-85224880D02*
X320841666Y-84224880D01*
X320365476Y-84224880D01*
X319460714Y-85224880D02*
X320032142Y-85224880D01*
X319746428Y-85224880D02*
X319746428Y-84224880D01*
X319841666Y-84367738D01*
X319936904Y-84462976D01*
X320032142Y-84510595D01*
X329763380Y-85590214D02*
X328763380Y-85590214D01*
X328763380Y-85828309D01*
X328811000Y-85971166D01*
X328906238Y-86066404D01*
X329001476Y-86114023D01*
X329191952Y-86161642D01*
X329334809Y-86161642D01*
X329525285Y-86114023D01*
X329620523Y-86066404D01*
X329715761Y-85971166D01*
X329763380Y-85828309D01*
X329763380Y-85590214D01*
X329715761Y-86542595D02*
X329763380Y-86685452D01*
X329763380Y-86923547D01*
X329715761Y-87018785D01*
X329668142Y-87066404D01*
X329572904Y-87114023D01*
X329477666Y-87114023D01*
X329382428Y-87066404D01*
X329334809Y-87018785D01*
X329287190Y-86923547D01*
X329239571Y-86733071D01*
X329191952Y-86637833D01*
X329144333Y-86590214D01*
X329049095Y-86542595D01*
X328953857Y-86542595D01*
X328858619Y-86590214D01*
X328811000Y-86637833D01*
X328763380Y-86733071D01*
X328763380Y-86971166D01*
X328811000Y-87114023D01*
X329763380Y-88066404D02*
X329763380Y-87494976D01*
X329763380Y-87780690D02*
X328763380Y-87780690D01*
X328906238Y-87685452D01*
X329001476Y-87590214D01*
X329049095Y-87494976D01*
D12*
X324687333Y-83744571D02*
X324711142Y-83768380D01*
X324782571Y-83792190D01*
X324830190Y-83792190D01*
X324901619Y-83768380D01*
X324949238Y-83720761D01*
X324973047Y-83673142D01*
X324996857Y-83577904D01*
X324996857Y-83506476D01*
X324973047Y-83411238D01*
X324949238Y-83363619D01*
X324901619Y-83316000D01*
X324830190Y-83292190D01*
X324782571Y-83292190D01*
X324711142Y-83316000D01*
X324687333Y-83339809D01*
X324496857Y-83768380D02*
X324425428Y-83792190D01*
X324306380Y-83792190D01*
X324258761Y-83768380D01*
X324234952Y-83744571D01*
X324211142Y-83696952D01*
X324211142Y-83649333D01*
X324234952Y-83601714D01*
X324258761Y-83577904D01*
X324306380Y-83554095D01*
X324401619Y-83530285D01*
X324449238Y-83506476D01*
X324473047Y-83482666D01*
X324496857Y-83435047D01*
X324496857Y-83387428D01*
X324473047Y-83339809D01*
X324449238Y-83316000D01*
X324401619Y-83292190D01*
X324282571Y-83292190D01*
X324211142Y-83316000D01*
X323901619Y-83292190D02*
X323806380Y-83292190D01*
X323758761Y-83316000D01*
X323711142Y-83363619D01*
X323687333Y-83458857D01*
X323687333Y-83625523D01*
X323711142Y-83720761D01*
X323758761Y-83768380D01*
X323806380Y-83792190D01*
X323901619Y-83792190D01*
X323949238Y-83768380D01*
X323996857Y-83720761D01*
X324020666Y-83625523D01*
X324020666Y-83458857D01*
X323996857Y-83363619D01*
X323949238Y-83316000D01*
X323901619Y-83292190D01*
X323211142Y-83792190D02*
X323496857Y-83792190D01*
X323354000Y-83792190D02*
X323354000Y-83292190D01*
X323401619Y-83363619D01*
X323449238Y-83411238D01*
X323496857Y-83435047D01*
X324544476Y-92634571D02*
X324568285Y-92658380D01*
X324639714Y-92682190D01*
X324687333Y-92682190D01*
X324758761Y-92658380D01*
X324806380Y-92610761D01*
X324830190Y-92563142D01*
X324854000Y-92467904D01*
X324854000Y-92396476D01*
X324830190Y-92301238D01*
X324806380Y-92253619D01*
X324758761Y-92206000D01*
X324687333Y-92182190D01*
X324639714Y-92182190D01*
X324568285Y-92206000D01*
X324544476Y-92229809D01*
X324354000Y-92658380D02*
X324282571Y-92682190D01*
X324163523Y-92682190D01*
X324115904Y-92658380D01*
X324092095Y-92634571D01*
X324068285Y-92586952D01*
X324068285Y-92539333D01*
X324092095Y-92491714D01*
X324115904Y-92467904D01*
X324163523Y-92444095D01*
X324258761Y-92420285D01*
X324306380Y-92396476D01*
X324330190Y-92372666D01*
X324354000Y-92325047D01*
X324354000Y-92277428D01*
X324330190Y-92229809D01*
X324306380Y-92206000D01*
X324258761Y-92182190D01*
X324139714Y-92182190D01*
X324068285Y-92206000D01*
X323854000Y-92682190D02*
X323854000Y-92182190D01*
X323354000Y-92682190D02*
X323639714Y-92682190D01*
X323496857Y-92682190D02*
X323496857Y-92182190D01*
X323544476Y-92253619D01*
X323592095Y-92301238D01*
X323639714Y-92325047D01*
X299795333Y-53947190D02*
X299962000Y-53709095D01*
X300081047Y-53947190D02*
X300081047Y-53447190D01*
X299890571Y-53447190D01*
X299842952Y-53471000D01*
X299819142Y-53494809D01*
X299795333Y-53542428D01*
X299795333Y-53613857D01*
X299819142Y-53661476D01*
X299842952Y-53685285D01*
X299890571Y-53709095D01*
X300081047Y-53709095D01*
X299604857Y-53923380D02*
X299533428Y-53947190D01*
X299414380Y-53947190D01*
X299366761Y-53923380D01*
X299342952Y-53899571D01*
X299319142Y-53851952D01*
X299319142Y-53804333D01*
X299342952Y-53756714D01*
X299366761Y-53732904D01*
X299414380Y-53709095D01*
X299509619Y-53685285D01*
X299557238Y-53661476D01*
X299581047Y-53637666D01*
X299604857Y-53590047D01*
X299604857Y-53542428D01*
X299581047Y-53494809D01*
X299557238Y-53471000D01*
X299509619Y-53447190D01*
X299390571Y-53447190D01*
X299319142Y-53471000D01*
X299104857Y-53947190D02*
X299104857Y-53447190D01*
X299104857Y-53685285D02*
X298819142Y-53685285D01*
X298819142Y-53947190D02*
X298819142Y-53447190D01*
X298319142Y-53947190D02*
X298604857Y-53947190D01*
X298462000Y-53947190D02*
X298462000Y-53447190D01*
X298509619Y-53518619D01*
X298557238Y-53566238D01*
X298604857Y-53590047D01*
X297636333Y-53899571D02*
X297660142Y-53923380D01*
X297731571Y-53947190D01*
X297779190Y-53947190D01*
X297850619Y-53923380D01*
X297898238Y-53875761D01*
X297922047Y-53828142D01*
X297945857Y-53732904D01*
X297945857Y-53661476D01*
X297922047Y-53566238D01*
X297898238Y-53518619D01*
X297850619Y-53471000D01*
X297779190Y-53447190D01*
X297731571Y-53447190D01*
X297660142Y-53471000D01*
X297636333Y-53494809D01*
X297445857Y-53923380D02*
X297374428Y-53947190D01*
X297255380Y-53947190D01*
X297207761Y-53923380D01*
X297183952Y-53899571D01*
X297160142Y-53851952D01*
X297160142Y-53804333D01*
X297183952Y-53756714D01*
X297207761Y-53732904D01*
X297255380Y-53709095D01*
X297350619Y-53685285D01*
X297398238Y-53661476D01*
X297422047Y-53637666D01*
X297445857Y-53590047D01*
X297445857Y-53542428D01*
X297422047Y-53494809D01*
X297398238Y-53471000D01*
X297350619Y-53447190D01*
X297231571Y-53447190D01*
X297160142Y-53471000D01*
X296945857Y-53947190D02*
X296945857Y-53447190D01*
X296945857Y-53685285D02*
X296660142Y-53685285D01*
X296660142Y-53947190D02*
X296660142Y-53447190D01*
X296160142Y-53947190D02*
X296445857Y-53947190D01*
X296303000Y-53947190D02*
X296303000Y-53447190D01*
X296350619Y-53518619D01*
X296398238Y-53566238D01*
X296445857Y-53590047D01*
D10*
X325610548Y-96471947D02*
X325038128Y-97044367D01*
X324937113Y-97078039D01*
X324869769Y-97078039D01*
X324768754Y-97044367D01*
X324634067Y-96909680D01*
X324600395Y-96808665D01*
X324600395Y-96741321D01*
X324634067Y-96640306D01*
X325206487Y-96067886D01*
X324836097Y-95832184D02*
X324836097Y-95764841D01*
X324802426Y-95663825D01*
X324634067Y-95495467D01*
X324533052Y-95461795D01*
X324465708Y-95461795D01*
X324364693Y-95495467D01*
X324297349Y-95562810D01*
X324230006Y-95697497D01*
X324230006Y-96505619D01*
X323792273Y-96067886D01*
X312618204Y-57724380D02*
X312618204Y-58533904D01*
X312570585Y-58629142D01*
X312522966Y-58676761D01*
X312427728Y-58724380D01*
X312237252Y-58724380D01*
X312142014Y-58676761D01*
X312094395Y-58629142D01*
X312046776Y-58533904D01*
X312046776Y-57724380D01*
X311046776Y-58724380D02*
X311618204Y-58724380D01*
X311332490Y-58724380D02*
X311332490Y-57724380D01*
X311427728Y-57867238D01*
X311522966Y-57962476D01*
X311618204Y-58010095D01*
D12*
X344820809Y-102588190D02*
X344987476Y-102350095D01*
X345106523Y-102588190D02*
X345106523Y-102088190D01*
X344916047Y-102088190D01*
X344868428Y-102112000D01*
X344844619Y-102135809D01*
X344820809Y-102183428D01*
X344820809Y-102254857D01*
X344844619Y-102302476D01*
X344868428Y-102326285D01*
X344916047Y-102350095D01*
X345106523Y-102350095D01*
X344439857Y-102326285D02*
X344368428Y-102350095D01*
X344344619Y-102373904D01*
X344320809Y-102421523D01*
X344320809Y-102492952D01*
X344344619Y-102540571D01*
X344368428Y-102564380D01*
X344416047Y-102588190D01*
X344606523Y-102588190D01*
X344606523Y-102088190D01*
X344439857Y-102088190D01*
X344392238Y-102112000D01*
X344368428Y-102135809D01*
X344344619Y-102183428D01*
X344344619Y-102231047D01*
X344368428Y-102278666D01*
X344392238Y-102302476D01*
X344439857Y-102326285D01*
X344606523Y-102326285D01*
X344177952Y-102088190D02*
X343892238Y-102088190D01*
X344035095Y-102588190D02*
X344035095Y-102088190D01*
X343463666Y-102588190D02*
X343749380Y-102588190D01*
X343606523Y-102588190D02*
X343606523Y-102088190D01*
X343654142Y-102159619D01*
X343701761Y-102207238D01*
X343749380Y-102231047D01*
D10*
X349630809Y-94686380D02*
X349964142Y-94210190D01*
X350202238Y-94686380D02*
X350202238Y-93686380D01*
X349821285Y-93686380D01*
X349726047Y-93734000D01*
X349678428Y-93781619D01*
X349630809Y-93876857D01*
X349630809Y-94019714D01*
X349678428Y-94114952D01*
X349726047Y-94162571D01*
X349821285Y-94210190D01*
X350202238Y-94210190D01*
X348726047Y-94686380D02*
X349202238Y-94686380D01*
X349202238Y-93686380D01*
X348392714Y-94162571D02*
X348059380Y-94162571D01*
X347916523Y-94686380D02*
X348392714Y-94686380D01*
X348392714Y-93686380D01*
X347916523Y-93686380D01*
X347487952Y-94686380D02*
X347487952Y-93686380D01*
X347249857Y-93686380D01*
X347107000Y-93734000D01*
X347011761Y-93829238D01*
X346964142Y-93924476D01*
X346916523Y-94114952D01*
X346916523Y-94257809D01*
X346964142Y-94448285D01*
X347011761Y-94543523D01*
X347107000Y-94638761D01*
X347249857Y-94686380D01*
X347487952Y-94686380D01*
X345964142Y-94686380D02*
X346535571Y-94686380D01*
X346249857Y-94686380D02*
X346249857Y-93686380D01*
X346345095Y-93829238D01*
X346440333Y-93924476D01*
X346535571Y-93972095D01*
X313221476Y-97946380D02*
X313554809Y-97470190D01*
X313792904Y-97946380D02*
X313792904Y-96946380D01*
X313411952Y-96946380D01*
X313316714Y-96994000D01*
X313269095Y-97041619D01*
X313221476Y-97136857D01*
X313221476Y-97279714D01*
X313269095Y-97374952D01*
X313316714Y-97422571D01*
X313411952Y-97470190D01*
X313792904Y-97470190D01*
X312269095Y-96994000D02*
X312364333Y-96946380D01*
X312507190Y-96946380D01*
X312650047Y-96994000D01*
X312745285Y-97089238D01*
X312792904Y-97184476D01*
X312840523Y-97374952D01*
X312840523Y-97517809D01*
X312792904Y-97708285D01*
X312745285Y-97803523D01*
X312650047Y-97898761D01*
X312507190Y-97946380D01*
X312411952Y-97946380D01*
X312269095Y-97898761D01*
X312221476Y-97851142D01*
X312221476Y-97517809D01*
X312411952Y-97517809D01*
X311792904Y-97946380D02*
X311792904Y-96946380D01*
X311221476Y-97946380D01*
X311221476Y-96946380D01*
X310745285Y-97946380D02*
X310745285Y-96946380D01*
X310507190Y-96946380D01*
X310364333Y-96994000D01*
X310269095Y-97089238D01*
X310221476Y-97184476D01*
X310173857Y-97374952D01*
X310173857Y-97517809D01*
X310221476Y-97708285D01*
X310269095Y-97803523D01*
X310364333Y-97898761D01*
X310507190Y-97946380D01*
X310745285Y-97946380D01*
X309221476Y-97946380D02*
X309792904Y-97946380D01*
X309507190Y-97946380D02*
X309507190Y-96946380D01*
X309602428Y-97089238D01*
X309697666Y-97184476D01*
X309792904Y-97232095D01*
X308553380Y-51919333D02*
X308077190Y-51586000D01*
X308553380Y-51347904D02*
X307553380Y-51347904D01*
X307553380Y-51728857D01*
X307601000Y-51824095D01*
X307648619Y-51871714D01*
X307743857Y-51919333D01*
X307886714Y-51919333D01*
X307981952Y-51871714D01*
X308029571Y-51824095D01*
X308077190Y-51728857D01*
X308077190Y-51347904D01*
X308458142Y-52919333D02*
X308505761Y-52871714D01*
X308553380Y-52728857D01*
X308553380Y-52633619D01*
X308505761Y-52490761D01*
X308410523Y-52395523D01*
X308315285Y-52347904D01*
X308124809Y-52300285D01*
X307981952Y-52300285D01*
X307791476Y-52347904D01*
X307696238Y-52395523D01*
X307601000Y-52490761D01*
X307553380Y-52633619D01*
X307553380Y-52728857D01*
X307601000Y-52871714D01*
X307648619Y-52919333D01*
X308458142Y-53919333D02*
X308505761Y-53871714D01*
X308553380Y-53728857D01*
X308553380Y-53633619D01*
X308505761Y-53490761D01*
X308410523Y-53395523D01*
X308315285Y-53347904D01*
X308124809Y-53300285D01*
X307981952Y-53300285D01*
X307791476Y-53347904D01*
X307696238Y-53395523D01*
X307601000Y-53490761D01*
X307553380Y-53633619D01*
X307553380Y-53728857D01*
X307601000Y-53871714D01*
X307648619Y-53919333D01*
X307648619Y-54300285D02*
X307601000Y-54347904D01*
X307553380Y-54443142D01*
X307553380Y-54681238D01*
X307601000Y-54776476D01*
X307648619Y-54824095D01*
X307743857Y-54871714D01*
X307839095Y-54871714D01*
X307981952Y-54824095D01*
X308553380Y-54252666D01*
X308553380Y-54871714D01*
X319348380Y-52173333D02*
X318872190Y-51840000D01*
X319348380Y-51601904D02*
X318348380Y-51601904D01*
X318348380Y-51982857D01*
X318396000Y-52078095D01*
X318443619Y-52125714D01*
X318538857Y-52173333D01*
X318681714Y-52173333D01*
X318776952Y-52125714D01*
X318824571Y-52078095D01*
X318872190Y-51982857D01*
X318872190Y-51601904D01*
X319253142Y-53173333D02*
X319300761Y-53125714D01*
X319348380Y-52982857D01*
X319348380Y-52887619D01*
X319300761Y-52744761D01*
X319205523Y-52649523D01*
X319110285Y-52601904D01*
X318919809Y-52554285D01*
X318776952Y-52554285D01*
X318586476Y-52601904D01*
X318491238Y-52649523D01*
X318396000Y-52744761D01*
X318348380Y-52887619D01*
X318348380Y-52982857D01*
X318396000Y-53125714D01*
X318443619Y-53173333D01*
X319253142Y-54173333D02*
X319300761Y-54125714D01*
X319348380Y-53982857D01*
X319348380Y-53887619D01*
X319300761Y-53744761D01*
X319205523Y-53649523D01*
X319110285Y-53601904D01*
X318919809Y-53554285D01*
X318776952Y-53554285D01*
X318586476Y-53601904D01*
X318491238Y-53649523D01*
X318396000Y-53744761D01*
X318348380Y-53887619D01*
X318348380Y-53982857D01*
X318396000Y-54125714D01*
X318443619Y-54173333D01*
X319348380Y-55125714D02*
X319348380Y-54554285D01*
X319348380Y-54840000D02*
X318348380Y-54840000D01*
X318491238Y-54744761D01*
X318586476Y-54649523D01*
X318634095Y-54554285D01*
X339224857Y-137452380D02*
X339558190Y-136976190D01*
X339796285Y-137452380D02*
X339796285Y-136452380D01*
X339415333Y-136452380D01*
X339320095Y-136500000D01*
X339272476Y-136547619D01*
X339224857Y-136642857D01*
X339224857Y-136785714D01*
X339272476Y-136880952D01*
X339320095Y-136928571D01*
X339415333Y-136976190D01*
X339796285Y-136976190D01*
X338367714Y-136452380D02*
X338558190Y-136452380D01*
X338653428Y-136500000D01*
X338701047Y-136547619D01*
X338796285Y-136690476D01*
X338843904Y-136880952D01*
X338843904Y-137261904D01*
X338796285Y-137357142D01*
X338748666Y-137404761D01*
X338653428Y-137452380D01*
X338462952Y-137452380D01*
X338367714Y-137404761D01*
X338320095Y-137357142D01*
X338272476Y-137261904D01*
X338272476Y-137023809D01*
X338320095Y-136928571D01*
X338367714Y-136880952D01*
X338462952Y-136833333D01*
X338653428Y-136833333D01*
X338748666Y-136880952D01*
X338796285Y-136928571D01*
X338843904Y-137023809D01*
X337939142Y-136452380D02*
X337272476Y-136452380D01*
X337701047Y-137452380D01*
X320174857Y-137452380D02*
X320508190Y-136976190D01*
X320746285Y-137452380D02*
X320746285Y-136452380D01*
X320365333Y-136452380D01*
X320270095Y-136500000D01*
X320222476Y-136547619D01*
X320174857Y-136642857D01*
X320174857Y-136785714D01*
X320222476Y-136880952D01*
X320270095Y-136928571D01*
X320365333Y-136976190D01*
X320746285Y-136976190D01*
X319317714Y-136452380D02*
X319508190Y-136452380D01*
X319603428Y-136500000D01*
X319651047Y-136547619D01*
X319746285Y-136690476D01*
X319793904Y-136880952D01*
X319793904Y-137261904D01*
X319746285Y-137357142D01*
X319698666Y-137404761D01*
X319603428Y-137452380D01*
X319412952Y-137452380D01*
X319317714Y-137404761D01*
X319270095Y-137357142D01*
X319222476Y-137261904D01*
X319222476Y-137023809D01*
X319270095Y-136928571D01*
X319317714Y-136880952D01*
X319412952Y-136833333D01*
X319603428Y-136833333D01*
X319698666Y-136880952D01*
X319746285Y-136928571D01*
X319793904Y-137023809D01*
X318365333Y-136452380D02*
X318555809Y-136452380D01*
X318651047Y-136500000D01*
X318698666Y-136547619D01*
X318793904Y-136690476D01*
X318841523Y-136880952D01*
X318841523Y-137261904D01*
X318793904Y-137357142D01*
X318746285Y-137404761D01*
X318651047Y-137452380D01*
X318460571Y-137452380D01*
X318365333Y-137404761D01*
X318317714Y-137357142D01*
X318270095Y-137261904D01*
X318270095Y-137023809D01*
X318317714Y-136928571D01*
X318365333Y-136880952D01*
X318460571Y-136833333D01*
X318651047Y-136833333D01*
X318746285Y-136880952D01*
X318793904Y-136928571D01*
X318841523Y-137023809D01*
X301124857Y-137452380D02*
X301458190Y-136976190D01*
X301696285Y-137452380D02*
X301696285Y-136452380D01*
X301315333Y-136452380D01*
X301220095Y-136500000D01*
X301172476Y-136547619D01*
X301124857Y-136642857D01*
X301124857Y-136785714D01*
X301172476Y-136880952D01*
X301220095Y-136928571D01*
X301315333Y-136976190D01*
X301696285Y-136976190D01*
X300267714Y-136452380D02*
X300458190Y-136452380D01*
X300553428Y-136500000D01*
X300601047Y-136547619D01*
X300696285Y-136690476D01*
X300743904Y-136880952D01*
X300743904Y-137261904D01*
X300696285Y-137357142D01*
X300648666Y-137404761D01*
X300553428Y-137452380D01*
X300362952Y-137452380D01*
X300267714Y-137404761D01*
X300220095Y-137357142D01*
X300172476Y-137261904D01*
X300172476Y-137023809D01*
X300220095Y-136928571D01*
X300267714Y-136880952D01*
X300362952Y-136833333D01*
X300553428Y-136833333D01*
X300648666Y-136880952D01*
X300696285Y-136928571D01*
X300743904Y-137023809D01*
X299267714Y-136452380D02*
X299743904Y-136452380D01*
X299791523Y-136928571D01*
X299743904Y-136880952D01*
X299648666Y-136833333D01*
X299410571Y-136833333D01*
X299315333Y-136880952D01*
X299267714Y-136928571D01*
X299220095Y-137023809D01*
X299220095Y-137261904D01*
X299267714Y-137357142D01*
X299315333Y-137404761D01*
X299410571Y-137452380D01*
X299648666Y-137452380D01*
X299743904Y-137404761D01*
X299791523Y-137357142D01*
X270136857Y-137452380D02*
X270470190Y-136976190D01*
X270708285Y-137452380D02*
X270708285Y-136452380D01*
X270327333Y-136452380D01*
X270232095Y-136500000D01*
X270184476Y-136547619D01*
X270136857Y-136642857D01*
X270136857Y-136785714D01*
X270184476Y-136880952D01*
X270232095Y-136928571D01*
X270327333Y-136976190D01*
X270708285Y-136976190D01*
X269279714Y-136452380D02*
X269470190Y-136452380D01*
X269565428Y-136500000D01*
X269613047Y-136547619D01*
X269708285Y-136690476D01*
X269755904Y-136880952D01*
X269755904Y-137261904D01*
X269708285Y-137357142D01*
X269660666Y-137404761D01*
X269565428Y-137452380D01*
X269374952Y-137452380D01*
X269279714Y-137404761D01*
X269232095Y-137357142D01*
X269184476Y-137261904D01*
X269184476Y-137023809D01*
X269232095Y-136928571D01*
X269279714Y-136880952D01*
X269374952Y-136833333D01*
X269565428Y-136833333D01*
X269660666Y-136880952D01*
X269708285Y-136928571D01*
X269755904Y-137023809D01*
X268327333Y-136785714D02*
X268327333Y-137452380D01*
X268565428Y-136404761D02*
X268803523Y-137119047D01*
X268184476Y-137119047D01*
X246387857Y-137452380D02*
X246721190Y-136976190D01*
X246959285Y-137452380D02*
X246959285Y-136452380D01*
X246578333Y-136452380D01*
X246483095Y-136500000D01*
X246435476Y-136547619D01*
X246387857Y-136642857D01*
X246387857Y-136785714D01*
X246435476Y-136880952D01*
X246483095Y-136928571D01*
X246578333Y-136976190D01*
X246959285Y-136976190D01*
X245530714Y-136452380D02*
X245721190Y-136452380D01*
X245816428Y-136500000D01*
X245864047Y-136547619D01*
X245959285Y-136690476D01*
X246006904Y-136880952D01*
X246006904Y-137261904D01*
X245959285Y-137357142D01*
X245911666Y-137404761D01*
X245816428Y-137452380D01*
X245625952Y-137452380D01*
X245530714Y-137404761D01*
X245483095Y-137357142D01*
X245435476Y-137261904D01*
X245435476Y-137023809D01*
X245483095Y-136928571D01*
X245530714Y-136880952D01*
X245625952Y-136833333D01*
X245816428Y-136833333D01*
X245911666Y-136880952D01*
X245959285Y-136928571D01*
X246006904Y-137023809D01*
X245102142Y-136452380D02*
X244483095Y-136452380D01*
X244816428Y-136833333D01*
X244673571Y-136833333D01*
X244578333Y-136880952D01*
X244530714Y-136928571D01*
X244483095Y-137023809D01*
X244483095Y-137261904D01*
X244530714Y-137357142D01*
X244578333Y-137404761D01*
X244673571Y-137452380D01*
X244959285Y-137452380D01*
X245054523Y-137404761D01*
X245102142Y-137357142D01*
X222511857Y-137452380D02*
X222845190Y-136976190D01*
X223083285Y-137452380D02*
X223083285Y-136452380D01*
X222702333Y-136452380D01*
X222607095Y-136500000D01*
X222559476Y-136547619D01*
X222511857Y-136642857D01*
X222511857Y-136785714D01*
X222559476Y-136880952D01*
X222607095Y-136928571D01*
X222702333Y-136976190D01*
X223083285Y-136976190D01*
X221654714Y-136452380D02*
X221845190Y-136452380D01*
X221940428Y-136500000D01*
X221988047Y-136547619D01*
X222083285Y-136690476D01*
X222130904Y-136880952D01*
X222130904Y-137261904D01*
X222083285Y-137357142D01*
X222035666Y-137404761D01*
X221940428Y-137452380D01*
X221749952Y-137452380D01*
X221654714Y-137404761D01*
X221607095Y-137357142D01*
X221559476Y-137261904D01*
X221559476Y-137023809D01*
X221607095Y-136928571D01*
X221654714Y-136880952D01*
X221749952Y-136833333D01*
X221940428Y-136833333D01*
X222035666Y-136880952D01*
X222083285Y-136928571D01*
X222130904Y-137023809D01*
X221178523Y-136547619D02*
X221130904Y-136500000D01*
X221035666Y-136452380D01*
X220797571Y-136452380D01*
X220702333Y-136500000D01*
X220654714Y-136547619D01*
X220607095Y-136642857D01*
X220607095Y-136738095D01*
X220654714Y-136880952D01*
X221226142Y-137452380D01*
X220607095Y-137452380D01*
X151010857Y-137452380D02*
X151344190Y-136976190D01*
X151582285Y-137452380D02*
X151582285Y-136452380D01*
X151201333Y-136452380D01*
X151106095Y-136500000D01*
X151058476Y-136547619D01*
X151010857Y-136642857D01*
X151010857Y-136785714D01*
X151058476Y-136880952D01*
X151106095Y-136928571D01*
X151201333Y-136976190D01*
X151582285Y-136976190D01*
X150153714Y-136452380D02*
X150344190Y-136452380D01*
X150439428Y-136500000D01*
X150487047Y-136547619D01*
X150582285Y-136690476D01*
X150629904Y-136880952D01*
X150629904Y-137261904D01*
X150582285Y-137357142D01*
X150534666Y-137404761D01*
X150439428Y-137452380D01*
X150248952Y-137452380D01*
X150153714Y-137404761D01*
X150106095Y-137357142D01*
X150058476Y-137261904D01*
X150058476Y-137023809D01*
X150106095Y-136928571D01*
X150153714Y-136880952D01*
X150248952Y-136833333D01*
X150439428Y-136833333D01*
X150534666Y-136880952D01*
X150582285Y-136928571D01*
X150629904Y-137023809D01*
X149106095Y-137452380D02*
X149677523Y-137452380D01*
X149391809Y-137452380D02*
X149391809Y-136452380D01*
X149487047Y-136595238D01*
X149582285Y-136690476D01*
X149677523Y-136738095D01*
X79636857Y-137452380D02*
X79970190Y-136976190D01*
X80208285Y-137452380D02*
X80208285Y-136452380D01*
X79827333Y-136452380D01*
X79732095Y-136500000D01*
X79684476Y-136547619D01*
X79636857Y-136642857D01*
X79636857Y-136785714D01*
X79684476Y-136880952D01*
X79732095Y-136928571D01*
X79827333Y-136976190D01*
X80208285Y-136976190D01*
X78779714Y-136452380D02*
X78970190Y-136452380D01*
X79065428Y-136500000D01*
X79113047Y-136547619D01*
X79208285Y-136690476D01*
X79255904Y-136880952D01*
X79255904Y-137261904D01*
X79208285Y-137357142D01*
X79160666Y-137404761D01*
X79065428Y-137452380D01*
X78874952Y-137452380D01*
X78779714Y-137404761D01*
X78732095Y-137357142D01*
X78684476Y-137261904D01*
X78684476Y-137023809D01*
X78732095Y-136928571D01*
X78779714Y-136880952D01*
X78874952Y-136833333D01*
X79065428Y-136833333D01*
X79160666Y-136880952D01*
X79208285Y-136928571D01*
X79255904Y-137023809D01*
X78065428Y-136452380D02*
X77970190Y-136452380D01*
X77874952Y-136500000D01*
X77827333Y-136547619D01*
X77779714Y-136642857D01*
X77732095Y-136833333D01*
X77732095Y-137071428D01*
X77779714Y-137261904D01*
X77827333Y-137357142D01*
X77874952Y-137404761D01*
X77970190Y-137452380D01*
X78065428Y-137452380D01*
X78160666Y-137404761D01*
X78208285Y-137357142D01*
X78255904Y-137261904D01*
X78303523Y-137071428D01*
X78303523Y-136833333D01*
X78255904Y-136642857D01*
X78208285Y-136547619D01*
X78160666Y-136500000D01*
X78065428Y-136452380D01*
X55887857Y-137452380D02*
X56221190Y-136976190D01*
X56459285Y-137452380D02*
X56459285Y-136452380D01*
X56078333Y-136452380D01*
X55983095Y-136500000D01*
X55935476Y-136547619D01*
X55887857Y-136642857D01*
X55887857Y-136785714D01*
X55935476Y-136880952D01*
X55983095Y-136928571D01*
X56078333Y-136976190D01*
X56459285Y-136976190D01*
X54983095Y-136452380D02*
X55459285Y-136452380D01*
X55506904Y-136928571D01*
X55459285Y-136880952D01*
X55364047Y-136833333D01*
X55125952Y-136833333D01*
X55030714Y-136880952D01*
X54983095Y-136928571D01*
X54935476Y-137023809D01*
X54935476Y-137261904D01*
X54983095Y-137357142D01*
X55030714Y-137404761D01*
X55125952Y-137452380D01*
X55364047Y-137452380D01*
X55459285Y-137404761D01*
X55506904Y-137357142D01*
X54459285Y-137452380D02*
X54268809Y-137452380D01*
X54173571Y-137404761D01*
X54125952Y-137357142D01*
X54030714Y-137214285D01*
X53983095Y-137023809D01*
X53983095Y-136642857D01*
X54030714Y-136547619D01*
X54078333Y-136500000D01*
X54173571Y-136452380D01*
X54364047Y-136452380D01*
X54459285Y-136500000D01*
X54506904Y-136547619D01*
X54554523Y-136642857D01*
X54554523Y-136880952D01*
X54506904Y-136976190D01*
X54459285Y-137023809D01*
X54364047Y-137071428D01*
X54173571Y-137071428D01*
X54078333Y-137023809D01*
X54030714Y-136976190D01*
X53983095Y-136880952D01*
X32011857Y-137452380D02*
X32345190Y-136976190D01*
X32583285Y-137452380D02*
X32583285Y-136452380D01*
X32202333Y-136452380D01*
X32107095Y-136500000D01*
X32059476Y-136547619D01*
X32011857Y-136642857D01*
X32011857Y-136785714D01*
X32059476Y-136880952D01*
X32107095Y-136928571D01*
X32202333Y-136976190D01*
X32583285Y-136976190D01*
X31107095Y-136452380D02*
X31583285Y-136452380D01*
X31630904Y-136928571D01*
X31583285Y-136880952D01*
X31488047Y-136833333D01*
X31249952Y-136833333D01*
X31154714Y-136880952D01*
X31107095Y-136928571D01*
X31059476Y-137023809D01*
X31059476Y-137261904D01*
X31107095Y-137357142D01*
X31154714Y-137404761D01*
X31249952Y-137452380D01*
X31488047Y-137452380D01*
X31583285Y-137404761D01*
X31630904Y-137357142D01*
X30488047Y-136880952D02*
X30583285Y-136833333D01*
X30630904Y-136785714D01*
X30678523Y-136690476D01*
X30678523Y-136642857D01*
X30630904Y-136547619D01*
X30583285Y-136500000D01*
X30488047Y-136452380D01*
X30297571Y-136452380D01*
X30202333Y-136500000D01*
X30154714Y-136547619D01*
X30107095Y-136642857D01*
X30107095Y-136690476D01*
X30154714Y-136785714D01*
X30202333Y-136833333D01*
X30297571Y-136880952D01*
X30488047Y-136880952D01*
X30583285Y-136928571D01*
X30630904Y-136976190D01*
X30678523Y-137071428D01*
X30678523Y-137261904D01*
X30630904Y-137357142D01*
X30583285Y-137404761D01*
X30488047Y-137452380D01*
X30297571Y-137452380D01*
X30202333Y-137404761D01*
X30154714Y-137357142D01*
X30107095Y-137261904D01*
X30107095Y-137071428D01*
X30154714Y-136976190D01*
X30202333Y-136928571D01*
X30297571Y-136880952D01*
X320174857Y-118402380D02*
X320508190Y-117926190D01*
X320746285Y-118402380D02*
X320746285Y-117402380D01*
X320365333Y-117402380D01*
X320270095Y-117450000D01*
X320222476Y-117497619D01*
X320174857Y-117592857D01*
X320174857Y-117735714D01*
X320222476Y-117830952D01*
X320270095Y-117878571D01*
X320365333Y-117926190D01*
X320746285Y-117926190D01*
X319270095Y-117402380D02*
X319746285Y-117402380D01*
X319793904Y-117878571D01*
X319746285Y-117830952D01*
X319651047Y-117783333D01*
X319412952Y-117783333D01*
X319317714Y-117830952D01*
X319270095Y-117878571D01*
X319222476Y-117973809D01*
X319222476Y-118211904D01*
X319270095Y-118307142D01*
X319317714Y-118354761D01*
X319412952Y-118402380D01*
X319651047Y-118402380D01*
X319746285Y-118354761D01*
X319793904Y-118307142D01*
X318889142Y-117402380D02*
X318222476Y-117402380D01*
X318651047Y-118402380D01*
X279661857Y-118402380D02*
X279995190Y-117926190D01*
X280233285Y-118402380D02*
X280233285Y-117402380D01*
X279852333Y-117402380D01*
X279757095Y-117450000D01*
X279709476Y-117497619D01*
X279661857Y-117592857D01*
X279661857Y-117735714D01*
X279709476Y-117830952D01*
X279757095Y-117878571D01*
X279852333Y-117926190D01*
X280233285Y-117926190D01*
X278757095Y-117402380D02*
X279233285Y-117402380D01*
X279280904Y-117878571D01*
X279233285Y-117830952D01*
X279138047Y-117783333D01*
X278899952Y-117783333D01*
X278804714Y-117830952D01*
X278757095Y-117878571D01*
X278709476Y-117973809D01*
X278709476Y-118211904D01*
X278757095Y-118307142D01*
X278804714Y-118354761D01*
X278899952Y-118402380D01*
X279138047Y-118402380D01*
X279233285Y-118354761D01*
X279280904Y-118307142D01*
X277852333Y-117402380D02*
X278042809Y-117402380D01*
X278138047Y-117450000D01*
X278185666Y-117497619D01*
X278280904Y-117640476D01*
X278328523Y-117830952D01*
X278328523Y-118211904D01*
X278280904Y-118307142D01*
X278233285Y-118354761D01*
X278138047Y-118402380D01*
X277947571Y-118402380D01*
X277852333Y-118354761D01*
X277804714Y-118307142D01*
X277757095Y-118211904D01*
X277757095Y-117973809D01*
X277804714Y-117878571D01*
X277852333Y-117830952D01*
X277947571Y-117783333D01*
X278138047Y-117783333D01*
X278233285Y-117830952D01*
X278280904Y-117878571D01*
X278328523Y-117973809D01*
X243974857Y-118402380D02*
X244308190Y-117926190D01*
X244546285Y-118402380D02*
X244546285Y-117402380D01*
X244165333Y-117402380D01*
X244070095Y-117450000D01*
X244022476Y-117497619D01*
X243974857Y-117592857D01*
X243974857Y-117735714D01*
X244022476Y-117830952D01*
X244070095Y-117878571D01*
X244165333Y-117926190D01*
X244546285Y-117926190D01*
X243070095Y-117402380D02*
X243546285Y-117402380D01*
X243593904Y-117878571D01*
X243546285Y-117830952D01*
X243451047Y-117783333D01*
X243212952Y-117783333D01*
X243117714Y-117830952D01*
X243070095Y-117878571D01*
X243022476Y-117973809D01*
X243022476Y-118211904D01*
X243070095Y-118307142D01*
X243117714Y-118354761D01*
X243212952Y-118402380D01*
X243451047Y-118402380D01*
X243546285Y-118354761D01*
X243593904Y-118307142D01*
X242117714Y-117402380D02*
X242593904Y-117402380D01*
X242641523Y-117878571D01*
X242593904Y-117830952D01*
X242498666Y-117783333D01*
X242260571Y-117783333D01*
X242165333Y-117830952D01*
X242117714Y-117878571D01*
X242070095Y-117973809D01*
X242070095Y-118211904D01*
X242117714Y-118307142D01*
X242165333Y-118354761D01*
X242260571Y-118402380D01*
X242498666Y-118402380D01*
X242593904Y-118354761D01*
X242641523Y-118307142D01*
X224924857Y-118402380D02*
X225258190Y-117926190D01*
X225496285Y-118402380D02*
X225496285Y-117402380D01*
X225115333Y-117402380D01*
X225020095Y-117450000D01*
X224972476Y-117497619D01*
X224924857Y-117592857D01*
X224924857Y-117735714D01*
X224972476Y-117830952D01*
X225020095Y-117878571D01*
X225115333Y-117926190D01*
X225496285Y-117926190D01*
X224020095Y-117402380D02*
X224496285Y-117402380D01*
X224543904Y-117878571D01*
X224496285Y-117830952D01*
X224401047Y-117783333D01*
X224162952Y-117783333D01*
X224067714Y-117830952D01*
X224020095Y-117878571D01*
X223972476Y-117973809D01*
X223972476Y-118211904D01*
X224020095Y-118307142D01*
X224067714Y-118354761D01*
X224162952Y-118402380D01*
X224401047Y-118402380D01*
X224496285Y-118354761D01*
X224543904Y-118307142D01*
X223115333Y-117735714D02*
X223115333Y-118402380D01*
X223353428Y-117354761D02*
X223591523Y-118069047D01*
X222972476Y-118069047D01*
X205874857Y-118402380D02*
X206208190Y-117926190D01*
X206446285Y-118402380D02*
X206446285Y-117402380D01*
X206065333Y-117402380D01*
X205970095Y-117450000D01*
X205922476Y-117497619D01*
X205874857Y-117592857D01*
X205874857Y-117735714D01*
X205922476Y-117830952D01*
X205970095Y-117878571D01*
X206065333Y-117926190D01*
X206446285Y-117926190D01*
X204970095Y-117402380D02*
X205446285Y-117402380D01*
X205493904Y-117878571D01*
X205446285Y-117830952D01*
X205351047Y-117783333D01*
X205112952Y-117783333D01*
X205017714Y-117830952D01*
X204970095Y-117878571D01*
X204922476Y-117973809D01*
X204922476Y-118211904D01*
X204970095Y-118307142D01*
X205017714Y-118354761D01*
X205112952Y-118402380D01*
X205351047Y-118402380D01*
X205446285Y-118354761D01*
X205493904Y-118307142D01*
X204589142Y-117402380D02*
X203970095Y-117402380D01*
X204303428Y-117783333D01*
X204160571Y-117783333D01*
X204065333Y-117830952D01*
X204017714Y-117878571D01*
X203970095Y-117973809D01*
X203970095Y-118211904D01*
X204017714Y-118307142D01*
X204065333Y-118354761D01*
X204160571Y-118402380D01*
X204446285Y-118402380D01*
X204541523Y-118354761D01*
X204589142Y-118307142D01*
X186824857Y-118402380D02*
X187158190Y-117926190D01*
X187396285Y-118402380D02*
X187396285Y-117402380D01*
X187015333Y-117402380D01*
X186920095Y-117450000D01*
X186872476Y-117497619D01*
X186824857Y-117592857D01*
X186824857Y-117735714D01*
X186872476Y-117830952D01*
X186920095Y-117878571D01*
X187015333Y-117926190D01*
X187396285Y-117926190D01*
X185920095Y-117402380D02*
X186396285Y-117402380D01*
X186443904Y-117878571D01*
X186396285Y-117830952D01*
X186301047Y-117783333D01*
X186062952Y-117783333D01*
X185967714Y-117830952D01*
X185920095Y-117878571D01*
X185872476Y-117973809D01*
X185872476Y-118211904D01*
X185920095Y-118307142D01*
X185967714Y-118354761D01*
X186062952Y-118402380D01*
X186301047Y-118402380D01*
X186396285Y-118354761D01*
X186443904Y-118307142D01*
X185491523Y-117497619D02*
X185443904Y-117450000D01*
X185348666Y-117402380D01*
X185110571Y-117402380D01*
X185015333Y-117450000D01*
X184967714Y-117497619D01*
X184920095Y-117592857D01*
X184920095Y-117688095D01*
X184967714Y-117830952D01*
X185539142Y-118402380D01*
X184920095Y-118402380D01*
X167774857Y-118402380D02*
X168108190Y-117926190D01*
X168346285Y-118402380D02*
X168346285Y-117402380D01*
X167965333Y-117402380D01*
X167870095Y-117450000D01*
X167822476Y-117497619D01*
X167774857Y-117592857D01*
X167774857Y-117735714D01*
X167822476Y-117830952D01*
X167870095Y-117878571D01*
X167965333Y-117926190D01*
X168346285Y-117926190D01*
X166870095Y-117402380D02*
X167346285Y-117402380D01*
X167393904Y-117878571D01*
X167346285Y-117830952D01*
X167251047Y-117783333D01*
X167012952Y-117783333D01*
X166917714Y-117830952D01*
X166870095Y-117878571D01*
X166822476Y-117973809D01*
X166822476Y-118211904D01*
X166870095Y-118307142D01*
X166917714Y-118354761D01*
X167012952Y-118402380D01*
X167251047Y-118402380D01*
X167346285Y-118354761D01*
X167393904Y-118307142D01*
X165870095Y-118402380D02*
X166441523Y-118402380D01*
X166155809Y-118402380D02*
X166155809Y-117402380D01*
X166251047Y-117545238D01*
X166346285Y-117640476D01*
X166441523Y-117688095D01*
X148724857Y-118402380D02*
X149058190Y-117926190D01*
X149296285Y-118402380D02*
X149296285Y-117402380D01*
X148915333Y-117402380D01*
X148820095Y-117450000D01*
X148772476Y-117497619D01*
X148724857Y-117592857D01*
X148724857Y-117735714D01*
X148772476Y-117830952D01*
X148820095Y-117878571D01*
X148915333Y-117926190D01*
X149296285Y-117926190D01*
X147820095Y-117402380D02*
X148296285Y-117402380D01*
X148343904Y-117878571D01*
X148296285Y-117830952D01*
X148201047Y-117783333D01*
X147962952Y-117783333D01*
X147867714Y-117830952D01*
X147820095Y-117878571D01*
X147772476Y-117973809D01*
X147772476Y-118211904D01*
X147820095Y-118307142D01*
X147867714Y-118354761D01*
X147962952Y-118402380D01*
X148201047Y-118402380D01*
X148296285Y-118354761D01*
X148343904Y-118307142D01*
X147153428Y-117402380D02*
X147058190Y-117402380D01*
X146962952Y-117450000D01*
X146915333Y-117497619D01*
X146867714Y-117592857D01*
X146820095Y-117783333D01*
X146820095Y-118021428D01*
X146867714Y-118211904D01*
X146915333Y-118307142D01*
X146962952Y-118354761D01*
X147058190Y-118402380D01*
X147153428Y-118402380D01*
X147248666Y-118354761D01*
X147296285Y-118307142D01*
X147343904Y-118211904D01*
X147391523Y-118021428D01*
X147391523Y-117783333D01*
X147343904Y-117592857D01*
X147296285Y-117497619D01*
X147248666Y-117450000D01*
X147153428Y-117402380D01*
X129674857Y-118402380D02*
X130008190Y-117926190D01*
X130246285Y-118402380D02*
X130246285Y-117402380D01*
X129865333Y-117402380D01*
X129770095Y-117450000D01*
X129722476Y-117497619D01*
X129674857Y-117592857D01*
X129674857Y-117735714D01*
X129722476Y-117830952D01*
X129770095Y-117878571D01*
X129865333Y-117926190D01*
X130246285Y-117926190D01*
X128817714Y-117735714D02*
X128817714Y-118402380D01*
X129055809Y-117354761D02*
X129293904Y-118069047D01*
X128674857Y-118069047D01*
X128246285Y-118402380D02*
X128055809Y-118402380D01*
X127960571Y-118354761D01*
X127912952Y-118307142D01*
X127817714Y-118164285D01*
X127770095Y-117973809D01*
X127770095Y-117592857D01*
X127817714Y-117497619D01*
X127865333Y-117450000D01*
X127960571Y-117402380D01*
X128151047Y-117402380D01*
X128246285Y-117450000D01*
X128293904Y-117497619D01*
X128341523Y-117592857D01*
X128341523Y-117830952D01*
X128293904Y-117926190D01*
X128246285Y-117973809D01*
X128151047Y-118021428D01*
X127960571Y-118021428D01*
X127865333Y-117973809D01*
X127817714Y-117926190D01*
X127770095Y-117830952D01*
X110624857Y-118402380D02*
X110958190Y-117926190D01*
X111196285Y-118402380D02*
X111196285Y-117402380D01*
X110815333Y-117402380D01*
X110720095Y-117450000D01*
X110672476Y-117497619D01*
X110624857Y-117592857D01*
X110624857Y-117735714D01*
X110672476Y-117830952D01*
X110720095Y-117878571D01*
X110815333Y-117926190D01*
X111196285Y-117926190D01*
X109767714Y-117735714D02*
X109767714Y-118402380D01*
X110005809Y-117354761D02*
X110243904Y-118069047D01*
X109624857Y-118069047D01*
X109101047Y-117830952D02*
X109196285Y-117783333D01*
X109243904Y-117735714D01*
X109291523Y-117640476D01*
X109291523Y-117592857D01*
X109243904Y-117497619D01*
X109196285Y-117450000D01*
X109101047Y-117402380D01*
X108910571Y-117402380D01*
X108815333Y-117450000D01*
X108767714Y-117497619D01*
X108720095Y-117592857D01*
X108720095Y-117640476D01*
X108767714Y-117735714D01*
X108815333Y-117783333D01*
X108910571Y-117830952D01*
X109101047Y-117830952D01*
X109196285Y-117878571D01*
X109243904Y-117926190D01*
X109291523Y-118021428D01*
X109291523Y-118211904D01*
X109243904Y-118307142D01*
X109196285Y-118354761D01*
X109101047Y-118402380D01*
X108910571Y-118402380D01*
X108815333Y-118354761D01*
X108767714Y-118307142D01*
X108720095Y-118211904D01*
X108720095Y-118021428D01*
X108767714Y-117926190D01*
X108815333Y-117878571D01*
X108910571Y-117830952D01*
X91574857Y-118402380D02*
X91908190Y-117926190D01*
X92146285Y-118402380D02*
X92146285Y-117402380D01*
X91765333Y-117402380D01*
X91670095Y-117450000D01*
X91622476Y-117497619D01*
X91574857Y-117592857D01*
X91574857Y-117735714D01*
X91622476Y-117830952D01*
X91670095Y-117878571D01*
X91765333Y-117926190D01*
X92146285Y-117926190D01*
X90717714Y-117735714D02*
X90717714Y-118402380D01*
X90955809Y-117354761D02*
X91193904Y-118069047D01*
X90574857Y-118069047D01*
X90289142Y-117402380D02*
X89622476Y-117402380D01*
X90051047Y-118402380D01*
X72524857Y-118402380D02*
X72858190Y-117926190D01*
X73096285Y-118402380D02*
X73096285Y-117402380D01*
X72715333Y-117402380D01*
X72620095Y-117450000D01*
X72572476Y-117497619D01*
X72524857Y-117592857D01*
X72524857Y-117735714D01*
X72572476Y-117830952D01*
X72620095Y-117878571D01*
X72715333Y-117926190D01*
X73096285Y-117926190D01*
X71667714Y-117735714D02*
X71667714Y-118402380D01*
X71905809Y-117354761D02*
X72143904Y-118069047D01*
X71524857Y-118069047D01*
X70715333Y-117402380D02*
X70905809Y-117402380D01*
X71001047Y-117450000D01*
X71048666Y-117497619D01*
X71143904Y-117640476D01*
X71191523Y-117830952D01*
X71191523Y-118211904D01*
X71143904Y-118307142D01*
X71096285Y-118354761D01*
X71001047Y-118402380D01*
X70810571Y-118402380D01*
X70715333Y-118354761D01*
X70667714Y-118307142D01*
X70620095Y-118211904D01*
X70620095Y-117973809D01*
X70667714Y-117878571D01*
X70715333Y-117830952D01*
X70810571Y-117783333D01*
X71001047Y-117783333D01*
X71096285Y-117830952D01*
X71143904Y-117878571D01*
X71191523Y-117973809D01*
X41536857Y-118402380D02*
X41870190Y-117926190D01*
X42108285Y-118402380D02*
X42108285Y-117402380D01*
X41727333Y-117402380D01*
X41632095Y-117450000D01*
X41584476Y-117497619D01*
X41536857Y-117592857D01*
X41536857Y-117735714D01*
X41584476Y-117830952D01*
X41632095Y-117878571D01*
X41727333Y-117926190D01*
X42108285Y-117926190D01*
X40679714Y-117735714D02*
X40679714Y-118402380D01*
X40917809Y-117354761D02*
X41155904Y-118069047D01*
X40536857Y-118069047D01*
X39679714Y-117402380D02*
X40155904Y-117402380D01*
X40203523Y-117878571D01*
X40155904Y-117830952D01*
X40060666Y-117783333D01*
X39822571Y-117783333D01*
X39727333Y-117830952D01*
X39679714Y-117878571D01*
X39632095Y-117973809D01*
X39632095Y-118211904D01*
X39679714Y-118307142D01*
X39727333Y-118354761D01*
X39822571Y-118402380D01*
X40060666Y-118402380D01*
X40155904Y-118354761D01*
X40203523Y-118307142D01*
X284487857Y-99352380D02*
X284821190Y-98876190D01*
X285059285Y-99352380D02*
X285059285Y-98352380D01*
X284678333Y-98352380D01*
X284583095Y-98400000D01*
X284535476Y-98447619D01*
X284487857Y-98542857D01*
X284487857Y-98685714D01*
X284535476Y-98780952D01*
X284583095Y-98828571D01*
X284678333Y-98876190D01*
X285059285Y-98876190D01*
X283630714Y-98685714D02*
X283630714Y-99352380D01*
X283868809Y-98304761D02*
X284106904Y-99019047D01*
X283487857Y-99019047D01*
X282678333Y-98685714D02*
X282678333Y-99352380D01*
X282916428Y-98304761D02*
X283154523Y-99019047D01*
X282535476Y-99019047D01*
X253499857Y-99352380D02*
X253833190Y-98876190D01*
X254071285Y-99352380D02*
X254071285Y-98352380D01*
X253690333Y-98352380D01*
X253595095Y-98400000D01*
X253547476Y-98447619D01*
X253499857Y-98542857D01*
X253499857Y-98685714D01*
X253547476Y-98780952D01*
X253595095Y-98828571D01*
X253690333Y-98876190D01*
X254071285Y-98876190D01*
X252642714Y-98685714D02*
X252642714Y-99352380D01*
X252880809Y-98304761D02*
X253118904Y-99019047D01*
X252499857Y-99019047D01*
X252214142Y-98352380D02*
X251595095Y-98352380D01*
X251928428Y-98733333D01*
X251785571Y-98733333D01*
X251690333Y-98780952D01*
X251642714Y-98828571D01*
X251595095Y-98923809D01*
X251595095Y-99161904D01*
X251642714Y-99257142D01*
X251690333Y-99304761D01*
X251785571Y-99352380D01*
X252071285Y-99352380D01*
X252166523Y-99304761D01*
X252214142Y-99257142D01*
X234449857Y-99352380D02*
X234783190Y-98876190D01*
X235021285Y-99352380D02*
X235021285Y-98352380D01*
X234640333Y-98352380D01*
X234545095Y-98400000D01*
X234497476Y-98447619D01*
X234449857Y-98542857D01*
X234449857Y-98685714D01*
X234497476Y-98780952D01*
X234545095Y-98828571D01*
X234640333Y-98876190D01*
X235021285Y-98876190D01*
X233592714Y-98685714D02*
X233592714Y-99352380D01*
X233830809Y-98304761D02*
X234068904Y-99019047D01*
X233449857Y-99019047D01*
X233116523Y-98447619D02*
X233068904Y-98400000D01*
X232973666Y-98352380D01*
X232735571Y-98352380D01*
X232640333Y-98400000D01*
X232592714Y-98447619D01*
X232545095Y-98542857D01*
X232545095Y-98638095D01*
X232592714Y-98780952D01*
X233164142Y-99352380D01*
X232545095Y-99352380D01*
X215399857Y-99352380D02*
X215733190Y-98876190D01*
X215971285Y-99352380D02*
X215971285Y-98352380D01*
X215590333Y-98352380D01*
X215495095Y-98400000D01*
X215447476Y-98447619D01*
X215399857Y-98542857D01*
X215399857Y-98685714D01*
X215447476Y-98780952D01*
X215495095Y-98828571D01*
X215590333Y-98876190D01*
X215971285Y-98876190D01*
X214542714Y-98685714D02*
X214542714Y-99352380D01*
X214780809Y-98304761D02*
X215018904Y-99019047D01*
X214399857Y-99019047D01*
X213495095Y-99352380D02*
X214066523Y-99352380D01*
X213780809Y-99352380D02*
X213780809Y-98352380D01*
X213876047Y-98495238D01*
X213971285Y-98590476D01*
X214066523Y-98638095D01*
X196349857Y-99352380D02*
X196683190Y-98876190D01*
X196921285Y-99352380D02*
X196921285Y-98352380D01*
X196540333Y-98352380D01*
X196445095Y-98400000D01*
X196397476Y-98447619D01*
X196349857Y-98542857D01*
X196349857Y-98685714D01*
X196397476Y-98780952D01*
X196445095Y-98828571D01*
X196540333Y-98876190D01*
X196921285Y-98876190D01*
X195492714Y-98685714D02*
X195492714Y-99352380D01*
X195730809Y-98304761D02*
X195968904Y-99019047D01*
X195349857Y-99019047D01*
X194778428Y-98352380D02*
X194683190Y-98352380D01*
X194587952Y-98400000D01*
X194540333Y-98447619D01*
X194492714Y-98542857D01*
X194445095Y-98733333D01*
X194445095Y-98971428D01*
X194492714Y-99161904D01*
X194540333Y-99257142D01*
X194587952Y-99304761D01*
X194683190Y-99352380D01*
X194778428Y-99352380D01*
X194873666Y-99304761D01*
X194921285Y-99257142D01*
X194968904Y-99161904D01*
X195016523Y-98971428D01*
X195016523Y-98733333D01*
X194968904Y-98542857D01*
X194921285Y-98447619D01*
X194873666Y-98400000D01*
X194778428Y-98352380D01*
X177299857Y-99352380D02*
X177633190Y-98876190D01*
X177871285Y-99352380D02*
X177871285Y-98352380D01*
X177490333Y-98352380D01*
X177395095Y-98400000D01*
X177347476Y-98447619D01*
X177299857Y-98542857D01*
X177299857Y-98685714D01*
X177347476Y-98780952D01*
X177395095Y-98828571D01*
X177490333Y-98876190D01*
X177871285Y-98876190D01*
X176966523Y-98352380D02*
X176347476Y-98352380D01*
X176680809Y-98733333D01*
X176537952Y-98733333D01*
X176442714Y-98780952D01*
X176395095Y-98828571D01*
X176347476Y-98923809D01*
X176347476Y-99161904D01*
X176395095Y-99257142D01*
X176442714Y-99304761D01*
X176537952Y-99352380D01*
X176823666Y-99352380D01*
X176918904Y-99304761D01*
X176966523Y-99257142D01*
X175871285Y-99352380D02*
X175680809Y-99352380D01*
X175585571Y-99304761D01*
X175537952Y-99257142D01*
X175442714Y-99114285D01*
X175395095Y-98923809D01*
X175395095Y-98542857D01*
X175442714Y-98447619D01*
X175490333Y-98400000D01*
X175585571Y-98352380D01*
X175776047Y-98352380D01*
X175871285Y-98400000D01*
X175918904Y-98447619D01*
X175966523Y-98542857D01*
X175966523Y-98780952D01*
X175918904Y-98876190D01*
X175871285Y-98923809D01*
X175776047Y-98971428D01*
X175585571Y-98971428D01*
X175490333Y-98923809D01*
X175442714Y-98876190D01*
X175395095Y-98780952D01*
X158249857Y-99352380D02*
X158583190Y-98876190D01*
X158821285Y-99352380D02*
X158821285Y-98352380D01*
X158440333Y-98352380D01*
X158345095Y-98400000D01*
X158297476Y-98447619D01*
X158249857Y-98542857D01*
X158249857Y-98685714D01*
X158297476Y-98780952D01*
X158345095Y-98828571D01*
X158440333Y-98876190D01*
X158821285Y-98876190D01*
X157916523Y-98352380D02*
X157297476Y-98352380D01*
X157630809Y-98733333D01*
X157487952Y-98733333D01*
X157392714Y-98780952D01*
X157345095Y-98828571D01*
X157297476Y-98923809D01*
X157297476Y-99161904D01*
X157345095Y-99257142D01*
X157392714Y-99304761D01*
X157487952Y-99352380D01*
X157773666Y-99352380D01*
X157868904Y-99304761D01*
X157916523Y-99257142D01*
X156726047Y-98780952D02*
X156821285Y-98733333D01*
X156868904Y-98685714D01*
X156916523Y-98590476D01*
X156916523Y-98542857D01*
X156868904Y-98447619D01*
X156821285Y-98400000D01*
X156726047Y-98352380D01*
X156535571Y-98352380D01*
X156440333Y-98400000D01*
X156392714Y-98447619D01*
X156345095Y-98542857D01*
X156345095Y-98590476D01*
X156392714Y-98685714D01*
X156440333Y-98733333D01*
X156535571Y-98780952D01*
X156726047Y-98780952D01*
X156821285Y-98828571D01*
X156868904Y-98876190D01*
X156916523Y-98971428D01*
X156916523Y-99161904D01*
X156868904Y-99257142D01*
X156821285Y-99304761D01*
X156726047Y-99352380D01*
X156535571Y-99352380D01*
X156440333Y-99304761D01*
X156392714Y-99257142D01*
X156345095Y-99161904D01*
X156345095Y-98971428D01*
X156392714Y-98876190D01*
X156440333Y-98828571D01*
X156535571Y-98780952D01*
X139199857Y-99352380D02*
X139533190Y-98876190D01*
X139771285Y-99352380D02*
X139771285Y-98352380D01*
X139390333Y-98352380D01*
X139295095Y-98400000D01*
X139247476Y-98447619D01*
X139199857Y-98542857D01*
X139199857Y-98685714D01*
X139247476Y-98780952D01*
X139295095Y-98828571D01*
X139390333Y-98876190D01*
X139771285Y-98876190D01*
X138866523Y-98352380D02*
X138247476Y-98352380D01*
X138580809Y-98733333D01*
X138437952Y-98733333D01*
X138342714Y-98780952D01*
X138295095Y-98828571D01*
X138247476Y-98923809D01*
X138247476Y-99161904D01*
X138295095Y-99257142D01*
X138342714Y-99304761D01*
X138437952Y-99352380D01*
X138723666Y-99352380D01*
X138818904Y-99304761D01*
X138866523Y-99257142D01*
X137914142Y-98352380D02*
X137247476Y-98352380D01*
X137676047Y-99352380D01*
X120149857Y-99352380D02*
X120483190Y-98876190D01*
X120721285Y-99352380D02*
X120721285Y-98352380D01*
X120340333Y-98352380D01*
X120245095Y-98400000D01*
X120197476Y-98447619D01*
X120149857Y-98542857D01*
X120149857Y-98685714D01*
X120197476Y-98780952D01*
X120245095Y-98828571D01*
X120340333Y-98876190D01*
X120721285Y-98876190D01*
X119816523Y-98352380D02*
X119197476Y-98352380D01*
X119530809Y-98733333D01*
X119387952Y-98733333D01*
X119292714Y-98780952D01*
X119245095Y-98828571D01*
X119197476Y-98923809D01*
X119197476Y-99161904D01*
X119245095Y-99257142D01*
X119292714Y-99304761D01*
X119387952Y-99352380D01*
X119673666Y-99352380D01*
X119768904Y-99304761D01*
X119816523Y-99257142D01*
X118340333Y-98352380D02*
X118530809Y-98352380D01*
X118626047Y-98400000D01*
X118673666Y-98447619D01*
X118768904Y-98590476D01*
X118816523Y-98780952D01*
X118816523Y-99161904D01*
X118768904Y-99257142D01*
X118721285Y-99304761D01*
X118626047Y-99352380D01*
X118435571Y-99352380D01*
X118340333Y-99304761D01*
X118292714Y-99257142D01*
X118245095Y-99161904D01*
X118245095Y-98923809D01*
X118292714Y-98828571D01*
X118340333Y-98780952D01*
X118435571Y-98733333D01*
X118626047Y-98733333D01*
X118721285Y-98780952D01*
X118768904Y-98828571D01*
X118816523Y-98923809D01*
X101099857Y-99352380D02*
X101433190Y-98876190D01*
X101671285Y-99352380D02*
X101671285Y-98352380D01*
X101290333Y-98352380D01*
X101195095Y-98400000D01*
X101147476Y-98447619D01*
X101099857Y-98542857D01*
X101099857Y-98685714D01*
X101147476Y-98780952D01*
X101195095Y-98828571D01*
X101290333Y-98876190D01*
X101671285Y-98876190D01*
X100766523Y-98352380D02*
X100147476Y-98352380D01*
X100480809Y-98733333D01*
X100337952Y-98733333D01*
X100242714Y-98780952D01*
X100195095Y-98828571D01*
X100147476Y-98923809D01*
X100147476Y-99161904D01*
X100195095Y-99257142D01*
X100242714Y-99304761D01*
X100337952Y-99352380D01*
X100623666Y-99352380D01*
X100718904Y-99304761D01*
X100766523Y-99257142D01*
X99242714Y-98352380D02*
X99718904Y-98352380D01*
X99766523Y-98828571D01*
X99718904Y-98780952D01*
X99623666Y-98733333D01*
X99385571Y-98733333D01*
X99290333Y-98780952D01*
X99242714Y-98828571D01*
X99195095Y-98923809D01*
X99195095Y-99161904D01*
X99242714Y-99257142D01*
X99290333Y-99304761D01*
X99385571Y-99352380D01*
X99623666Y-99352380D01*
X99718904Y-99304761D01*
X99766523Y-99257142D01*
X82049857Y-99352380D02*
X82383190Y-98876190D01*
X82621285Y-99352380D02*
X82621285Y-98352380D01*
X82240333Y-98352380D01*
X82145095Y-98400000D01*
X82097476Y-98447619D01*
X82049857Y-98542857D01*
X82049857Y-98685714D01*
X82097476Y-98780952D01*
X82145095Y-98828571D01*
X82240333Y-98876190D01*
X82621285Y-98876190D01*
X81716523Y-98352380D02*
X81097476Y-98352380D01*
X81430809Y-98733333D01*
X81287952Y-98733333D01*
X81192714Y-98780952D01*
X81145095Y-98828571D01*
X81097476Y-98923809D01*
X81097476Y-99161904D01*
X81145095Y-99257142D01*
X81192714Y-99304761D01*
X81287952Y-99352380D01*
X81573666Y-99352380D01*
X81668904Y-99304761D01*
X81716523Y-99257142D01*
X80240333Y-98685714D02*
X80240333Y-99352380D01*
X80478428Y-98304761D02*
X80716523Y-99019047D01*
X80097476Y-99019047D01*
X62999857Y-99352380D02*
X63333190Y-98876190D01*
X63571285Y-99352380D02*
X63571285Y-98352380D01*
X63190333Y-98352380D01*
X63095095Y-98400000D01*
X63047476Y-98447619D01*
X62999857Y-98542857D01*
X62999857Y-98685714D01*
X63047476Y-98780952D01*
X63095095Y-98828571D01*
X63190333Y-98876190D01*
X63571285Y-98876190D01*
X62666523Y-98352380D02*
X62047476Y-98352380D01*
X62380809Y-98733333D01*
X62237952Y-98733333D01*
X62142714Y-98780952D01*
X62095095Y-98828571D01*
X62047476Y-98923809D01*
X62047476Y-99161904D01*
X62095095Y-99257142D01*
X62142714Y-99304761D01*
X62237952Y-99352380D01*
X62523666Y-99352380D01*
X62618904Y-99304761D01*
X62666523Y-99257142D01*
X61714142Y-98352380D02*
X61095095Y-98352380D01*
X61428428Y-98733333D01*
X61285571Y-98733333D01*
X61190333Y-98780952D01*
X61142714Y-98828571D01*
X61095095Y-98923809D01*
X61095095Y-99161904D01*
X61142714Y-99257142D01*
X61190333Y-99304761D01*
X61285571Y-99352380D01*
X61571285Y-99352380D01*
X61666523Y-99304761D01*
X61714142Y-99257142D01*
X36837857Y-99352380D02*
X37171190Y-98876190D01*
X37409285Y-99352380D02*
X37409285Y-98352380D01*
X37028333Y-98352380D01*
X36933095Y-98400000D01*
X36885476Y-98447619D01*
X36837857Y-98542857D01*
X36837857Y-98685714D01*
X36885476Y-98780952D01*
X36933095Y-98828571D01*
X37028333Y-98876190D01*
X37409285Y-98876190D01*
X36504523Y-98352380D02*
X35885476Y-98352380D01*
X36218809Y-98733333D01*
X36075952Y-98733333D01*
X35980714Y-98780952D01*
X35933095Y-98828571D01*
X35885476Y-98923809D01*
X35885476Y-99161904D01*
X35933095Y-99257142D01*
X35980714Y-99304761D01*
X36075952Y-99352380D01*
X36361666Y-99352380D01*
X36456904Y-99304761D01*
X36504523Y-99257142D01*
X35504523Y-98447619D02*
X35456904Y-98400000D01*
X35361666Y-98352380D01*
X35123571Y-98352380D01*
X35028333Y-98400000D01*
X34980714Y-98447619D01*
X34933095Y-98542857D01*
X34933095Y-98638095D01*
X34980714Y-98780952D01*
X35552142Y-99352380D01*
X34933095Y-99352380D01*
X339224857Y-80302380D02*
X339558190Y-79826190D01*
X339796285Y-80302380D02*
X339796285Y-79302380D01*
X339415333Y-79302380D01*
X339320095Y-79350000D01*
X339272476Y-79397619D01*
X339224857Y-79492857D01*
X339224857Y-79635714D01*
X339272476Y-79730952D01*
X339320095Y-79778571D01*
X339415333Y-79826190D01*
X339796285Y-79826190D01*
X338891523Y-79302380D02*
X338272476Y-79302380D01*
X338605809Y-79683333D01*
X338462952Y-79683333D01*
X338367714Y-79730952D01*
X338320095Y-79778571D01*
X338272476Y-79873809D01*
X338272476Y-80111904D01*
X338320095Y-80207142D01*
X338367714Y-80254761D01*
X338462952Y-80302380D01*
X338748666Y-80302380D01*
X338843904Y-80254761D01*
X338891523Y-80207142D01*
X337320095Y-80302380D02*
X337891523Y-80302380D01*
X337605809Y-80302380D02*
X337605809Y-79302380D01*
X337701047Y-79445238D01*
X337796285Y-79540476D01*
X337891523Y-79588095D01*
X320174857Y-80302380D02*
X320508190Y-79826190D01*
X320746285Y-80302380D02*
X320746285Y-79302380D01*
X320365333Y-79302380D01*
X320270095Y-79350000D01*
X320222476Y-79397619D01*
X320174857Y-79492857D01*
X320174857Y-79635714D01*
X320222476Y-79730952D01*
X320270095Y-79778571D01*
X320365333Y-79826190D01*
X320746285Y-79826190D01*
X319841523Y-79302380D02*
X319222476Y-79302380D01*
X319555809Y-79683333D01*
X319412952Y-79683333D01*
X319317714Y-79730952D01*
X319270095Y-79778571D01*
X319222476Y-79873809D01*
X319222476Y-80111904D01*
X319270095Y-80207142D01*
X319317714Y-80254761D01*
X319412952Y-80302380D01*
X319698666Y-80302380D01*
X319793904Y-80254761D01*
X319841523Y-80207142D01*
X318603428Y-79302380D02*
X318508190Y-79302380D01*
X318412952Y-79350000D01*
X318365333Y-79397619D01*
X318317714Y-79492857D01*
X318270095Y-79683333D01*
X318270095Y-79921428D01*
X318317714Y-80111904D01*
X318365333Y-80207142D01*
X318412952Y-80254761D01*
X318508190Y-80302380D01*
X318603428Y-80302380D01*
X318698666Y-80254761D01*
X318746285Y-80207142D01*
X318793904Y-80111904D01*
X318841523Y-79921428D01*
X318841523Y-79683333D01*
X318793904Y-79492857D01*
X318746285Y-79397619D01*
X318698666Y-79350000D01*
X318603428Y-79302380D01*
X291599857Y-80302380D02*
X291933190Y-79826190D01*
X292171285Y-80302380D02*
X292171285Y-79302380D01*
X291790333Y-79302380D01*
X291695095Y-79350000D01*
X291647476Y-79397619D01*
X291599857Y-79492857D01*
X291599857Y-79635714D01*
X291647476Y-79730952D01*
X291695095Y-79778571D01*
X291790333Y-79826190D01*
X292171285Y-79826190D01*
X291218904Y-79397619D02*
X291171285Y-79350000D01*
X291076047Y-79302380D01*
X290837952Y-79302380D01*
X290742714Y-79350000D01*
X290695095Y-79397619D01*
X290647476Y-79492857D01*
X290647476Y-79588095D01*
X290695095Y-79730952D01*
X291266523Y-80302380D01*
X290647476Y-80302380D01*
X290171285Y-80302380D02*
X289980809Y-80302380D01*
X289885571Y-80254761D01*
X289837952Y-80207142D01*
X289742714Y-80064285D01*
X289695095Y-79873809D01*
X289695095Y-79492857D01*
X289742714Y-79397619D01*
X289790333Y-79350000D01*
X289885571Y-79302380D01*
X290076047Y-79302380D01*
X290171285Y-79350000D01*
X290218904Y-79397619D01*
X290266523Y-79492857D01*
X290266523Y-79730952D01*
X290218904Y-79826190D01*
X290171285Y-79873809D01*
X290076047Y-79921428D01*
X289885571Y-79921428D01*
X289790333Y-79873809D01*
X289742714Y-79826190D01*
X289695095Y-79730952D01*
X267723857Y-80302380D02*
X268057190Y-79826190D01*
X268295285Y-80302380D02*
X268295285Y-79302380D01*
X267914333Y-79302380D01*
X267819095Y-79350000D01*
X267771476Y-79397619D01*
X267723857Y-79492857D01*
X267723857Y-79635714D01*
X267771476Y-79730952D01*
X267819095Y-79778571D01*
X267914333Y-79826190D01*
X268295285Y-79826190D01*
X267342904Y-79397619D02*
X267295285Y-79350000D01*
X267200047Y-79302380D01*
X266961952Y-79302380D01*
X266866714Y-79350000D01*
X266819095Y-79397619D01*
X266771476Y-79492857D01*
X266771476Y-79588095D01*
X266819095Y-79730952D01*
X267390523Y-80302380D01*
X266771476Y-80302380D01*
X266200047Y-79730952D02*
X266295285Y-79683333D01*
X266342904Y-79635714D01*
X266390523Y-79540476D01*
X266390523Y-79492857D01*
X266342904Y-79397619D01*
X266295285Y-79350000D01*
X266200047Y-79302380D01*
X266009571Y-79302380D01*
X265914333Y-79350000D01*
X265866714Y-79397619D01*
X265819095Y-79492857D01*
X265819095Y-79540476D01*
X265866714Y-79635714D01*
X265914333Y-79683333D01*
X266009571Y-79730952D01*
X266200047Y-79730952D01*
X266295285Y-79778571D01*
X266342904Y-79826190D01*
X266390523Y-79921428D01*
X266390523Y-80111904D01*
X266342904Y-80207142D01*
X266295285Y-80254761D01*
X266200047Y-80302380D01*
X266009571Y-80302380D01*
X265914333Y-80254761D01*
X265866714Y-80207142D01*
X265819095Y-80111904D01*
X265819095Y-79921428D01*
X265866714Y-79826190D01*
X265914333Y-79778571D01*
X266009571Y-79730952D01*
X248673857Y-80302380D02*
X249007190Y-79826190D01*
X249245285Y-80302380D02*
X249245285Y-79302380D01*
X248864333Y-79302380D01*
X248769095Y-79350000D01*
X248721476Y-79397619D01*
X248673857Y-79492857D01*
X248673857Y-79635714D01*
X248721476Y-79730952D01*
X248769095Y-79778571D01*
X248864333Y-79826190D01*
X249245285Y-79826190D01*
X248292904Y-79397619D02*
X248245285Y-79350000D01*
X248150047Y-79302380D01*
X247911952Y-79302380D01*
X247816714Y-79350000D01*
X247769095Y-79397619D01*
X247721476Y-79492857D01*
X247721476Y-79588095D01*
X247769095Y-79730952D01*
X248340523Y-80302380D01*
X247721476Y-80302380D01*
X247388142Y-79302380D02*
X246721476Y-79302380D01*
X247150047Y-80302380D01*
X229598357Y-80302380D02*
X229931690Y-79826190D01*
X230169785Y-80302380D02*
X230169785Y-79302380D01*
X229788833Y-79302380D01*
X229693595Y-79350000D01*
X229645976Y-79397619D01*
X229598357Y-79492857D01*
X229598357Y-79635714D01*
X229645976Y-79730952D01*
X229693595Y-79778571D01*
X229788833Y-79826190D01*
X230169785Y-79826190D01*
X229217404Y-79397619D02*
X229169785Y-79350000D01*
X229074547Y-79302380D01*
X228836452Y-79302380D01*
X228741214Y-79350000D01*
X228693595Y-79397619D01*
X228645976Y-79492857D01*
X228645976Y-79588095D01*
X228693595Y-79730952D01*
X229265023Y-80302380D01*
X228645976Y-80302380D01*
X227788833Y-79302380D02*
X227979309Y-79302380D01*
X228074547Y-79350000D01*
X228122166Y-79397619D01*
X228217404Y-79540476D01*
X228265023Y-79730952D01*
X228265023Y-80111904D01*
X228217404Y-80207142D01*
X228169785Y-80254761D01*
X228074547Y-80302380D01*
X227884071Y-80302380D01*
X227788833Y-80254761D01*
X227741214Y-80207142D01*
X227693595Y-80111904D01*
X227693595Y-79873809D01*
X227741214Y-79778571D01*
X227788833Y-79730952D01*
X227884071Y-79683333D01*
X228074547Y-79683333D01*
X228169785Y-79730952D01*
X228217404Y-79778571D01*
X228265023Y-79873809D01*
X210573857Y-80302380D02*
X210907190Y-79826190D01*
X211145285Y-80302380D02*
X211145285Y-79302380D01*
X210764333Y-79302380D01*
X210669095Y-79350000D01*
X210621476Y-79397619D01*
X210573857Y-79492857D01*
X210573857Y-79635714D01*
X210621476Y-79730952D01*
X210669095Y-79778571D01*
X210764333Y-79826190D01*
X211145285Y-79826190D01*
X210192904Y-79397619D02*
X210145285Y-79350000D01*
X210050047Y-79302380D01*
X209811952Y-79302380D01*
X209716714Y-79350000D01*
X209669095Y-79397619D01*
X209621476Y-79492857D01*
X209621476Y-79588095D01*
X209669095Y-79730952D01*
X210240523Y-80302380D01*
X209621476Y-80302380D01*
X208716714Y-79302380D02*
X209192904Y-79302380D01*
X209240523Y-79778571D01*
X209192904Y-79730952D01*
X209097666Y-79683333D01*
X208859571Y-79683333D01*
X208764333Y-79730952D01*
X208716714Y-79778571D01*
X208669095Y-79873809D01*
X208669095Y-80111904D01*
X208716714Y-80207142D01*
X208764333Y-80254761D01*
X208859571Y-80302380D01*
X209097666Y-80302380D01*
X209192904Y-80254761D01*
X209240523Y-80207142D01*
X191523857Y-80302380D02*
X191857190Y-79826190D01*
X192095285Y-80302380D02*
X192095285Y-79302380D01*
X191714333Y-79302380D01*
X191619095Y-79350000D01*
X191571476Y-79397619D01*
X191523857Y-79492857D01*
X191523857Y-79635714D01*
X191571476Y-79730952D01*
X191619095Y-79778571D01*
X191714333Y-79826190D01*
X192095285Y-79826190D01*
X191142904Y-79397619D02*
X191095285Y-79350000D01*
X191000047Y-79302380D01*
X190761952Y-79302380D01*
X190666714Y-79350000D01*
X190619095Y-79397619D01*
X190571476Y-79492857D01*
X190571476Y-79588095D01*
X190619095Y-79730952D01*
X191190523Y-80302380D01*
X190571476Y-80302380D01*
X189714333Y-79635714D02*
X189714333Y-80302380D01*
X189952428Y-79254761D02*
X190190523Y-79969047D01*
X189571476Y-79969047D01*
X172473857Y-80302380D02*
X172807190Y-79826190D01*
X173045285Y-80302380D02*
X173045285Y-79302380D01*
X172664333Y-79302380D01*
X172569095Y-79350000D01*
X172521476Y-79397619D01*
X172473857Y-79492857D01*
X172473857Y-79635714D01*
X172521476Y-79730952D01*
X172569095Y-79778571D01*
X172664333Y-79826190D01*
X173045285Y-79826190D01*
X172092904Y-79397619D02*
X172045285Y-79350000D01*
X171950047Y-79302380D01*
X171711952Y-79302380D01*
X171616714Y-79350000D01*
X171569095Y-79397619D01*
X171521476Y-79492857D01*
X171521476Y-79588095D01*
X171569095Y-79730952D01*
X172140523Y-80302380D01*
X171521476Y-80302380D01*
X171188142Y-79302380D02*
X170569095Y-79302380D01*
X170902428Y-79683333D01*
X170759571Y-79683333D01*
X170664333Y-79730952D01*
X170616714Y-79778571D01*
X170569095Y-79873809D01*
X170569095Y-80111904D01*
X170616714Y-80207142D01*
X170664333Y-80254761D01*
X170759571Y-80302380D01*
X171045285Y-80302380D01*
X171140523Y-80254761D01*
X171188142Y-80207142D01*
X153423857Y-80302380D02*
X153757190Y-79826190D01*
X153995285Y-80302380D02*
X153995285Y-79302380D01*
X153614333Y-79302380D01*
X153519095Y-79350000D01*
X153471476Y-79397619D01*
X153423857Y-79492857D01*
X153423857Y-79635714D01*
X153471476Y-79730952D01*
X153519095Y-79778571D01*
X153614333Y-79826190D01*
X153995285Y-79826190D01*
X153042904Y-79397619D02*
X152995285Y-79350000D01*
X152900047Y-79302380D01*
X152661952Y-79302380D01*
X152566714Y-79350000D01*
X152519095Y-79397619D01*
X152471476Y-79492857D01*
X152471476Y-79588095D01*
X152519095Y-79730952D01*
X153090523Y-80302380D01*
X152471476Y-80302380D01*
X152090523Y-79397619D02*
X152042904Y-79350000D01*
X151947666Y-79302380D01*
X151709571Y-79302380D01*
X151614333Y-79350000D01*
X151566714Y-79397619D01*
X151519095Y-79492857D01*
X151519095Y-79588095D01*
X151566714Y-79730952D01*
X152138142Y-80302380D01*
X151519095Y-80302380D01*
X134399357Y-80302380D02*
X134732690Y-79826190D01*
X134970785Y-80302380D02*
X134970785Y-79302380D01*
X134589833Y-79302380D01*
X134494595Y-79350000D01*
X134446976Y-79397619D01*
X134399357Y-79492857D01*
X134399357Y-79635714D01*
X134446976Y-79730952D01*
X134494595Y-79778571D01*
X134589833Y-79826190D01*
X134970785Y-79826190D01*
X134018404Y-79397619D02*
X133970785Y-79350000D01*
X133875547Y-79302380D01*
X133637452Y-79302380D01*
X133542214Y-79350000D01*
X133494595Y-79397619D01*
X133446976Y-79492857D01*
X133446976Y-79588095D01*
X133494595Y-79730952D01*
X134066023Y-80302380D01*
X133446976Y-80302380D01*
X132494595Y-80302380D02*
X133066023Y-80302380D01*
X132780309Y-80302380D02*
X132780309Y-79302380D01*
X132875547Y-79445238D01*
X132970785Y-79540476D01*
X133066023Y-79588095D01*
X115323857Y-80302380D02*
X115657190Y-79826190D01*
X115895285Y-80302380D02*
X115895285Y-79302380D01*
X115514333Y-79302380D01*
X115419095Y-79350000D01*
X115371476Y-79397619D01*
X115323857Y-79492857D01*
X115323857Y-79635714D01*
X115371476Y-79730952D01*
X115419095Y-79778571D01*
X115514333Y-79826190D01*
X115895285Y-79826190D01*
X114942904Y-79397619D02*
X114895285Y-79350000D01*
X114800047Y-79302380D01*
X114561952Y-79302380D01*
X114466714Y-79350000D01*
X114419095Y-79397619D01*
X114371476Y-79492857D01*
X114371476Y-79588095D01*
X114419095Y-79730952D01*
X114990523Y-80302380D01*
X114371476Y-80302380D01*
X113752428Y-79302380D02*
X113657190Y-79302380D01*
X113561952Y-79350000D01*
X113514333Y-79397619D01*
X113466714Y-79492857D01*
X113419095Y-79683333D01*
X113419095Y-79921428D01*
X113466714Y-80111904D01*
X113514333Y-80207142D01*
X113561952Y-80254761D01*
X113657190Y-80302380D01*
X113752428Y-80302380D01*
X113847666Y-80254761D01*
X113895285Y-80207142D01*
X113942904Y-80111904D01*
X113990523Y-79921428D01*
X113990523Y-79683333D01*
X113942904Y-79492857D01*
X113895285Y-79397619D01*
X113847666Y-79350000D01*
X113752428Y-79302380D01*
X96273857Y-80302380D02*
X96607190Y-79826190D01*
X96845285Y-80302380D02*
X96845285Y-79302380D01*
X96464333Y-79302380D01*
X96369095Y-79350000D01*
X96321476Y-79397619D01*
X96273857Y-79492857D01*
X96273857Y-79635714D01*
X96321476Y-79730952D01*
X96369095Y-79778571D01*
X96464333Y-79826190D01*
X96845285Y-79826190D01*
X95321476Y-80302380D02*
X95892904Y-80302380D01*
X95607190Y-80302380D02*
X95607190Y-79302380D01*
X95702428Y-79445238D01*
X95797666Y-79540476D01*
X95892904Y-79588095D01*
X94845285Y-80302380D02*
X94654809Y-80302380D01*
X94559571Y-80254761D01*
X94511952Y-80207142D01*
X94416714Y-80064285D01*
X94369095Y-79873809D01*
X94369095Y-79492857D01*
X94416714Y-79397619D01*
X94464333Y-79350000D01*
X94559571Y-79302380D01*
X94750047Y-79302380D01*
X94845285Y-79350000D01*
X94892904Y-79397619D01*
X94940523Y-79492857D01*
X94940523Y-79730952D01*
X94892904Y-79826190D01*
X94845285Y-79873809D01*
X94750047Y-79921428D01*
X94559571Y-79921428D01*
X94464333Y-79873809D01*
X94416714Y-79826190D01*
X94369095Y-79730952D01*
X77223857Y-80302380D02*
X77557190Y-79826190D01*
X77795285Y-80302380D02*
X77795285Y-79302380D01*
X77414333Y-79302380D01*
X77319095Y-79350000D01*
X77271476Y-79397619D01*
X77223857Y-79492857D01*
X77223857Y-79635714D01*
X77271476Y-79730952D01*
X77319095Y-79778571D01*
X77414333Y-79826190D01*
X77795285Y-79826190D01*
X76271476Y-80302380D02*
X76842904Y-80302380D01*
X76557190Y-80302380D02*
X76557190Y-79302380D01*
X76652428Y-79445238D01*
X76747666Y-79540476D01*
X76842904Y-79588095D01*
X75700047Y-79730952D02*
X75795285Y-79683333D01*
X75842904Y-79635714D01*
X75890523Y-79540476D01*
X75890523Y-79492857D01*
X75842904Y-79397619D01*
X75795285Y-79350000D01*
X75700047Y-79302380D01*
X75509571Y-79302380D01*
X75414333Y-79350000D01*
X75366714Y-79397619D01*
X75319095Y-79492857D01*
X75319095Y-79540476D01*
X75366714Y-79635714D01*
X75414333Y-79683333D01*
X75509571Y-79730952D01*
X75700047Y-79730952D01*
X75795285Y-79778571D01*
X75842904Y-79826190D01*
X75890523Y-79921428D01*
X75890523Y-80111904D01*
X75842904Y-80207142D01*
X75795285Y-80254761D01*
X75700047Y-80302380D01*
X75509571Y-80302380D01*
X75414333Y-80254761D01*
X75366714Y-80207142D01*
X75319095Y-80111904D01*
X75319095Y-79921428D01*
X75366714Y-79826190D01*
X75414333Y-79778571D01*
X75509571Y-79730952D01*
X58173857Y-80302380D02*
X58507190Y-79826190D01*
X58745285Y-80302380D02*
X58745285Y-79302380D01*
X58364333Y-79302380D01*
X58269095Y-79350000D01*
X58221476Y-79397619D01*
X58173857Y-79492857D01*
X58173857Y-79635714D01*
X58221476Y-79730952D01*
X58269095Y-79778571D01*
X58364333Y-79826190D01*
X58745285Y-79826190D01*
X57221476Y-80302380D02*
X57792904Y-80302380D01*
X57507190Y-80302380D02*
X57507190Y-79302380D01*
X57602428Y-79445238D01*
X57697666Y-79540476D01*
X57792904Y-79588095D01*
X56888142Y-79302380D02*
X56221476Y-79302380D01*
X56650047Y-80302380D01*
X34424857Y-80302380D02*
X34758190Y-79826190D01*
X34996285Y-80302380D02*
X34996285Y-79302380D01*
X34615333Y-79302380D01*
X34520095Y-79350000D01*
X34472476Y-79397619D01*
X34424857Y-79492857D01*
X34424857Y-79635714D01*
X34472476Y-79730952D01*
X34520095Y-79778571D01*
X34615333Y-79826190D01*
X34996285Y-79826190D01*
X33472476Y-80302380D02*
X34043904Y-80302380D01*
X33758190Y-80302380D02*
X33758190Y-79302380D01*
X33853428Y-79445238D01*
X33948666Y-79540476D01*
X34043904Y-79588095D01*
X32615333Y-79302380D02*
X32805809Y-79302380D01*
X32901047Y-79350000D01*
X32948666Y-79397619D01*
X33043904Y-79540476D01*
X33091523Y-79730952D01*
X33091523Y-80111904D01*
X33043904Y-80207142D01*
X32996285Y-80254761D01*
X32901047Y-80302380D01*
X32710571Y-80302380D01*
X32615333Y-80254761D01*
X32567714Y-80207142D01*
X32520095Y-80111904D01*
X32520095Y-79873809D01*
X32567714Y-79778571D01*
X32615333Y-79730952D01*
X32710571Y-79683333D01*
X32901047Y-79683333D01*
X32996285Y-79730952D01*
X33043904Y-79778571D01*
X33091523Y-79873809D01*
X339224857Y-61252380D02*
X339558190Y-60776190D01*
X339796285Y-61252380D02*
X339796285Y-60252380D01*
X339415333Y-60252380D01*
X339320095Y-60300000D01*
X339272476Y-60347619D01*
X339224857Y-60442857D01*
X339224857Y-60585714D01*
X339272476Y-60680952D01*
X339320095Y-60728571D01*
X339415333Y-60776190D01*
X339796285Y-60776190D01*
X338272476Y-61252380D02*
X338843904Y-61252380D01*
X338558190Y-61252380D02*
X338558190Y-60252380D01*
X338653428Y-60395238D01*
X338748666Y-60490476D01*
X338843904Y-60538095D01*
X337367714Y-60252380D02*
X337843904Y-60252380D01*
X337891523Y-60728571D01*
X337843904Y-60680952D01*
X337748666Y-60633333D01*
X337510571Y-60633333D01*
X337415333Y-60680952D01*
X337367714Y-60728571D01*
X337320095Y-60823809D01*
X337320095Y-61061904D01*
X337367714Y-61157142D01*
X337415333Y-61204761D01*
X337510571Y-61252380D01*
X337748666Y-61252380D01*
X337843904Y-61204761D01*
X337891523Y-61157142D01*
X320174857Y-61252380D02*
X320508190Y-60776190D01*
X320746285Y-61252380D02*
X320746285Y-60252380D01*
X320365333Y-60252380D01*
X320270095Y-60300000D01*
X320222476Y-60347619D01*
X320174857Y-60442857D01*
X320174857Y-60585714D01*
X320222476Y-60680952D01*
X320270095Y-60728571D01*
X320365333Y-60776190D01*
X320746285Y-60776190D01*
X319222476Y-61252380D02*
X319793904Y-61252380D01*
X319508190Y-61252380D02*
X319508190Y-60252380D01*
X319603428Y-60395238D01*
X319698666Y-60490476D01*
X319793904Y-60538095D01*
X318365333Y-60585714D02*
X318365333Y-61252380D01*
X318603428Y-60204761D02*
X318841523Y-60919047D01*
X318222476Y-60919047D01*
X286773857Y-61252380D02*
X287107190Y-60776190D01*
X287345285Y-61252380D02*
X287345285Y-60252380D01*
X286964333Y-60252380D01*
X286869095Y-60300000D01*
X286821476Y-60347619D01*
X286773857Y-60442857D01*
X286773857Y-60585714D01*
X286821476Y-60680952D01*
X286869095Y-60728571D01*
X286964333Y-60776190D01*
X287345285Y-60776190D01*
X285821476Y-61252380D02*
X286392904Y-61252380D01*
X286107190Y-61252380D02*
X286107190Y-60252380D01*
X286202428Y-60395238D01*
X286297666Y-60490476D01*
X286392904Y-60538095D01*
X285488142Y-60252380D02*
X284869095Y-60252380D01*
X285202428Y-60633333D01*
X285059571Y-60633333D01*
X284964333Y-60680952D01*
X284916714Y-60728571D01*
X284869095Y-60823809D01*
X284869095Y-61061904D01*
X284916714Y-61157142D01*
X284964333Y-61204761D01*
X285059571Y-61252380D01*
X285345285Y-61252380D01*
X285440523Y-61204761D01*
X285488142Y-61157142D01*
X258198857Y-61252380D02*
X258532190Y-60776190D01*
X258770285Y-61252380D02*
X258770285Y-60252380D01*
X258389333Y-60252380D01*
X258294095Y-60300000D01*
X258246476Y-60347619D01*
X258198857Y-60442857D01*
X258198857Y-60585714D01*
X258246476Y-60680952D01*
X258294095Y-60728571D01*
X258389333Y-60776190D01*
X258770285Y-60776190D01*
X257246476Y-61252380D02*
X257817904Y-61252380D01*
X257532190Y-61252380D02*
X257532190Y-60252380D01*
X257627428Y-60395238D01*
X257722666Y-60490476D01*
X257817904Y-60538095D01*
X256865523Y-60347619D02*
X256817904Y-60300000D01*
X256722666Y-60252380D01*
X256484571Y-60252380D01*
X256389333Y-60300000D01*
X256341714Y-60347619D01*
X256294095Y-60442857D01*
X256294095Y-60538095D01*
X256341714Y-60680952D01*
X256913142Y-61252380D01*
X256294095Y-61252380D01*
X239148857Y-61252380D02*
X239482190Y-60776190D01*
X239720285Y-61252380D02*
X239720285Y-60252380D01*
X239339333Y-60252380D01*
X239244095Y-60300000D01*
X239196476Y-60347619D01*
X239148857Y-60442857D01*
X239148857Y-60585714D01*
X239196476Y-60680952D01*
X239244095Y-60728571D01*
X239339333Y-60776190D01*
X239720285Y-60776190D01*
X238196476Y-61252380D02*
X238767904Y-61252380D01*
X238482190Y-61252380D02*
X238482190Y-60252380D01*
X238577428Y-60395238D01*
X238672666Y-60490476D01*
X238767904Y-60538095D01*
X237244095Y-61252380D02*
X237815523Y-61252380D01*
X237529809Y-61252380D02*
X237529809Y-60252380D01*
X237625047Y-60395238D01*
X237720285Y-60490476D01*
X237815523Y-60538095D01*
X220098857Y-61252380D02*
X220432190Y-60776190D01*
X220670285Y-61252380D02*
X220670285Y-60252380D01*
X220289333Y-60252380D01*
X220194095Y-60300000D01*
X220146476Y-60347619D01*
X220098857Y-60442857D01*
X220098857Y-60585714D01*
X220146476Y-60680952D01*
X220194095Y-60728571D01*
X220289333Y-60776190D01*
X220670285Y-60776190D01*
X219146476Y-61252380D02*
X219717904Y-61252380D01*
X219432190Y-61252380D02*
X219432190Y-60252380D01*
X219527428Y-60395238D01*
X219622666Y-60490476D01*
X219717904Y-60538095D01*
X218527428Y-60252380D02*
X218432190Y-60252380D01*
X218336952Y-60300000D01*
X218289333Y-60347619D01*
X218241714Y-60442857D01*
X218194095Y-60633333D01*
X218194095Y-60871428D01*
X218241714Y-61061904D01*
X218289333Y-61157142D01*
X218336952Y-61204761D01*
X218432190Y-61252380D01*
X218527428Y-61252380D01*
X218622666Y-61204761D01*
X218670285Y-61157142D01*
X218717904Y-61061904D01*
X218765523Y-60871428D01*
X218765523Y-60633333D01*
X218717904Y-60442857D01*
X218670285Y-60347619D01*
X218622666Y-60300000D01*
X218527428Y-60252380D01*
X200572666Y-61252380D02*
X200906000Y-60776190D01*
X201144095Y-61252380D02*
X201144095Y-60252380D01*
X200763142Y-60252380D01*
X200667904Y-60300000D01*
X200620285Y-60347619D01*
X200572666Y-60442857D01*
X200572666Y-60585714D01*
X200620285Y-60680952D01*
X200667904Y-60728571D01*
X200763142Y-60776190D01*
X201144095Y-60776190D01*
X200096476Y-61252380D02*
X199906000Y-61252380D01*
X199810761Y-61204761D01*
X199763142Y-61157142D01*
X199667904Y-61014285D01*
X199620285Y-60823809D01*
X199620285Y-60442857D01*
X199667904Y-60347619D01*
X199715523Y-60300000D01*
X199810761Y-60252380D01*
X200001238Y-60252380D01*
X200096476Y-60300000D01*
X200144095Y-60347619D01*
X200191714Y-60442857D01*
X200191714Y-60680952D01*
X200144095Y-60776190D01*
X200096476Y-60823809D01*
X200001238Y-60871428D01*
X199810761Y-60871428D01*
X199715523Y-60823809D01*
X199667904Y-60776190D01*
X199620285Y-60680952D01*
X181522666Y-61252380D02*
X181856000Y-60776190D01*
X182094095Y-61252380D02*
X182094095Y-60252380D01*
X181713142Y-60252380D01*
X181617904Y-60300000D01*
X181570285Y-60347619D01*
X181522666Y-60442857D01*
X181522666Y-60585714D01*
X181570285Y-60680952D01*
X181617904Y-60728571D01*
X181713142Y-60776190D01*
X182094095Y-60776190D01*
X180951238Y-60680952D02*
X181046476Y-60633333D01*
X181094095Y-60585714D01*
X181141714Y-60490476D01*
X181141714Y-60442857D01*
X181094095Y-60347619D01*
X181046476Y-60300000D01*
X180951238Y-60252380D01*
X180760761Y-60252380D01*
X180665523Y-60300000D01*
X180617904Y-60347619D01*
X180570285Y-60442857D01*
X180570285Y-60490476D01*
X180617904Y-60585714D01*
X180665523Y-60633333D01*
X180760761Y-60680952D01*
X180951238Y-60680952D01*
X181046476Y-60728571D01*
X181094095Y-60776190D01*
X181141714Y-60871428D01*
X181141714Y-61061904D01*
X181094095Y-61157142D01*
X181046476Y-61204761D01*
X180951238Y-61252380D01*
X180760761Y-61252380D01*
X180665523Y-61204761D01*
X180617904Y-61157142D01*
X180570285Y-61061904D01*
X180570285Y-60871428D01*
X180617904Y-60776190D01*
X180665523Y-60728571D01*
X180760761Y-60680952D01*
X162472666Y-61252380D02*
X162806000Y-60776190D01*
X163044095Y-61252380D02*
X163044095Y-60252380D01*
X162663142Y-60252380D01*
X162567904Y-60300000D01*
X162520285Y-60347619D01*
X162472666Y-60442857D01*
X162472666Y-60585714D01*
X162520285Y-60680952D01*
X162567904Y-60728571D01*
X162663142Y-60776190D01*
X163044095Y-60776190D01*
X162139333Y-60252380D02*
X161472666Y-60252380D01*
X161901238Y-61252380D01*
X143422666Y-61252380D02*
X143756000Y-60776190D01*
X143994095Y-61252380D02*
X143994095Y-60252380D01*
X143613142Y-60252380D01*
X143517904Y-60300000D01*
X143470285Y-60347619D01*
X143422666Y-60442857D01*
X143422666Y-60585714D01*
X143470285Y-60680952D01*
X143517904Y-60728571D01*
X143613142Y-60776190D01*
X143994095Y-60776190D01*
X142565523Y-60252380D02*
X142756000Y-60252380D01*
X142851238Y-60300000D01*
X142898857Y-60347619D01*
X142994095Y-60490476D01*
X143041714Y-60680952D01*
X143041714Y-61061904D01*
X142994095Y-61157142D01*
X142946476Y-61204761D01*
X142851238Y-61252380D01*
X142660761Y-61252380D01*
X142565523Y-61204761D01*
X142517904Y-61157142D01*
X142470285Y-61061904D01*
X142470285Y-60823809D01*
X142517904Y-60728571D01*
X142565523Y-60680952D01*
X142660761Y-60633333D01*
X142851238Y-60633333D01*
X142946476Y-60680952D01*
X142994095Y-60728571D01*
X143041714Y-60823809D01*
X124372666Y-61252380D02*
X124706000Y-60776190D01*
X124944095Y-61252380D02*
X124944095Y-60252380D01*
X124563142Y-60252380D01*
X124467904Y-60300000D01*
X124420285Y-60347619D01*
X124372666Y-60442857D01*
X124372666Y-60585714D01*
X124420285Y-60680952D01*
X124467904Y-60728571D01*
X124563142Y-60776190D01*
X124944095Y-60776190D01*
X123467904Y-60252380D02*
X123944095Y-60252380D01*
X123991714Y-60728571D01*
X123944095Y-60680952D01*
X123848857Y-60633333D01*
X123610761Y-60633333D01*
X123515523Y-60680952D01*
X123467904Y-60728571D01*
X123420285Y-60823809D01*
X123420285Y-61061904D01*
X123467904Y-61157142D01*
X123515523Y-61204761D01*
X123610761Y-61252380D01*
X123848857Y-61252380D01*
X123944095Y-61204761D01*
X123991714Y-61157142D01*
X105322666Y-61252380D02*
X105656000Y-60776190D01*
X105894095Y-61252380D02*
X105894095Y-60252380D01*
X105513142Y-60252380D01*
X105417904Y-60300000D01*
X105370285Y-60347619D01*
X105322666Y-60442857D01*
X105322666Y-60585714D01*
X105370285Y-60680952D01*
X105417904Y-60728571D01*
X105513142Y-60776190D01*
X105894095Y-60776190D01*
X104465523Y-60585714D02*
X104465523Y-61252380D01*
X104703619Y-60204761D02*
X104941714Y-60919047D01*
X104322666Y-60919047D01*
X86272666Y-61252380D02*
X86606000Y-60776190D01*
X86844095Y-61252380D02*
X86844095Y-60252380D01*
X86463142Y-60252380D01*
X86367904Y-60300000D01*
X86320285Y-60347619D01*
X86272666Y-60442857D01*
X86272666Y-60585714D01*
X86320285Y-60680952D01*
X86367904Y-60728571D01*
X86463142Y-60776190D01*
X86844095Y-60776190D01*
X85939333Y-60252380D02*
X85320285Y-60252380D01*
X85653619Y-60633333D01*
X85510761Y-60633333D01*
X85415523Y-60680952D01*
X85367904Y-60728571D01*
X85320285Y-60823809D01*
X85320285Y-61061904D01*
X85367904Y-61157142D01*
X85415523Y-61204761D01*
X85510761Y-61252380D01*
X85796476Y-61252380D01*
X85891714Y-61204761D01*
X85939333Y-61157142D01*
X67222666Y-61252380D02*
X67556000Y-60776190D01*
X67794095Y-61252380D02*
X67794095Y-60252380D01*
X67413142Y-60252380D01*
X67317904Y-60300000D01*
X67270285Y-60347619D01*
X67222666Y-60442857D01*
X67222666Y-60585714D01*
X67270285Y-60680952D01*
X67317904Y-60728571D01*
X67413142Y-60776190D01*
X67794095Y-60776190D01*
X66841714Y-60347619D02*
X66794095Y-60300000D01*
X66698857Y-60252380D01*
X66460761Y-60252380D01*
X66365523Y-60300000D01*
X66317904Y-60347619D01*
X66270285Y-60442857D01*
X66270285Y-60538095D01*
X66317904Y-60680952D01*
X66889333Y-61252380D01*
X66270285Y-61252380D01*
X48172666Y-61252380D02*
X48506000Y-60776190D01*
X48744095Y-61252380D02*
X48744095Y-60252380D01*
X48363142Y-60252380D01*
X48267904Y-60300000D01*
X48220285Y-60347619D01*
X48172666Y-60442857D01*
X48172666Y-60585714D01*
X48220285Y-60680952D01*
X48267904Y-60728571D01*
X48363142Y-60776190D01*
X48744095Y-60776190D01*
X47220285Y-61252380D02*
X47791714Y-61252380D01*
X47506000Y-61252380D02*
X47506000Y-60252380D01*
X47601238Y-60395238D01*
X47696476Y-60490476D01*
X47791714Y-60538095D01*
X29122666Y-61252380D02*
X29456000Y-60776190D01*
X29694095Y-61252380D02*
X29694095Y-60252380D01*
X29313142Y-60252380D01*
X29217904Y-60300000D01*
X29170285Y-60347619D01*
X29122666Y-60442857D01*
X29122666Y-60585714D01*
X29170285Y-60680952D01*
X29217904Y-60728571D01*
X29313142Y-60776190D01*
X29694095Y-60776190D01*
X28503619Y-60252380D02*
X28408380Y-60252380D01*
X28313142Y-60300000D01*
X28265523Y-60347619D01*
X28217904Y-60442857D01*
X28170285Y-60633333D01*
X28170285Y-60871428D01*
X28217904Y-61061904D01*
X28265523Y-61157142D01*
X28313142Y-61204761D01*
X28408380Y-61252380D01*
X28503619Y-61252380D01*
X28598857Y-61204761D01*
X28646476Y-61157142D01*
X28694095Y-61061904D01*
X28741714Y-60871428D01*
X28741714Y-60633333D01*
X28694095Y-60442857D01*
X28646476Y-60347619D01*
X28598857Y-60300000D01*
X28503619Y-60252380D01*
X345876380Y-90082619D02*
X345971619Y-90035000D01*
X346066857Y-89939761D01*
X346209714Y-89796904D01*
X346304952Y-89749285D01*
X346400190Y-89749285D01*
X346352571Y-89987380D02*
X346447809Y-89939761D01*
X346543047Y-89844523D01*
X346590666Y-89654047D01*
X346590666Y-89320714D01*
X346543047Y-89130238D01*
X346447809Y-89035000D01*
X346352571Y-88987380D01*
X346162095Y-88987380D01*
X346066857Y-89035000D01*
X345971619Y-89130238D01*
X345924000Y-89320714D01*
X345924000Y-89654047D01*
X345971619Y-89844523D01*
X346066857Y-89939761D01*
X346162095Y-89987380D01*
X346352571Y-89987380D01*
X345019238Y-89987380D02*
X345495428Y-89987380D01*
X345495428Y-88987380D01*
X344685904Y-89463571D02*
X344352571Y-89463571D01*
X344209714Y-89987380D02*
X344685904Y-89987380D01*
X344685904Y-88987380D01*
X344209714Y-88987380D01*
X343781142Y-89987380D02*
X343781142Y-88987380D01*
X343543047Y-88987380D01*
X343400190Y-89035000D01*
X343304952Y-89130238D01*
X343257333Y-89225476D01*
X343209714Y-89415952D01*
X343209714Y-89558809D01*
X343257333Y-89749285D01*
X343304952Y-89844523D01*
X343400190Y-89939761D01*
X343543047Y-89987380D01*
X343781142Y-89987380D01*
X342257333Y-89987380D02*
X342828761Y-89987380D01*
X342543047Y-89987380D02*
X342543047Y-88987380D01*
X342638285Y-89130238D01*
X342733523Y-89225476D01*
X342828761Y-89273095D01*
X343606238Y-130572380D02*
X343606238Y-129572380D01*
X343368142Y-129572380D01*
X343225285Y-129620000D01*
X343130047Y-129715238D01*
X343082428Y-129810476D01*
X343034809Y-130000952D01*
X343034809Y-130143809D01*
X343082428Y-130334285D01*
X343130047Y-130429523D01*
X343225285Y-130524761D01*
X343368142Y-130572380D01*
X343606238Y-130572380D01*
X342844333Y-130667619D02*
X342082428Y-130667619D01*
X341415761Y-129572380D02*
X341606238Y-129572380D01*
X341701476Y-129620000D01*
X341749095Y-129667619D01*
X341844333Y-129810476D01*
X341891952Y-130000952D01*
X341891952Y-130381904D01*
X341844333Y-130477142D01*
X341796714Y-130524761D01*
X341701476Y-130572380D01*
X341511000Y-130572380D01*
X341415761Y-130524761D01*
X341368142Y-130477142D01*
X341320523Y-130381904D01*
X341320523Y-130143809D01*
X341368142Y-130048571D01*
X341415761Y-130000952D01*
X341511000Y-129953333D01*
X341701476Y-129953333D01*
X341796714Y-130000952D01*
X341844333Y-130048571D01*
X341891952Y-130143809D01*
X340987190Y-129572380D02*
X340320523Y-129572380D01*
X340749095Y-130572380D01*
X324556238Y-130572380D02*
X324556238Y-129572380D01*
X324318142Y-129572380D01*
X324175285Y-129620000D01*
X324080047Y-129715238D01*
X324032428Y-129810476D01*
X323984809Y-130000952D01*
X323984809Y-130143809D01*
X324032428Y-130334285D01*
X324080047Y-130429523D01*
X324175285Y-130524761D01*
X324318142Y-130572380D01*
X324556238Y-130572380D01*
X323794333Y-130667619D02*
X323032428Y-130667619D01*
X322365761Y-129572380D02*
X322556238Y-129572380D01*
X322651476Y-129620000D01*
X322699095Y-129667619D01*
X322794333Y-129810476D01*
X322841952Y-130000952D01*
X322841952Y-130381904D01*
X322794333Y-130477142D01*
X322746714Y-130524761D01*
X322651476Y-130572380D01*
X322461000Y-130572380D01*
X322365761Y-130524761D01*
X322318142Y-130477142D01*
X322270523Y-130381904D01*
X322270523Y-130143809D01*
X322318142Y-130048571D01*
X322365761Y-130000952D01*
X322461000Y-129953333D01*
X322651476Y-129953333D01*
X322746714Y-130000952D01*
X322794333Y-130048571D01*
X322841952Y-130143809D01*
X321413380Y-129572380D02*
X321603857Y-129572380D01*
X321699095Y-129620000D01*
X321746714Y-129667619D01*
X321841952Y-129810476D01*
X321889571Y-130000952D01*
X321889571Y-130381904D01*
X321841952Y-130477142D01*
X321794333Y-130524761D01*
X321699095Y-130572380D01*
X321508619Y-130572380D01*
X321413380Y-130524761D01*
X321365761Y-130477142D01*
X321318142Y-130381904D01*
X321318142Y-130143809D01*
X321365761Y-130048571D01*
X321413380Y-130000952D01*
X321508619Y-129953333D01*
X321699095Y-129953333D01*
X321794333Y-130000952D01*
X321841952Y-130048571D01*
X321889571Y-130143809D01*
X305506238Y-130572380D02*
X305506238Y-129572380D01*
X305268142Y-129572380D01*
X305125285Y-129620000D01*
X305030047Y-129715238D01*
X304982428Y-129810476D01*
X304934809Y-130000952D01*
X304934809Y-130143809D01*
X304982428Y-130334285D01*
X305030047Y-130429523D01*
X305125285Y-130524761D01*
X305268142Y-130572380D01*
X305506238Y-130572380D01*
X304744333Y-130667619D02*
X303982428Y-130667619D01*
X303315761Y-129572380D02*
X303506238Y-129572380D01*
X303601476Y-129620000D01*
X303649095Y-129667619D01*
X303744333Y-129810476D01*
X303791952Y-130000952D01*
X303791952Y-130381904D01*
X303744333Y-130477142D01*
X303696714Y-130524761D01*
X303601476Y-130572380D01*
X303411000Y-130572380D01*
X303315761Y-130524761D01*
X303268142Y-130477142D01*
X303220523Y-130381904D01*
X303220523Y-130143809D01*
X303268142Y-130048571D01*
X303315761Y-130000952D01*
X303411000Y-129953333D01*
X303601476Y-129953333D01*
X303696714Y-130000952D01*
X303744333Y-130048571D01*
X303791952Y-130143809D01*
X302315761Y-129572380D02*
X302791952Y-129572380D01*
X302839571Y-130048571D01*
X302791952Y-130000952D01*
X302696714Y-129953333D01*
X302458619Y-129953333D01*
X302363380Y-130000952D01*
X302315761Y-130048571D01*
X302268142Y-130143809D01*
X302268142Y-130381904D01*
X302315761Y-130477142D01*
X302363380Y-130524761D01*
X302458619Y-130572380D01*
X302696714Y-130572380D01*
X302791952Y-130524761D01*
X302839571Y-130477142D01*
X274518238Y-130572380D02*
X274518238Y-129572380D01*
X274280142Y-129572380D01*
X274137285Y-129620000D01*
X274042047Y-129715238D01*
X273994428Y-129810476D01*
X273946809Y-130000952D01*
X273946809Y-130143809D01*
X273994428Y-130334285D01*
X274042047Y-130429523D01*
X274137285Y-130524761D01*
X274280142Y-130572380D01*
X274518238Y-130572380D01*
X273756333Y-130667619D02*
X272994428Y-130667619D01*
X272327761Y-129572380D02*
X272518238Y-129572380D01*
X272613476Y-129620000D01*
X272661095Y-129667619D01*
X272756333Y-129810476D01*
X272803952Y-130000952D01*
X272803952Y-130381904D01*
X272756333Y-130477142D01*
X272708714Y-130524761D01*
X272613476Y-130572380D01*
X272423000Y-130572380D01*
X272327761Y-130524761D01*
X272280142Y-130477142D01*
X272232523Y-130381904D01*
X272232523Y-130143809D01*
X272280142Y-130048571D01*
X272327761Y-130000952D01*
X272423000Y-129953333D01*
X272613476Y-129953333D01*
X272708714Y-130000952D01*
X272756333Y-130048571D01*
X272803952Y-130143809D01*
X271375380Y-129905714D02*
X271375380Y-130572380D01*
X271613476Y-129524761D02*
X271851571Y-130239047D01*
X271232523Y-130239047D01*
X250769238Y-130572380D02*
X250769238Y-129572380D01*
X250531142Y-129572380D01*
X250388285Y-129620000D01*
X250293047Y-129715238D01*
X250245428Y-129810476D01*
X250197809Y-130000952D01*
X250197809Y-130143809D01*
X250245428Y-130334285D01*
X250293047Y-130429523D01*
X250388285Y-130524761D01*
X250531142Y-130572380D01*
X250769238Y-130572380D01*
X250007333Y-130667619D02*
X249245428Y-130667619D01*
X248578761Y-129572380D02*
X248769238Y-129572380D01*
X248864476Y-129620000D01*
X248912095Y-129667619D01*
X249007333Y-129810476D01*
X249054952Y-130000952D01*
X249054952Y-130381904D01*
X249007333Y-130477142D01*
X248959714Y-130524761D01*
X248864476Y-130572380D01*
X248674000Y-130572380D01*
X248578761Y-130524761D01*
X248531142Y-130477142D01*
X248483523Y-130381904D01*
X248483523Y-130143809D01*
X248531142Y-130048571D01*
X248578761Y-130000952D01*
X248674000Y-129953333D01*
X248864476Y-129953333D01*
X248959714Y-130000952D01*
X249007333Y-130048571D01*
X249054952Y-130143809D01*
X248150190Y-129572380D02*
X247531142Y-129572380D01*
X247864476Y-129953333D01*
X247721619Y-129953333D01*
X247626380Y-130000952D01*
X247578761Y-130048571D01*
X247531142Y-130143809D01*
X247531142Y-130381904D01*
X247578761Y-130477142D01*
X247626380Y-130524761D01*
X247721619Y-130572380D01*
X248007333Y-130572380D01*
X248102571Y-130524761D01*
X248150190Y-130477142D01*
X226893238Y-130572380D02*
X226893238Y-129572380D01*
X226655142Y-129572380D01*
X226512285Y-129620000D01*
X226417047Y-129715238D01*
X226369428Y-129810476D01*
X226321809Y-130000952D01*
X226321809Y-130143809D01*
X226369428Y-130334285D01*
X226417047Y-130429523D01*
X226512285Y-130524761D01*
X226655142Y-130572380D01*
X226893238Y-130572380D01*
X226131333Y-130667619D02*
X225369428Y-130667619D01*
X224702761Y-129572380D02*
X224893238Y-129572380D01*
X224988476Y-129620000D01*
X225036095Y-129667619D01*
X225131333Y-129810476D01*
X225178952Y-130000952D01*
X225178952Y-130381904D01*
X225131333Y-130477142D01*
X225083714Y-130524761D01*
X224988476Y-130572380D01*
X224798000Y-130572380D01*
X224702761Y-130524761D01*
X224655142Y-130477142D01*
X224607523Y-130381904D01*
X224607523Y-130143809D01*
X224655142Y-130048571D01*
X224702761Y-130000952D01*
X224798000Y-129953333D01*
X224988476Y-129953333D01*
X225083714Y-130000952D01*
X225131333Y-130048571D01*
X225178952Y-130143809D01*
X224226571Y-129667619D02*
X224178952Y-129620000D01*
X224083714Y-129572380D01*
X223845619Y-129572380D01*
X223750380Y-129620000D01*
X223702761Y-129667619D01*
X223655142Y-129762857D01*
X223655142Y-129858095D01*
X223702761Y-130000952D01*
X224274190Y-130572380D01*
X223655142Y-130572380D01*
X155519238Y-130572380D02*
X155519238Y-129572380D01*
X155281142Y-129572380D01*
X155138285Y-129620000D01*
X155043047Y-129715238D01*
X154995428Y-129810476D01*
X154947809Y-130000952D01*
X154947809Y-130143809D01*
X154995428Y-130334285D01*
X155043047Y-130429523D01*
X155138285Y-130524761D01*
X155281142Y-130572380D01*
X155519238Y-130572380D01*
X154757333Y-130667619D02*
X153995428Y-130667619D01*
X153328761Y-129572380D02*
X153519238Y-129572380D01*
X153614476Y-129620000D01*
X153662095Y-129667619D01*
X153757333Y-129810476D01*
X153804952Y-130000952D01*
X153804952Y-130381904D01*
X153757333Y-130477142D01*
X153709714Y-130524761D01*
X153614476Y-130572380D01*
X153424000Y-130572380D01*
X153328761Y-130524761D01*
X153281142Y-130477142D01*
X153233523Y-130381904D01*
X153233523Y-130143809D01*
X153281142Y-130048571D01*
X153328761Y-130000952D01*
X153424000Y-129953333D01*
X153614476Y-129953333D01*
X153709714Y-130000952D01*
X153757333Y-130048571D01*
X153804952Y-130143809D01*
X152281142Y-130572380D02*
X152852571Y-130572380D01*
X152566857Y-130572380D02*
X152566857Y-129572380D01*
X152662095Y-129715238D01*
X152757333Y-129810476D01*
X152852571Y-129858095D01*
X84145238Y-130572380D02*
X84145238Y-129572380D01*
X83907142Y-129572380D01*
X83764285Y-129620000D01*
X83669047Y-129715238D01*
X83621428Y-129810476D01*
X83573809Y-130000952D01*
X83573809Y-130143809D01*
X83621428Y-130334285D01*
X83669047Y-130429523D01*
X83764285Y-130524761D01*
X83907142Y-130572380D01*
X84145238Y-130572380D01*
X83383333Y-130667619D02*
X82621428Y-130667619D01*
X81954761Y-129572380D02*
X82145238Y-129572380D01*
X82240476Y-129620000D01*
X82288095Y-129667619D01*
X82383333Y-129810476D01*
X82430952Y-130000952D01*
X82430952Y-130381904D01*
X82383333Y-130477142D01*
X82335714Y-130524761D01*
X82240476Y-130572380D01*
X82050000Y-130572380D01*
X81954761Y-130524761D01*
X81907142Y-130477142D01*
X81859523Y-130381904D01*
X81859523Y-130143809D01*
X81907142Y-130048571D01*
X81954761Y-130000952D01*
X82050000Y-129953333D01*
X82240476Y-129953333D01*
X82335714Y-130000952D01*
X82383333Y-130048571D01*
X82430952Y-130143809D01*
X81240476Y-129572380D02*
X81145238Y-129572380D01*
X81050000Y-129620000D01*
X81002380Y-129667619D01*
X80954761Y-129762857D01*
X80907142Y-129953333D01*
X80907142Y-130191428D01*
X80954761Y-130381904D01*
X81002380Y-130477142D01*
X81050000Y-130524761D01*
X81145238Y-130572380D01*
X81240476Y-130572380D01*
X81335714Y-130524761D01*
X81383333Y-130477142D01*
X81430952Y-130381904D01*
X81478571Y-130191428D01*
X81478571Y-129953333D01*
X81430952Y-129762857D01*
X81383333Y-129667619D01*
X81335714Y-129620000D01*
X81240476Y-129572380D01*
X60269238Y-130572380D02*
X60269238Y-129572380D01*
X60031142Y-129572380D01*
X59888285Y-129620000D01*
X59793047Y-129715238D01*
X59745428Y-129810476D01*
X59697809Y-130000952D01*
X59697809Y-130143809D01*
X59745428Y-130334285D01*
X59793047Y-130429523D01*
X59888285Y-130524761D01*
X60031142Y-130572380D01*
X60269238Y-130572380D01*
X59507333Y-130667619D02*
X58745428Y-130667619D01*
X58031142Y-129572380D02*
X58507333Y-129572380D01*
X58554952Y-130048571D01*
X58507333Y-130000952D01*
X58412095Y-129953333D01*
X58174000Y-129953333D01*
X58078761Y-130000952D01*
X58031142Y-130048571D01*
X57983523Y-130143809D01*
X57983523Y-130381904D01*
X58031142Y-130477142D01*
X58078761Y-130524761D01*
X58174000Y-130572380D01*
X58412095Y-130572380D01*
X58507333Y-130524761D01*
X58554952Y-130477142D01*
X57507333Y-130572380D02*
X57316857Y-130572380D01*
X57221619Y-130524761D01*
X57174000Y-130477142D01*
X57078761Y-130334285D01*
X57031142Y-130143809D01*
X57031142Y-129762857D01*
X57078761Y-129667619D01*
X57126380Y-129620000D01*
X57221619Y-129572380D01*
X57412095Y-129572380D01*
X57507333Y-129620000D01*
X57554952Y-129667619D01*
X57602571Y-129762857D01*
X57602571Y-130000952D01*
X57554952Y-130096190D01*
X57507333Y-130143809D01*
X57412095Y-130191428D01*
X57221619Y-130191428D01*
X57126380Y-130143809D01*
X57078761Y-130096190D01*
X57031142Y-130000952D01*
X36520238Y-130572380D02*
X36520238Y-129572380D01*
X36282142Y-129572380D01*
X36139285Y-129620000D01*
X36044047Y-129715238D01*
X35996428Y-129810476D01*
X35948809Y-130000952D01*
X35948809Y-130143809D01*
X35996428Y-130334285D01*
X36044047Y-130429523D01*
X36139285Y-130524761D01*
X36282142Y-130572380D01*
X36520238Y-130572380D01*
X35758333Y-130667619D02*
X34996428Y-130667619D01*
X34282142Y-129572380D02*
X34758333Y-129572380D01*
X34805952Y-130048571D01*
X34758333Y-130000952D01*
X34663095Y-129953333D01*
X34425000Y-129953333D01*
X34329761Y-130000952D01*
X34282142Y-130048571D01*
X34234523Y-130143809D01*
X34234523Y-130381904D01*
X34282142Y-130477142D01*
X34329761Y-130524761D01*
X34425000Y-130572380D01*
X34663095Y-130572380D01*
X34758333Y-130524761D01*
X34805952Y-130477142D01*
X33663095Y-130000952D02*
X33758333Y-129953333D01*
X33805952Y-129905714D01*
X33853571Y-129810476D01*
X33853571Y-129762857D01*
X33805952Y-129667619D01*
X33758333Y-129620000D01*
X33663095Y-129572380D01*
X33472619Y-129572380D01*
X33377380Y-129620000D01*
X33329761Y-129667619D01*
X33282142Y-129762857D01*
X33282142Y-129810476D01*
X33329761Y-129905714D01*
X33377380Y-129953333D01*
X33472619Y-130000952D01*
X33663095Y-130000952D01*
X33758333Y-130048571D01*
X33805952Y-130096190D01*
X33853571Y-130191428D01*
X33853571Y-130381904D01*
X33805952Y-130477142D01*
X33758333Y-130524761D01*
X33663095Y-130572380D01*
X33472619Y-130572380D01*
X33377380Y-130524761D01*
X33329761Y-130477142D01*
X33282142Y-130381904D01*
X33282142Y-130191428D01*
X33329761Y-130096190D01*
X33377380Y-130048571D01*
X33472619Y-130000952D01*
X324619738Y-111522380D02*
X324619738Y-110522380D01*
X324381642Y-110522380D01*
X324238785Y-110570000D01*
X324143547Y-110665238D01*
X324095928Y-110760476D01*
X324048309Y-110950952D01*
X324048309Y-111093809D01*
X324095928Y-111284285D01*
X324143547Y-111379523D01*
X324238785Y-111474761D01*
X324381642Y-111522380D01*
X324619738Y-111522380D01*
X323857833Y-111617619D02*
X323095928Y-111617619D01*
X322381642Y-110522380D02*
X322857833Y-110522380D01*
X322905452Y-110998571D01*
X322857833Y-110950952D01*
X322762595Y-110903333D01*
X322524500Y-110903333D01*
X322429261Y-110950952D01*
X322381642Y-110998571D01*
X322334023Y-111093809D01*
X322334023Y-111331904D01*
X322381642Y-111427142D01*
X322429261Y-111474761D01*
X322524500Y-111522380D01*
X322762595Y-111522380D01*
X322857833Y-111474761D01*
X322905452Y-111427142D01*
X322000690Y-110522380D02*
X321334023Y-110522380D01*
X321762595Y-111522380D01*
X284170238Y-111522380D02*
X284170238Y-110522380D01*
X283932142Y-110522380D01*
X283789285Y-110570000D01*
X283694047Y-110665238D01*
X283646428Y-110760476D01*
X283598809Y-110950952D01*
X283598809Y-111093809D01*
X283646428Y-111284285D01*
X283694047Y-111379523D01*
X283789285Y-111474761D01*
X283932142Y-111522380D01*
X284170238Y-111522380D01*
X283408333Y-111617619D02*
X282646428Y-111617619D01*
X281932142Y-110522380D02*
X282408333Y-110522380D01*
X282455952Y-110998571D01*
X282408333Y-110950952D01*
X282313095Y-110903333D01*
X282075000Y-110903333D01*
X281979761Y-110950952D01*
X281932142Y-110998571D01*
X281884523Y-111093809D01*
X281884523Y-111331904D01*
X281932142Y-111427142D01*
X281979761Y-111474761D01*
X282075000Y-111522380D01*
X282313095Y-111522380D01*
X282408333Y-111474761D01*
X282455952Y-111427142D01*
X281027380Y-110522380D02*
X281217857Y-110522380D01*
X281313095Y-110570000D01*
X281360714Y-110617619D01*
X281455952Y-110760476D01*
X281503571Y-110950952D01*
X281503571Y-111331904D01*
X281455952Y-111427142D01*
X281408333Y-111474761D01*
X281313095Y-111522380D01*
X281122619Y-111522380D01*
X281027380Y-111474761D01*
X280979761Y-111427142D01*
X280932142Y-111331904D01*
X280932142Y-111093809D01*
X280979761Y-110998571D01*
X281027380Y-110950952D01*
X281122619Y-110903333D01*
X281313095Y-110903333D01*
X281408333Y-110950952D01*
X281455952Y-110998571D01*
X281503571Y-111093809D01*
X248356238Y-111522380D02*
X248356238Y-110522380D01*
X248118142Y-110522380D01*
X247975285Y-110570000D01*
X247880047Y-110665238D01*
X247832428Y-110760476D01*
X247784809Y-110950952D01*
X247784809Y-111093809D01*
X247832428Y-111284285D01*
X247880047Y-111379523D01*
X247975285Y-111474761D01*
X248118142Y-111522380D01*
X248356238Y-111522380D01*
X247594333Y-111617619D02*
X246832428Y-111617619D01*
X246118142Y-110522380D02*
X246594333Y-110522380D01*
X246641952Y-110998571D01*
X246594333Y-110950952D01*
X246499095Y-110903333D01*
X246261000Y-110903333D01*
X246165761Y-110950952D01*
X246118142Y-110998571D01*
X246070523Y-111093809D01*
X246070523Y-111331904D01*
X246118142Y-111427142D01*
X246165761Y-111474761D01*
X246261000Y-111522380D01*
X246499095Y-111522380D01*
X246594333Y-111474761D01*
X246641952Y-111427142D01*
X245165761Y-110522380D02*
X245641952Y-110522380D01*
X245689571Y-110998571D01*
X245641952Y-110950952D01*
X245546714Y-110903333D01*
X245308619Y-110903333D01*
X245213380Y-110950952D01*
X245165761Y-110998571D01*
X245118142Y-111093809D01*
X245118142Y-111331904D01*
X245165761Y-111427142D01*
X245213380Y-111474761D01*
X245308619Y-111522380D01*
X245546714Y-111522380D01*
X245641952Y-111474761D01*
X245689571Y-111427142D01*
X229306238Y-111522380D02*
X229306238Y-110522380D01*
X229068142Y-110522380D01*
X228925285Y-110570000D01*
X228830047Y-110665238D01*
X228782428Y-110760476D01*
X228734809Y-110950952D01*
X228734809Y-111093809D01*
X228782428Y-111284285D01*
X228830047Y-111379523D01*
X228925285Y-111474761D01*
X229068142Y-111522380D01*
X229306238Y-111522380D01*
X228544333Y-111617619D02*
X227782428Y-111617619D01*
X227068142Y-110522380D02*
X227544333Y-110522380D01*
X227591952Y-110998571D01*
X227544333Y-110950952D01*
X227449095Y-110903333D01*
X227211000Y-110903333D01*
X227115761Y-110950952D01*
X227068142Y-110998571D01*
X227020523Y-111093809D01*
X227020523Y-111331904D01*
X227068142Y-111427142D01*
X227115761Y-111474761D01*
X227211000Y-111522380D01*
X227449095Y-111522380D01*
X227544333Y-111474761D01*
X227591952Y-111427142D01*
X226163380Y-110855714D02*
X226163380Y-111522380D01*
X226401476Y-110474761D02*
X226639571Y-111189047D01*
X226020523Y-111189047D01*
X210256238Y-111522380D02*
X210256238Y-110522380D01*
X210018142Y-110522380D01*
X209875285Y-110570000D01*
X209780047Y-110665238D01*
X209732428Y-110760476D01*
X209684809Y-110950952D01*
X209684809Y-111093809D01*
X209732428Y-111284285D01*
X209780047Y-111379523D01*
X209875285Y-111474761D01*
X210018142Y-111522380D01*
X210256238Y-111522380D01*
X209494333Y-111617619D02*
X208732428Y-111617619D01*
X208018142Y-110522380D02*
X208494333Y-110522380D01*
X208541952Y-110998571D01*
X208494333Y-110950952D01*
X208399095Y-110903333D01*
X208161000Y-110903333D01*
X208065761Y-110950952D01*
X208018142Y-110998571D01*
X207970523Y-111093809D01*
X207970523Y-111331904D01*
X208018142Y-111427142D01*
X208065761Y-111474761D01*
X208161000Y-111522380D01*
X208399095Y-111522380D01*
X208494333Y-111474761D01*
X208541952Y-111427142D01*
X207637190Y-110522380D02*
X207018142Y-110522380D01*
X207351476Y-110903333D01*
X207208619Y-110903333D01*
X207113380Y-110950952D01*
X207065761Y-110998571D01*
X207018142Y-111093809D01*
X207018142Y-111331904D01*
X207065761Y-111427142D01*
X207113380Y-111474761D01*
X207208619Y-111522380D01*
X207494333Y-111522380D01*
X207589571Y-111474761D01*
X207637190Y-111427142D01*
X191206238Y-111522380D02*
X191206238Y-110522380D01*
X190968142Y-110522380D01*
X190825285Y-110570000D01*
X190730047Y-110665238D01*
X190682428Y-110760476D01*
X190634809Y-110950952D01*
X190634809Y-111093809D01*
X190682428Y-111284285D01*
X190730047Y-111379523D01*
X190825285Y-111474761D01*
X190968142Y-111522380D01*
X191206238Y-111522380D01*
X190444333Y-111617619D02*
X189682428Y-111617619D01*
X188968142Y-110522380D02*
X189444333Y-110522380D01*
X189491952Y-110998571D01*
X189444333Y-110950952D01*
X189349095Y-110903333D01*
X189111000Y-110903333D01*
X189015761Y-110950952D01*
X188968142Y-110998571D01*
X188920523Y-111093809D01*
X188920523Y-111331904D01*
X188968142Y-111427142D01*
X189015761Y-111474761D01*
X189111000Y-111522380D01*
X189349095Y-111522380D01*
X189444333Y-111474761D01*
X189491952Y-111427142D01*
X188539571Y-110617619D02*
X188491952Y-110570000D01*
X188396714Y-110522380D01*
X188158619Y-110522380D01*
X188063380Y-110570000D01*
X188015761Y-110617619D01*
X187968142Y-110712857D01*
X187968142Y-110808095D01*
X188015761Y-110950952D01*
X188587190Y-111522380D01*
X187968142Y-111522380D01*
X172156238Y-111522380D02*
X172156238Y-110522380D01*
X171918142Y-110522380D01*
X171775285Y-110570000D01*
X171680047Y-110665238D01*
X171632428Y-110760476D01*
X171584809Y-110950952D01*
X171584809Y-111093809D01*
X171632428Y-111284285D01*
X171680047Y-111379523D01*
X171775285Y-111474761D01*
X171918142Y-111522380D01*
X172156238Y-111522380D01*
X171394333Y-111617619D02*
X170632428Y-111617619D01*
X169918142Y-110522380D02*
X170394333Y-110522380D01*
X170441952Y-110998571D01*
X170394333Y-110950952D01*
X170299095Y-110903333D01*
X170061000Y-110903333D01*
X169965761Y-110950952D01*
X169918142Y-110998571D01*
X169870523Y-111093809D01*
X169870523Y-111331904D01*
X169918142Y-111427142D01*
X169965761Y-111474761D01*
X170061000Y-111522380D01*
X170299095Y-111522380D01*
X170394333Y-111474761D01*
X170441952Y-111427142D01*
X168918142Y-111522380D02*
X169489571Y-111522380D01*
X169203857Y-111522380D02*
X169203857Y-110522380D01*
X169299095Y-110665238D01*
X169394333Y-110760476D01*
X169489571Y-110808095D01*
X153106238Y-111522380D02*
X153106238Y-110522380D01*
X152868142Y-110522380D01*
X152725285Y-110570000D01*
X152630047Y-110665238D01*
X152582428Y-110760476D01*
X152534809Y-110950952D01*
X152534809Y-111093809D01*
X152582428Y-111284285D01*
X152630047Y-111379523D01*
X152725285Y-111474761D01*
X152868142Y-111522380D01*
X153106238Y-111522380D01*
X152344333Y-111617619D02*
X151582428Y-111617619D01*
X150868142Y-110522380D02*
X151344333Y-110522380D01*
X151391952Y-110998571D01*
X151344333Y-110950952D01*
X151249095Y-110903333D01*
X151011000Y-110903333D01*
X150915761Y-110950952D01*
X150868142Y-110998571D01*
X150820523Y-111093809D01*
X150820523Y-111331904D01*
X150868142Y-111427142D01*
X150915761Y-111474761D01*
X151011000Y-111522380D01*
X151249095Y-111522380D01*
X151344333Y-111474761D01*
X151391952Y-111427142D01*
X150201476Y-110522380D02*
X150106238Y-110522380D01*
X150011000Y-110570000D01*
X149963380Y-110617619D01*
X149915761Y-110712857D01*
X149868142Y-110903333D01*
X149868142Y-111141428D01*
X149915761Y-111331904D01*
X149963380Y-111427142D01*
X150011000Y-111474761D01*
X150106238Y-111522380D01*
X150201476Y-111522380D01*
X150296714Y-111474761D01*
X150344333Y-111427142D01*
X150391952Y-111331904D01*
X150439571Y-111141428D01*
X150439571Y-110903333D01*
X150391952Y-110712857D01*
X150344333Y-110617619D01*
X150296714Y-110570000D01*
X150201476Y-110522380D01*
X134056238Y-111522380D02*
X134056238Y-110522380D01*
X133818142Y-110522380D01*
X133675285Y-110570000D01*
X133580047Y-110665238D01*
X133532428Y-110760476D01*
X133484809Y-110950952D01*
X133484809Y-111093809D01*
X133532428Y-111284285D01*
X133580047Y-111379523D01*
X133675285Y-111474761D01*
X133818142Y-111522380D01*
X134056238Y-111522380D01*
X133294333Y-111617619D02*
X132532428Y-111617619D01*
X131865761Y-110855714D02*
X131865761Y-111522380D01*
X132103857Y-110474761D02*
X132341952Y-111189047D01*
X131722904Y-111189047D01*
X131294333Y-111522380D02*
X131103857Y-111522380D01*
X131008619Y-111474761D01*
X130961000Y-111427142D01*
X130865761Y-111284285D01*
X130818142Y-111093809D01*
X130818142Y-110712857D01*
X130865761Y-110617619D01*
X130913380Y-110570000D01*
X131008619Y-110522380D01*
X131199095Y-110522380D01*
X131294333Y-110570000D01*
X131341952Y-110617619D01*
X131389571Y-110712857D01*
X131389571Y-110950952D01*
X131341952Y-111046190D01*
X131294333Y-111093809D01*
X131199095Y-111141428D01*
X131008619Y-111141428D01*
X130913380Y-111093809D01*
X130865761Y-111046190D01*
X130818142Y-110950952D01*
X115006238Y-111522380D02*
X115006238Y-110522380D01*
X114768142Y-110522380D01*
X114625285Y-110570000D01*
X114530047Y-110665238D01*
X114482428Y-110760476D01*
X114434809Y-110950952D01*
X114434809Y-111093809D01*
X114482428Y-111284285D01*
X114530047Y-111379523D01*
X114625285Y-111474761D01*
X114768142Y-111522380D01*
X115006238Y-111522380D01*
X114244333Y-111617619D02*
X113482428Y-111617619D01*
X112815761Y-110855714D02*
X112815761Y-111522380D01*
X113053857Y-110474761D02*
X113291952Y-111189047D01*
X112672904Y-111189047D01*
X112149095Y-110950952D02*
X112244333Y-110903333D01*
X112291952Y-110855714D01*
X112339571Y-110760476D01*
X112339571Y-110712857D01*
X112291952Y-110617619D01*
X112244333Y-110570000D01*
X112149095Y-110522380D01*
X111958619Y-110522380D01*
X111863380Y-110570000D01*
X111815761Y-110617619D01*
X111768142Y-110712857D01*
X111768142Y-110760476D01*
X111815761Y-110855714D01*
X111863380Y-110903333D01*
X111958619Y-110950952D01*
X112149095Y-110950952D01*
X112244333Y-110998571D01*
X112291952Y-111046190D01*
X112339571Y-111141428D01*
X112339571Y-111331904D01*
X112291952Y-111427142D01*
X112244333Y-111474761D01*
X112149095Y-111522380D01*
X111958619Y-111522380D01*
X111863380Y-111474761D01*
X111815761Y-111427142D01*
X111768142Y-111331904D01*
X111768142Y-111141428D01*
X111815761Y-111046190D01*
X111863380Y-110998571D01*
X111958619Y-110950952D01*
X95956238Y-111522380D02*
X95956238Y-110522380D01*
X95718142Y-110522380D01*
X95575285Y-110570000D01*
X95480047Y-110665238D01*
X95432428Y-110760476D01*
X95384809Y-110950952D01*
X95384809Y-111093809D01*
X95432428Y-111284285D01*
X95480047Y-111379523D01*
X95575285Y-111474761D01*
X95718142Y-111522380D01*
X95956238Y-111522380D01*
X95194333Y-111617619D02*
X94432428Y-111617619D01*
X93765761Y-110855714D02*
X93765761Y-111522380D01*
X94003857Y-110474761D02*
X94241952Y-111189047D01*
X93622904Y-111189047D01*
X93337190Y-110522380D02*
X92670523Y-110522380D01*
X93099095Y-111522380D01*
X77033238Y-111522380D02*
X77033238Y-110522380D01*
X76795142Y-110522380D01*
X76652285Y-110570000D01*
X76557047Y-110665238D01*
X76509428Y-110760476D01*
X76461809Y-110950952D01*
X76461809Y-111093809D01*
X76509428Y-111284285D01*
X76557047Y-111379523D01*
X76652285Y-111474761D01*
X76795142Y-111522380D01*
X77033238Y-111522380D01*
X76271333Y-111617619D02*
X75509428Y-111617619D01*
X74842761Y-110855714D02*
X74842761Y-111522380D01*
X75080857Y-110474761D02*
X75318952Y-111189047D01*
X74699904Y-111189047D01*
X73890380Y-110522380D02*
X74080857Y-110522380D01*
X74176095Y-110570000D01*
X74223714Y-110617619D01*
X74318952Y-110760476D01*
X74366571Y-110950952D01*
X74366571Y-111331904D01*
X74318952Y-111427142D01*
X74271333Y-111474761D01*
X74176095Y-111522380D01*
X73985619Y-111522380D01*
X73890380Y-111474761D01*
X73842761Y-111427142D01*
X73795142Y-111331904D01*
X73795142Y-111093809D01*
X73842761Y-110998571D01*
X73890380Y-110950952D01*
X73985619Y-110903333D01*
X74176095Y-110903333D01*
X74271333Y-110950952D01*
X74318952Y-110998571D01*
X74366571Y-111093809D01*
X46045238Y-111522380D02*
X46045238Y-110522380D01*
X45807142Y-110522380D01*
X45664285Y-110570000D01*
X45569047Y-110665238D01*
X45521428Y-110760476D01*
X45473809Y-110950952D01*
X45473809Y-111093809D01*
X45521428Y-111284285D01*
X45569047Y-111379523D01*
X45664285Y-111474761D01*
X45807142Y-111522380D01*
X46045238Y-111522380D01*
X45283333Y-111617619D02*
X44521428Y-111617619D01*
X43854761Y-110855714D02*
X43854761Y-111522380D01*
X44092857Y-110474761D02*
X44330952Y-111189047D01*
X43711904Y-111189047D01*
X42854761Y-110522380D02*
X43330952Y-110522380D01*
X43378571Y-110998571D01*
X43330952Y-110950952D01*
X43235714Y-110903333D01*
X42997619Y-110903333D01*
X42902380Y-110950952D01*
X42854761Y-110998571D01*
X42807142Y-111093809D01*
X42807142Y-111331904D01*
X42854761Y-111427142D01*
X42902380Y-111474761D01*
X42997619Y-111522380D01*
X43235714Y-111522380D01*
X43330952Y-111474761D01*
X43378571Y-111427142D01*
X288869238Y-92472380D02*
X288869238Y-91472380D01*
X288631142Y-91472380D01*
X288488285Y-91520000D01*
X288393047Y-91615238D01*
X288345428Y-91710476D01*
X288297809Y-91900952D01*
X288297809Y-92043809D01*
X288345428Y-92234285D01*
X288393047Y-92329523D01*
X288488285Y-92424761D01*
X288631142Y-92472380D01*
X288869238Y-92472380D01*
X288107333Y-92567619D02*
X287345428Y-92567619D01*
X286678761Y-91805714D02*
X286678761Y-92472380D01*
X286916857Y-91424761D02*
X287154952Y-92139047D01*
X286535904Y-92139047D01*
X285726380Y-91805714D02*
X285726380Y-92472380D01*
X285964476Y-91424761D02*
X286202571Y-92139047D01*
X285583523Y-92139047D01*
X257881238Y-92472380D02*
X257881238Y-91472380D01*
X257643142Y-91472380D01*
X257500285Y-91520000D01*
X257405047Y-91615238D01*
X257357428Y-91710476D01*
X257309809Y-91900952D01*
X257309809Y-92043809D01*
X257357428Y-92234285D01*
X257405047Y-92329523D01*
X257500285Y-92424761D01*
X257643142Y-92472380D01*
X257881238Y-92472380D01*
X257119333Y-92567619D02*
X256357428Y-92567619D01*
X255690761Y-91805714D02*
X255690761Y-92472380D01*
X255928857Y-91424761D02*
X256166952Y-92139047D01*
X255547904Y-92139047D01*
X255262190Y-91472380D02*
X254643142Y-91472380D01*
X254976476Y-91853333D01*
X254833619Y-91853333D01*
X254738380Y-91900952D01*
X254690761Y-91948571D01*
X254643142Y-92043809D01*
X254643142Y-92281904D01*
X254690761Y-92377142D01*
X254738380Y-92424761D01*
X254833619Y-92472380D01*
X255119333Y-92472380D01*
X255214571Y-92424761D01*
X255262190Y-92377142D01*
X238831238Y-92472380D02*
X238831238Y-91472380D01*
X238593142Y-91472380D01*
X238450285Y-91520000D01*
X238355047Y-91615238D01*
X238307428Y-91710476D01*
X238259809Y-91900952D01*
X238259809Y-92043809D01*
X238307428Y-92234285D01*
X238355047Y-92329523D01*
X238450285Y-92424761D01*
X238593142Y-92472380D01*
X238831238Y-92472380D01*
X238069333Y-92567619D02*
X237307428Y-92567619D01*
X236640761Y-91805714D02*
X236640761Y-92472380D01*
X236878857Y-91424761D02*
X237116952Y-92139047D01*
X236497904Y-92139047D01*
X236164571Y-91567619D02*
X236116952Y-91520000D01*
X236021714Y-91472380D01*
X235783619Y-91472380D01*
X235688380Y-91520000D01*
X235640761Y-91567619D01*
X235593142Y-91662857D01*
X235593142Y-91758095D01*
X235640761Y-91900952D01*
X236212190Y-92472380D01*
X235593142Y-92472380D01*
X219781238Y-92472380D02*
X219781238Y-91472380D01*
X219543142Y-91472380D01*
X219400285Y-91520000D01*
X219305047Y-91615238D01*
X219257428Y-91710476D01*
X219209809Y-91900952D01*
X219209809Y-92043809D01*
X219257428Y-92234285D01*
X219305047Y-92329523D01*
X219400285Y-92424761D01*
X219543142Y-92472380D01*
X219781238Y-92472380D01*
X219019333Y-92567619D02*
X218257428Y-92567619D01*
X217590761Y-91805714D02*
X217590761Y-92472380D01*
X217828857Y-91424761D02*
X218066952Y-92139047D01*
X217447904Y-92139047D01*
X216543142Y-92472380D02*
X217114571Y-92472380D01*
X216828857Y-92472380D02*
X216828857Y-91472380D01*
X216924095Y-91615238D01*
X217019333Y-91710476D01*
X217114571Y-91758095D01*
X200604238Y-92472380D02*
X200604238Y-91472380D01*
X200366142Y-91472380D01*
X200223285Y-91520000D01*
X200128047Y-91615238D01*
X200080428Y-91710476D01*
X200032809Y-91900952D01*
X200032809Y-92043809D01*
X200080428Y-92234285D01*
X200128047Y-92329523D01*
X200223285Y-92424761D01*
X200366142Y-92472380D01*
X200604238Y-92472380D01*
X199842333Y-92567619D02*
X199080428Y-92567619D01*
X198413761Y-91805714D02*
X198413761Y-92472380D01*
X198651857Y-91424761D02*
X198889952Y-92139047D01*
X198270904Y-92139047D01*
X197699476Y-91472380D02*
X197604238Y-91472380D01*
X197509000Y-91520000D01*
X197461380Y-91567619D01*
X197413761Y-91662857D01*
X197366142Y-91853333D01*
X197366142Y-92091428D01*
X197413761Y-92281904D01*
X197461380Y-92377142D01*
X197509000Y-92424761D01*
X197604238Y-92472380D01*
X197699476Y-92472380D01*
X197794714Y-92424761D01*
X197842333Y-92377142D01*
X197889952Y-92281904D01*
X197937571Y-92091428D01*
X197937571Y-91853333D01*
X197889952Y-91662857D01*
X197842333Y-91567619D01*
X197794714Y-91520000D01*
X197699476Y-91472380D01*
X181681238Y-92472380D02*
X181681238Y-91472380D01*
X181443142Y-91472380D01*
X181300285Y-91520000D01*
X181205047Y-91615238D01*
X181157428Y-91710476D01*
X181109809Y-91900952D01*
X181109809Y-92043809D01*
X181157428Y-92234285D01*
X181205047Y-92329523D01*
X181300285Y-92424761D01*
X181443142Y-92472380D01*
X181681238Y-92472380D01*
X180919333Y-92567619D02*
X180157428Y-92567619D01*
X180014571Y-91472380D02*
X179395523Y-91472380D01*
X179728857Y-91853333D01*
X179586000Y-91853333D01*
X179490761Y-91900952D01*
X179443142Y-91948571D01*
X179395523Y-92043809D01*
X179395523Y-92281904D01*
X179443142Y-92377142D01*
X179490761Y-92424761D01*
X179586000Y-92472380D01*
X179871714Y-92472380D01*
X179966952Y-92424761D01*
X180014571Y-92377142D01*
X178919333Y-92472380D02*
X178728857Y-92472380D01*
X178633619Y-92424761D01*
X178586000Y-92377142D01*
X178490761Y-92234285D01*
X178443142Y-92043809D01*
X178443142Y-91662857D01*
X178490761Y-91567619D01*
X178538380Y-91520000D01*
X178633619Y-91472380D01*
X178824095Y-91472380D01*
X178919333Y-91520000D01*
X178966952Y-91567619D01*
X179014571Y-91662857D01*
X179014571Y-91900952D01*
X178966952Y-91996190D01*
X178919333Y-92043809D01*
X178824095Y-92091428D01*
X178633619Y-92091428D01*
X178538380Y-92043809D01*
X178490761Y-91996190D01*
X178443142Y-91900952D01*
X162631238Y-92472380D02*
X162631238Y-91472380D01*
X162393142Y-91472380D01*
X162250285Y-91520000D01*
X162155047Y-91615238D01*
X162107428Y-91710476D01*
X162059809Y-91900952D01*
X162059809Y-92043809D01*
X162107428Y-92234285D01*
X162155047Y-92329523D01*
X162250285Y-92424761D01*
X162393142Y-92472380D01*
X162631238Y-92472380D01*
X161869333Y-92567619D02*
X161107428Y-92567619D01*
X160964571Y-91472380D02*
X160345523Y-91472380D01*
X160678857Y-91853333D01*
X160536000Y-91853333D01*
X160440761Y-91900952D01*
X160393142Y-91948571D01*
X160345523Y-92043809D01*
X160345523Y-92281904D01*
X160393142Y-92377142D01*
X160440761Y-92424761D01*
X160536000Y-92472380D01*
X160821714Y-92472380D01*
X160916952Y-92424761D01*
X160964571Y-92377142D01*
X159774095Y-91900952D02*
X159869333Y-91853333D01*
X159916952Y-91805714D01*
X159964571Y-91710476D01*
X159964571Y-91662857D01*
X159916952Y-91567619D01*
X159869333Y-91520000D01*
X159774095Y-91472380D01*
X159583619Y-91472380D01*
X159488380Y-91520000D01*
X159440761Y-91567619D01*
X159393142Y-91662857D01*
X159393142Y-91710476D01*
X159440761Y-91805714D01*
X159488380Y-91853333D01*
X159583619Y-91900952D01*
X159774095Y-91900952D01*
X159869333Y-91948571D01*
X159916952Y-91996190D01*
X159964571Y-92091428D01*
X159964571Y-92281904D01*
X159916952Y-92377142D01*
X159869333Y-92424761D01*
X159774095Y-92472380D01*
X159583619Y-92472380D01*
X159488380Y-92424761D01*
X159440761Y-92377142D01*
X159393142Y-92281904D01*
X159393142Y-92091428D01*
X159440761Y-91996190D01*
X159488380Y-91948571D01*
X159583619Y-91900952D01*
X143581238Y-92472380D02*
X143581238Y-91472380D01*
X143343142Y-91472380D01*
X143200285Y-91520000D01*
X143105047Y-91615238D01*
X143057428Y-91710476D01*
X143009809Y-91900952D01*
X143009809Y-92043809D01*
X143057428Y-92234285D01*
X143105047Y-92329523D01*
X143200285Y-92424761D01*
X143343142Y-92472380D01*
X143581238Y-92472380D01*
X142819333Y-92567619D02*
X142057428Y-92567619D01*
X141914571Y-91472380D02*
X141295523Y-91472380D01*
X141628857Y-91853333D01*
X141486000Y-91853333D01*
X141390761Y-91900952D01*
X141343142Y-91948571D01*
X141295523Y-92043809D01*
X141295523Y-92281904D01*
X141343142Y-92377142D01*
X141390761Y-92424761D01*
X141486000Y-92472380D01*
X141771714Y-92472380D01*
X141866952Y-92424761D01*
X141914571Y-92377142D01*
X140962190Y-91472380D02*
X140295523Y-91472380D01*
X140724095Y-92472380D01*
X124531238Y-92472380D02*
X124531238Y-91472380D01*
X124293142Y-91472380D01*
X124150285Y-91520000D01*
X124055047Y-91615238D01*
X124007428Y-91710476D01*
X123959809Y-91900952D01*
X123959809Y-92043809D01*
X124007428Y-92234285D01*
X124055047Y-92329523D01*
X124150285Y-92424761D01*
X124293142Y-92472380D01*
X124531238Y-92472380D01*
X123769333Y-92567619D02*
X123007428Y-92567619D01*
X122864571Y-91472380D02*
X122245523Y-91472380D01*
X122578857Y-91853333D01*
X122436000Y-91853333D01*
X122340761Y-91900952D01*
X122293142Y-91948571D01*
X122245523Y-92043809D01*
X122245523Y-92281904D01*
X122293142Y-92377142D01*
X122340761Y-92424761D01*
X122436000Y-92472380D01*
X122721714Y-92472380D01*
X122816952Y-92424761D01*
X122864571Y-92377142D01*
X121388380Y-91472380D02*
X121578857Y-91472380D01*
X121674095Y-91520000D01*
X121721714Y-91567619D01*
X121816952Y-91710476D01*
X121864571Y-91900952D01*
X121864571Y-92281904D01*
X121816952Y-92377142D01*
X121769333Y-92424761D01*
X121674095Y-92472380D01*
X121483619Y-92472380D01*
X121388380Y-92424761D01*
X121340761Y-92377142D01*
X121293142Y-92281904D01*
X121293142Y-92043809D01*
X121340761Y-91948571D01*
X121388380Y-91900952D01*
X121483619Y-91853333D01*
X121674095Y-91853333D01*
X121769333Y-91900952D01*
X121816952Y-91948571D01*
X121864571Y-92043809D01*
X105481238Y-92472380D02*
X105481238Y-91472380D01*
X105243142Y-91472380D01*
X105100285Y-91520000D01*
X105005047Y-91615238D01*
X104957428Y-91710476D01*
X104909809Y-91900952D01*
X104909809Y-92043809D01*
X104957428Y-92234285D01*
X105005047Y-92329523D01*
X105100285Y-92424761D01*
X105243142Y-92472380D01*
X105481238Y-92472380D01*
X104719333Y-92567619D02*
X103957428Y-92567619D01*
X103814571Y-91472380D02*
X103195523Y-91472380D01*
X103528857Y-91853333D01*
X103386000Y-91853333D01*
X103290761Y-91900952D01*
X103243142Y-91948571D01*
X103195523Y-92043809D01*
X103195523Y-92281904D01*
X103243142Y-92377142D01*
X103290761Y-92424761D01*
X103386000Y-92472380D01*
X103671714Y-92472380D01*
X103766952Y-92424761D01*
X103814571Y-92377142D01*
X102290761Y-91472380D02*
X102766952Y-91472380D01*
X102814571Y-91948571D01*
X102766952Y-91900952D01*
X102671714Y-91853333D01*
X102433619Y-91853333D01*
X102338380Y-91900952D01*
X102290761Y-91948571D01*
X102243142Y-92043809D01*
X102243142Y-92281904D01*
X102290761Y-92377142D01*
X102338380Y-92424761D01*
X102433619Y-92472380D01*
X102671714Y-92472380D01*
X102766952Y-92424761D01*
X102814571Y-92377142D01*
X86431238Y-92472380D02*
X86431238Y-91472380D01*
X86193142Y-91472380D01*
X86050285Y-91520000D01*
X85955047Y-91615238D01*
X85907428Y-91710476D01*
X85859809Y-91900952D01*
X85859809Y-92043809D01*
X85907428Y-92234285D01*
X85955047Y-92329523D01*
X86050285Y-92424761D01*
X86193142Y-92472380D01*
X86431238Y-92472380D01*
X85669333Y-92567619D02*
X84907428Y-92567619D01*
X84764571Y-91472380D02*
X84145523Y-91472380D01*
X84478857Y-91853333D01*
X84336000Y-91853333D01*
X84240761Y-91900952D01*
X84193142Y-91948571D01*
X84145523Y-92043809D01*
X84145523Y-92281904D01*
X84193142Y-92377142D01*
X84240761Y-92424761D01*
X84336000Y-92472380D01*
X84621714Y-92472380D01*
X84716952Y-92424761D01*
X84764571Y-92377142D01*
X83288380Y-91805714D02*
X83288380Y-92472380D01*
X83526476Y-91424761D02*
X83764571Y-92139047D01*
X83145523Y-92139047D01*
X67381238Y-92472380D02*
X67381238Y-91472380D01*
X67143142Y-91472380D01*
X67000285Y-91520000D01*
X66905047Y-91615238D01*
X66857428Y-91710476D01*
X66809809Y-91900952D01*
X66809809Y-92043809D01*
X66857428Y-92234285D01*
X66905047Y-92329523D01*
X67000285Y-92424761D01*
X67143142Y-92472380D01*
X67381238Y-92472380D01*
X66619333Y-92567619D02*
X65857428Y-92567619D01*
X65714571Y-91472380D02*
X65095523Y-91472380D01*
X65428857Y-91853333D01*
X65286000Y-91853333D01*
X65190761Y-91900952D01*
X65143142Y-91948571D01*
X65095523Y-92043809D01*
X65095523Y-92281904D01*
X65143142Y-92377142D01*
X65190761Y-92424761D01*
X65286000Y-92472380D01*
X65571714Y-92472380D01*
X65666952Y-92424761D01*
X65714571Y-92377142D01*
X64762190Y-91472380D02*
X64143142Y-91472380D01*
X64476476Y-91853333D01*
X64333619Y-91853333D01*
X64238380Y-91900952D01*
X64190761Y-91948571D01*
X64143142Y-92043809D01*
X64143142Y-92281904D01*
X64190761Y-92377142D01*
X64238380Y-92424761D01*
X64333619Y-92472380D01*
X64619333Y-92472380D01*
X64714571Y-92424761D01*
X64762190Y-92377142D01*
X41219238Y-92472380D02*
X41219238Y-91472380D01*
X40981142Y-91472380D01*
X40838285Y-91520000D01*
X40743047Y-91615238D01*
X40695428Y-91710476D01*
X40647809Y-91900952D01*
X40647809Y-92043809D01*
X40695428Y-92234285D01*
X40743047Y-92329523D01*
X40838285Y-92424761D01*
X40981142Y-92472380D01*
X41219238Y-92472380D01*
X40457333Y-92567619D02*
X39695428Y-92567619D01*
X39552571Y-91472380D02*
X38933523Y-91472380D01*
X39266857Y-91853333D01*
X39124000Y-91853333D01*
X39028761Y-91900952D01*
X38981142Y-91948571D01*
X38933523Y-92043809D01*
X38933523Y-92281904D01*
X38981142Y-92377142D01*
X39028761Y-92424761D01*
X39124000Y-92472380D01*
X39409714Y-92472380D01*
X39504952Y-92424761D01*
X39552571Y-92377142D01*
X38552571Y-91567619D02*
X38504952Y-91520000D01*
X38409714Y-91472380D01*
X38171619Y-91472380D01*
X38076380Y-91520000D01*
X38028761Y-91567619D01*
X37981142Y-91662857D01*
X37981142Y-91758095D01*
X38028761Y-91900952D01*
X38600190Y-92472380D01*
X37981142Y-92472380D01*
X343606238Y-73422380D02*
X343606238Y-72422380D01*
X343368142Y-72422380D01*
X343225285Y-72470000D01*
X343130047Y-72565238D01*
X343082428Y-72660476D01*
X343034809Y-72850952D01*
X343034809Y-72993809D01*
X343082428Y-73184285D01*
X343130047Y-73279523D01*
X343225285Y-73374761D01*
X343368142Y-73422380D01*
X343606238Y-73422380D01*
X342844333Y-73517619D02*
X342082428Y-73517619D01*
X341939571Y-72422380D02*
X341320523Y-72422380D01*
X341653857Y-72803333D01*
X341511000Y-72803333D01*
X341415761Y-72850952D01*
X341368142Y-72898571D01*
X341320523Y-72993809D01*
X341320523Y-73231904D01*
X341368142Y-73327142D01*
X341415761Y-73374761D01*
X341511000Y-73422380D01*
X341796714Y-73422380D01*
X341891952Y-73374761D01*
X341939571Y-73327142D01*
X340368142Y-73422380D02*
X340939571Y-73422380D01*
X340653857Y-73422380D02*
X340653857Y-72422380D01*
X340749095Y-72565238D01*
X340844333Y-72660476D01*
X340939571Y-72708095D01*
X324556238Y-73422380D02*
X324556238Y-72422380D01*
X324318142Y-72422380D01*
X324175285Y-72470000D01*
X324080047Y-72565238D01*
X324032428Y-72660476D01*
X323984809Y-72850952D01*
X323984809Y-72993809D01*
X324032428Y-73184285D01*
X324080047Y-73279523D01*
X324175285Y-73374761D01*
X324318142Y-73422380D01*
X324556238Y-73422380D01*
X323794333Y-73517619D02*
X323032428Y-73517619D01*
X322889571Y-72422380D02*
X322270523Y-72422380D01*
X322603857Y-72803333D01*
X322461000Y-72803333D01*
X322365761Y-72850952D01*
X322318142Y-72898571D01*
X322270523Y-72993809D01*
X322270523Y-73231904D01*
X322318142Y-73327142D01*
X322365761Y-73374761D01*
X322461000Y-73422380D01*
X322746714Y-73422380D01*
X322841952Y-73374761D01*
X322889571Y-73327142D01*
X321651476Y-72422380D02*
X321556238Y-72422380D01*
X321461000Y-72470000D01*
X321413380Y-72517619D01*
X321365761Y-72612857D01*
X321318142Y-72803333D01*
X321318142Y-73041428D01*
X321365761Y-73231904D01*
X321413380Y-73327142D01*
X321461000Y-73374761D01*
X321556238Y-73422380D01*
X321651476Y-73422380D01*
X321746714Y-73374761D01*
X321794333Y-73327142D01*
X321841952Y-73231904D01*
X321889571Y-73041428D01*
X321889571Y-72803333D01*
X321841952Y-72612857D01*
X321794333Y-72517619D01*
X321746714Y-72470000D01*
X321651476Y-72422380D01*
X295981238Y-73422380D02*
X295981238Y-72422380D01*
X295743142Y-72422380D01*
X295600285Y-72470000D01*
X295505047Y-72565238D01*
X295457428Y-72660476D01*
X295409809Y-72850952D01*
X295409809Y-72993809D01*
X295457428Y-73184285D01*
X295505047Y-73279523D01*
X295600285Y-73374761D01*
X295743142Y-73422380D01*
X295981238Y-73422380D01*
X295219333Y-73517619D02*
X294457428Y-73517619D01*
X294266952Y-72517619D02*
X294219333Y-72470000D01*
X294124095Y-72422380D01*
X293886000Y-72422380D01*
X293790761Y-72470000D01*
X293743142Y-72517619D01*
X293695523Y-72612857D01*
X293695523Y-72708095D01*
X293743142Y-72850952D01*
X294314571Y-73422380D01*
X293695523Y-73422380D01*
X293219333Y-73422380D02*
X293028857Y-73422380D01*
X292933619Y-73374761D01*
X292886000Y-73327142D01*
X292790761Y-73184285D01*
X292743142Y-72993809D01*
X292743142Y-72612857D01*
X292790761Y-72517619D01*
X292838380Y-72470000D01*
X292933619Y-72422380D01*
X293124095Y-72422380D01*
X293219333Y-72470000D01*
X293266952Y-72517619D01*
X293314571Y-72612857D01*
X293314571Y-72850952D01*
X293266952Y-72946190D01*
X293219333Y-72993809D01*
X293124095Y-73041428D01*
X292933619Y-73041428D01*
X292838380Y-72993809D01*
X292790761Y-72946190D01*
X292743142Y-72850952D01*
X272232238Y-73422380D02*
X272232238Y-72422380D01*
X271994142Y-72422380D01*
X271851285Y-72470000D01*
X271756047Y-72565238D01*
X271708428Y-72660476D01*
X271660809Y-72850952D01*
X271660809Y-72993809D01*
X271708428Y-73184285D01*
X271756047Y-73279523D01*
X271851285Y-73374761D01*
X271994142Y-73422380D01*
X272232238Y-73422380D01*
X271470333Y-73517619D02*
X270708428Y-73517619D01*
X270517952Y-72517619D02*
X270470333Y-72470000D01*
X270375095Y-72422380D01*
X270137000Y-72422380D01*
X270041761Y-72470000D01*
X269994142Y-72517619D01*
X269946523Y-72612857D01*
X269946523Y-72708095D01*
X269994142Y-72850952D01*
X270565571Y-73422380D01*
X269946523Y-73422380D01*
X269375095Y-72850952D02*
X269470333Y-72803333D01*
X269517952Y-72755714D01*
X269565571Y-72660476D01*
X269565571Y-72612857D01*
X269517952Y-72517619D01*
X269470333Y-72470000D01*
X269375095Y-72422380D01*
X269184619Y-72422380D01*
X269089380Y-72470000D01*
X269041761Y-72517619D01*
X268994142Y-72612857D01*
X268994142Y-72660476D01*
X269041761Y-72755714D01*
X269089380Y-72803333D01*
X269184619Y-72850952D01*
X269375095Y-72850952D01*
X269470333Y-72898571D01*
X269517952Y-72946190D01*
X269565571Y-73041428D01*
X269565571Y-73231904D01*
X269517952Y-73327142D01*
X269470333Y-73374761D01*
X269375095Y-73422380D01*
X269184619Y-73422380D01*
X269089380Y-73374761D01*
X269041761Y-73327142D01*
X268994142Y-73231904D01*
X268994142Y-73041428D01*
X269041761Y-72946190D01*
X269089380Y-72898571D01*
X269184619Y-72850952D01*
X253182238Y-73422380D02*
X253182238Y-72422380D01*
X252944142Y-72422380D01*
X252801285Y-72470000D01*
X252706047Y-72565238D01*
X252658428Y-72660476D01*
X252610809Y-72850952D01*
X252610809Y-72993809D01*
X252658428Y-73184285D01*
X252706047Y-73279523D01*
X252801285Y-73374761D01*
X252944142Y-73422380D01*
X253182238Y-73422380D01*
X252420333Y-73517619D02*
X251658428Y-73517619D01*
X251467952Y-72517619D02*
X251420333Y-72470000D01*
X251325095Y-72422380D01*
X251087000Y-72422380D01*
X250991761Y-72470000D01*
X250944142Y-72517619D01*
X250896523Y-72612857D01*
X250896523Y-72708095D01*
X250944142Y-72850952D01*
X251515571Y-73422380D01*
X250896523Y-73422380D01*
X250563190Y-72422380D02*
X249896523Y-72422380D01*
X250325095Y-73422380D01*
X234132238Y-73422380D02*
X234132238Y-72422380D01*
X233894142Y-72422380D01*
X233751285Y-72470000D01*
X233656047Y-72565238D01*
X233608428Y-72660476D01*
X233560809Y-72850952D01*
X233560809Y-72993809D01*
X233608428Y-73184285D01*
X233656047Y-73279523D01*
X233751285Y-73374761D01*
X233894142Y-73422380D01*
X234132238Y-73422380D01*
X233370333Y-73517619D02*
X232608428Y-73517619D01*
X232417952Y-72517619D02*
X232370333Y-72470000D01*
X232275095Y-72422380D01*
X232037000Y-72422380D01*
X231941761Y-72470000D01*
X231894142Y-72517619D01*
X231846523Y-72612857D01*
X231846523Y-72708095D01*
X231894142Y-72850952D01*
X232465571Y-73422380D01*
X231846523Y-73422380D01*
X230989380Y-72422380D02*
X231179857Y-72422380D01*
X231275095Y-72470000D01*
X231322714Y-72517619D01*
X231417952Y-72660476D01*
X231465571Y-72850952D01*
X231465571Y-73231904D01*
X231417952Y-73327142D01*
X231370333Y-73374761D01*
X231275095Y-73422380D01*
X231084619Y-73422380D01*
X230989380Y-73374761D01*
X230941761Y-73327142D01*
X230894142Y-73231904D01*
X230894142Y-72993809D01*
X230941761Y-72898571D01*
X230989380Y-72850952D01*
X231084619Y-72803333D01*
X231275095Y-72803333D01*
X231370333Y-72850952D01*
X231417952Y-72898571D01*
X231465571Y-72993809D01*
X215082238Y-73422380D02*
X215082238Y-72422380D01*
X214844142Y-72422380D01*
X214701285Y-72470000D01*
X214606047Y-72565238D01*
X214558428Y-72660476D01*
X214510809Y-72850952D01*
X214510809Y-72993809D01*
X214558428Y-73184285D01*
X214606047Y-73279523D01*
X214701285Y-73374761D01*
X214844142Y-73422380D01*
X215082238Y-73422380D01*
X214320333Y-73517619D02*
X213558428Y-73517619D01*
X213367952Y-72517619D02*
X213320333Y-72470000D01*
X213225095Y-72422380D01*
X212987000Y-72422380D01*
X212891761Y-72470000D01*
X212844142Y-72517619D01*
X212796523Y-72612857D01*
X212796523Y-72708095D01*
X212844142Y-72850952D01*
X213415571Y-73422380D01*
X212796523Y-73422380D01*
X211891761Y-72422380D02*
X212367952Y-72422380D01*
X212415571Y-72898571D01*
X212367952Y-72850952D01*
X212272714Y-72803333D01*
X212034619Y-72803333D01*
X211939380Y-72850952D01*
X211891761Y-72898571D01*
X211844142Y-72993809D01*
X211844142Y-73231904D01*
X211891761Y-73327142D01*
X211939380Y-73374761D01*
X212034619Y-73422380D01*
X212272714Y-73422380D01*
X212367952Y-73374761D01*
X212415571Y-73327142D01*
X196032238Y-73422380D02*
X196032238Y-72422380D01*
X195794142Y-72422380D01*
X195651285Y-72470000D01*
X195556047Y-72565238D01*
X195508428Y-72660476D01*
X195460809Y-72850952D01*
X195460809Y-72993809D01*
X195508428Y-73184285D01*
X195556047Y-73279523D01*
X195651285Y-73374761D01*
X195794142Y-73422380D01*
X196032238Y-73422380D01*
X195270333Y-73517619D02*
X194508428Y-73517619D01*
X194317952Y-72517619D02*
X194270333Y-72470000D01*
X194175095Y-72422380D01*
X193937000Y-72422380D01*
X193841761Y-72470000D01*
X193794142Y-72517619D01*
X193746523Y-72612857D01*
X193746523Y-72708095D01*
X193794142Y-72850952D01*
X194365571Y-73422380D01*
X193746523Y-73422380D01*
X192889380Y-72755714D02*
X192889380Y-73422380D01*
X193127476Y-72374761D02*
X193365571Y-73089047D01*
X192746523Y-73089047D01*
X176982238Y-73422380D02*
X176982238Y-72422380D01*
X176744142Y-72422380D01*
X176601285Y-72470000D01*
X176506047Y-72565238D01*
X176458428Y-72660476D01*
X176410809Y-72850952D01*
X176410809Y-72993809D01*
X176458428Y-73184285D01*
X176506047Y-73279523D01*
X176601285Y-73374761D01*
X176744142Y-73422380D01*
X176982238Y-73422380D01*
X176220333Y-73517619D02*
X175458428Y-73517619D01*
X175267952Y-72517619D02*
X175220333Y-72470000D01*
X175125095Y-72422380D01*
X174887000Y-72422380D01*
X174791761Y-72470000D01*
X174744142Y-72517619D01*
X174696523Y-72612857D01*
X174696523Y-72708095D01*
X174744142Y-72850952D01*
X175315571Y-73422380D01*
X174696523Y-73422380D01*
X174363190Y-72422380D02*
X173744142Y-72422380D01*
X174077476Y-72803333D01*
X173934619Y-72803333D01*
X173839380Y-72850952D01*
X173791761Y-72898571D01*
X173744142Y-72993809D01*
X173744142Y-73231904D01*
X173791761Y-73327142D01*
X173839380Y-73374761D01*
X173934619Y-73422380D01*
X174220333Y-73422380D01*
X174315571Y-73374761D01*
X174363190Y-73327142D01*
X157932238Y-73422380D02*
X157932238Y-72422380D01*
X157694142Y-72422380D01*
X157551285Y-72470000D01*
X157456047Y-72565238D01*
X157408428Y-72660476D01*
X157360809Y-72850952D01*
X157360809Y-72993809D01*
X157408428Y-73184285D01*
X157456047Y-73279523D01*
X157551285Y-73374761D01*
X157694142Y-73422380D01*
X157932238Y-73422380D01*
X157170333Y-73517619D02*
X156408428Y-73517619D01*
X156217952Y-72517619D02*
X156170333Y-72470000D01*
X156075095Y-72422380D01*
X155837000Y-72422380D01*
X155741761Y-72470000D01*
X155694142Y-72517619D01*
X155646523Y-72612857D01*
X155646523Y-72708095D01*
X155694142Y-72850952D01*
X156265571Y-73422380D01*
X155646523Y-73422380D01*
X155265571Y-72517619D02*
X155217952Y-72470000D01*
X155122714Y-72422380D01*
X154884619Y-72422380D01*
X154789380Y-72470000D01*
X154741761Y-72517619D01*
X154694142Y-72612857D01*
X154694142Y-72708095D01*
X154741761Y-72850952D01*
X155313190Y-73422380D01*
X154694142Y-73422380D01*
X138882238Y-73422380D02*
X138882238Y-72422380D01*
X138644142Y-72422380D01*
X138501285Y-72470000D01*
X138406047Y-72565238D01*
X138358428Y-72660476D01*
X138310809Y-72850952D01*
X138310809Y-72993809D01*
X138358428Y-73184285D01*
X138406047Y-73279523D01*
X138501285Y-73374761D01*
X138644142Y-73422380D01*
X138882238Y-73422380D01*
X138120333Y-73517619D02*
X137358428Y-73517619D01*
X137167952Y-72517619D02*
X137120333Y-72470000D01*
X137025095Y-72422380D01*
X136787000Y-72422380D01*
X136691761Y-72470000D01*
X136644142Y-72517619D01*
X136596523Y-72612857D01*
X136596523Y-72708095D01*
X136644142Y-72850952D01*
X137215571Y-73422380D01*
X136596523Y-73422380D01*
X135644142Y-73422380D02*
X136215571Y-73422380D01*
X135929857Y-73422380D02*
X135929857Y-72422380D01*
X136025095Y-72565238D01*
X136120333Y-72660476D01*
X136215571Y-72708095D01*
X119832238Y-73422380D02*
X119832238Y-72422380D01*
X119594142Y-72422380D01*
X119451285Y-72470000D01*
X119356047Y-72565238D01*
X119308428Y-72660476D01*
X119260809Y-72850952D01*
X119260809Y-72993809D01*
X119308428Y-73184285D01*
X119356047Y-73279523D01*
X119451285Y-73374761D01*
X119594142Y-73422380D01*
X119832238Y-73422380D01*
X119070333Y-73517619D02*
X118308428Y-73517619D01*
X118117952Y-72517619D02*
X118070333Y-72470000D01*
X117975095Y-72422380D01*
X117737000Y-72422380D01*
X117641761Y-72470000D01*
X117594142Y-72517619D01*
X117546523Y-72612857D01*
X117546523Y-72708095D01*
X117594142Y-72850952D01*
X118165571Y-73422380D01*
X117546523Y-73422380D01*
X116927476Y-72422380D02*
X116832238Y-72422380D01*
X116737000Y-72470000D01*
X116689380Y-72517619D01*
X116641761Y-72612857D01*
X116594142Y-72803333D01*
X116594142Y-73041428D01*
X116641761Y-73231904D01*
X116689380Y-73327142D01*
X116737000Y-73374761D01*
X116832238Y-73422380D01*
X116927476Y-73422380D01*
X117022714Y-73374761D01*
X117070333Y-73327142D01*
X117117952Y-73231904D01*
X117165571Y-73041428D01*
X117165571Y-72803333D01*
X117117952Y-72612857D01*
X117070333Y-72517619D01*
X117022714Y-72470000D01*
X116927476Y-72422380D01*
X100782238Y-73422380D02*
X100782238Y-72422380D01*
X100544142Y-72422380D01*
X100401285Y-72470000D01*
X100306047Y-72565238D01*
X100258428Y-72660476D01*
X100210809Y-72850952D01*
X100210809Y-72993809D01*
X100258428Y-73184285D01*
X100306047Y-73279523D01*
X100401285Y-73374761D01*
X100544142Y-73422380D01*
X100782238Y-73422380D01*
X100020333Y-73517619D02*
X99258428Y-73517619D01*
X98496523Y-73422380D02*
X99067952Y-73422380D01*
X98782238Y-73422380D02*
X98782238Y-72422380D01*
X98877476Y-72565238D01*
X98972714Y-72660476D01*
X99067952Y-72708095D01*
X98020333Y-73422380D02*
X97829857Y-73422380D01*
X97734619Y-73374761D01*
X97687000Y-73327142D01*
X97591761Y-73184285D01*
X97544142Y-72993809D01*
X97544142Y-72612857D01*
X97591761Y-72517619D01*
X97639380Y-72470000D01*
X97734619Y-72422380D01*
X97925095Y-72422380D01*
X98020333Y-72470000D01*
X98067952Y-72517619D01*
X98115571Y-72612857D01*
X98115571Y-72850952D01*
X98067952Y-72946190D01*
X98020333Y-72993809D01*
X97925095Y-73041428D01*
X97734619Y-73041428D01*
X97639380Y-72993809D01*
X97591761Y-72946190D01*
X97544142Y-72850952D01*
X81732238Y-73422380D02*
X81732238Y-72422380D01*
X81494142Y-72422380D01*
X81351285Y-72470000D01*
X81256047Y-72565238D01*
X81208428Y-72660476D01*
X81160809Y-72850952D01*
X81160809Y-72993809D01*
X81208428Y-73184285D01*
X81256047Y-73279523D01*
X81351285Y-73374761D01*
X81494142Y-73422380D01*
X81732238Y-73422380D01*
X80970333Y-73517619D02*
X80208428Y-73517619D01*
X79446523Y-73422380D02*
X80017952Y-73422380D01*
X79732238Y-73422380D02*
X79732238Y-72422380D01*
X79827476Y-72565238D01*
X79922714Y-72660476D01*
X80017952Y-72708095D01*
X78875095Y-72850952D02*
X78970333Y-72803333D01*
X79017952Y-72755714D01*
X79065571Y-72660476D01*
X79065571Y-72612857D01*
X79017952Y-72517619D01*
X78970333Y-72470000D01*
X78875095Y-72422380D01*
X78684619Y-72422380D01*
X78589380Y-72470000D01*
X78541761Y-72517619D01*
X78494142Y-72612857D01*
X78494142Y-72660476D01*
X78541761Y-72755714D01*
X78589380Y-72803333D01*
X78684619Y-72850952D01*
X78875095Y-72850952D01*
X78970333Y-72898571D01*
X79017952Y-72946190D01*
X79065571Y-73041428D01*
X79065571Y-73231904D01*
X79017952Y-73327142D01*
X78970333Y-73374761D01*
X78875095Y-73422380D01*
X78684619Y-73422380D01*
X78589380Y-73374761D01*
X78541761Y-73327142D01*
X78494142Y-73231904D01*
X78494142Y-73041428D01*
X78541761Y-72946190D01*
X78589380Y-72898571D01*
X78684619Y-72850952D01*
X62682238Y-73422380D02*
X62682238Y-72422380D01*
X62444142Y-72422380D01*
X62301285Y-72470000D01*
X62206047Y-72565238D01*
X62158428Y-72660476D01*
X62110809Y-72850952D01*
X62110809Y-72993809D01*
X62158428Y-73184285D01*
X62206047Y-73279523D01*
X62301285Y-73374761D01*
X62444142Y-73422380D01*
X62682238Y-73422380D01*
X61920333Y-73517619D02*
X61158428Y-73517619D01*
X60396523Y-73422380D02*
X60967952Y-73422380D01*
X60682238Y-73422380D02*
X60682238Y-72422380D01*
X60777476Y-72565238D01*
X60872714Y-72660476D01*
X60967952Y-72708095D01*
X60063190Y-72422380D02*
X59396523Y-72422380D01*
X59825095Y-73422380D01*
X38806238Y-73422380D02*
X38806238Y-72422380D01*
X38568142Y-72422380D01*
X38425285Y-72470000D01*
X38330047Y-72565238D01*
X38282428Y-72660476D01*
X38234809Y-72850952D01*
X38234809Y-72993809D01*
X38282428Y-73184285D01*
X38330047Y-73279523D01*
X38425285Y-73374761D01*
X38568142Y-73422380D01*
X38806238Y-73422380D01*
X38044333Y-73517619D02*
X37282428Y-73517619D01*
X36520523Y-73422380D02*
X37091952Y-73422380D01*
X36806238Y-73422380D02*
X36806238Y-72422380D01*
X36901476Y-72565238D01*
X36996714Y-72660476D01*
X37091952Y-72708095D01*
X35663380Y-72422380D02*
X35853857Y-72422380D01*
X35949095Y-72470000D01*
X35996714Y-72517619D01*
X36091952Y-72660476D01*
X36139571Y-72850952D01*
X36139571Y-73231904D01*
X36091952Y-73327142D01*
X36044333Y-73374761D01*
X35949095Y-73422380D01*
X35758619Y-73422380D01*
X35663380Y-73374761D01*
X35615761Y-73327142D01*
X35568142Y-73231904D01*
X35568142Y-72993809D01*
X35615761Y-72898571D01*
X35663380Y-72850952D01*
X35758619Y-72803333D01*
X35949095Y-72803333D01*
X36044333Y-72850952D01*
X36091952Y-72898571D01*
X36139571Y-72993809D01*
X343733238Y-54372380D02*
X343733238Y-53372380D01*
X343495142Y-53372380D01*
X343352285Y-53420000D01*
X343257047Y-53515238D01*
X343209428Y-53610476D01*
X343161809Y-53800952D01*
X343161809Y-53943809D01*
X343209428Y-54134285D01*
X343257047Y-54229523D01*
X343352285Y-54324761D01*
X343495142Y-54372380D01*
X343733238Y-54372380D01*
X342971333Y-54467619D02*
X342209428Y-54467619D01*
X341447523Y-54372380D02*
X342018952Y-54372380D01*
X341733238Y-54372380D02*
X341733238Y-53372380D01*
X341828476Y-53515238D01*
X341923714Y-53610476D01*
X342018952Y-53658095D01*
X340542761Y-53372380D02*
X341018952Y-53372380D01*
X341066571Y-53848571D01*
X341018952Y-53800952D01*
X340923714Y-53753333D01*
X340685619Y-53753333D01*
X340590380Y-53800952D01*
X340542761Y-53848571D01*
X340495142Y-53943809D01*
X340495142Y-54181904D01*
X340542761Y-54277142D01*
X340590380Y-54324761D01*
X340685619Y-54372380D01*
X340923714Y-54372380D01*
X341018952Y-54324761D01*
X341066571Y-54277142D01*
X324683238Y-54372380D02*
X324683238Y-53372380D01*
X324445142Y-53372380D01*
X324302285Y-53420000D01*
X324207047Y-53515238D01*
X324159428Y-53610476D01*
X324111809Y-53800952D01*
X324111809Y-53943809D01*
X324159428Y-54134285D01*
X324207047Y-54229523D01*
X324302285Y-54324761D01*
X324445142Y-54372380D01*
X324683238Y-54372380D01*
X323921333Y-54467619D02*
X323159428Y-54467619D01*
X322397523Y-54372380D02*
X322968952Y-54372380D01*
X322683238Y-54372380D02*
X322683238Y-53372380D01*
X322778476Y-53515238D01*
X322873714Y-53610476D01*
X322968952Y-53658095D01*
X321540380Y-53705714D02*
X321540380Y-54372380D01*
X321778476Y-53324761D02*
X322016571Y-54039047D01*
X321397523Y-54039047D01*
X291282238Y-54372380D02*
X291282238Y-53372380D01*
X291044142Y-53372380D01*
X290901285Y-53420000D01*
X290806047Y-53515238D01*
X290758428Y-53610476D01*
X290710809Y-53800952D01*
X290710809Y-53943809D01*
X290758428Y-54134285D01*
X290806047Y-54229523D01*
X290901285Y-54324761D01*
X291044142Y-54372380D01*
X291282238Y-54372380D01*
X290520333Y-54467619D02*
X289758428Y-54467619D01*
X288996523Y-54372380D02*
X289567952Y-54372380D01*
X289282238Y-54372380D02*
X289282238Y-53372380D01*
X289377476Y-53515238D01*
X289472714Y-53610476D01*
X289567952Y-53658095D01*
X288663190Y-53372380D02*
X288044142Y-53372380D01*
X288377476Y-53753333D01*
X288234619Y-53753333D01*
X288139380Y-53800952D01*
X288091761Y-53848571D01*
X288044142Y-53943809D01*
X288044142Y-54181904D01*
X288091761Y-54277142D01*
X288139380Y-54324761D01*
X288234619Y-54372380D01*
X288520333Y-54372380D01*
X288615571Y-54324761D01*
X288663190Y-54277142D01*
X262707238Y-54372380D02*
X262707238Y-53372380D01*
X262469142Y-53372380D01*
X262326285Y-53420000D01*
X262231047Y-53515238D01*
X262183428Y-53610476D01*
X262135809Y-53800952D01*
X262135809Y-53943809D01*
X262183428Y-54134285D01*
X262231047Y-54229523D01*
X262326285Y-54324761D01*
X262469142Y-54372380D01*
X262707238Y-54372380D01*
X261945333Y-54467619D02*
X261183428Y-54467619D01*
X260421523Y-54372380D02*
X260992952Y-54372380D01*
X260707238Y-54372380D02*
X260707238Y-53372380D01*
X260802476Y-53515238D01*
X260897714Y-53610476D01*
X260992952Y-53658095D01*
X260040571Y-53467619D02*
X259992952Y-53420000D01*
X259897714Y-53372380D01*
X259659619Y-53372380D01*
X259564380Y-53420000D01*
X259516761Y-53467619D01*
X259469142Y-53562857D01*
X259469142Y-53658095D01*
X259516761Y-53800952D01*
X260088190Y-54372380D01*
X259469142Y-54372380D01*
X243657238Y-54372380D02*
X243657238Y-53372380D01*
X243419142Y-53372380D01*
X243276285Y-53420000D01*
X243181047Y-53515238D01*
X243133428Y-53610476D01*
X243085809Y-53800952D01*
X243085809Y-53943809D01*
X243133428Y-54134285D01*
X243181047Y-54229523D01*
X243276285Y-54324761D01*
X243419142Y-54372380D01*
X243657238Y-54372380D01*
X242895333Y-54467619D02*
X242133428Y-54467619D01*
X241371523Y-54372380D02*
X241942952Y-54372380D01*
X241657238Y-54372380D02*
X241657238Y-53372380D01*
X241752476Y-53515238D01*
X241847714Y-53610476D01*
X241942952Y-53658095D01*
X240419142Y-54372380D02*
X240990571Y-54372380D01*
X240704857Y-54372380D02*
X240704857Y-53372380D01*
X240800095Y-53515238D01*
X240895333Y-53610476D01*
X240990571Y-53658095D01*
X224607238Y-54372380D02*
X224607238Y-53372380D01*
X224369142Y-53372380D01*
X224226285Y-53420000D01*
X224131047Y-53515238D01*
X224083428Y-53610476D01*
X224035809Y-53800952D01*
X224035809Y-53943809D01*
X224083428Y-54134285D01*
X224131047Y-54229523D01*
X224226285Y-54324761D01*
X224369142Y-54372380D01*
X224607238Y-54372380D01*
X223845333Y-54467619D02*
X223083428Y-54467619D01*
X222321523Y-54372380D02*
X222892952Y-54372380D01*
X222607238Y-54372380D02*
X222607238Y-53372380D01*
X222702476Y-53515238D01*
X222797714Y-53610476D01*
X222892952Y-53658095D01*
X221702476Y-53372380D02*
X221607238Y-53372380D01*
X221512000Y-53420000D01*
X221464380Y-53467619D01*
X221416761Y-53562857D01*
X221369142Y-53753333D01*
X221369142Y-53991428D01*
X221416761Y-54181904D01*
X221464380Y-54277142D01*
X221512000Y-54324761D01*
X221607238Y-54372380D01*
X221702476Y-54372380D01*
X221797714Y-54324761D01*
X221845333Y-54277142D01*
X221892952Y-54181904D01*
X221940571Y-53991428D01*
X221940571Y-53753333D01*
X221892952Y-53562857D01*
X221845333Y-53467619D01*
X221797714Y-53420000D01*
X221702476Y-53372380D01*
X205081047Y-54372380D02*
X205081047Y-53372380D01*
X204842952Y-53372380D01*
X204700095Y-53420000D01*
X204604857Y-53515238D01*
X204557238Y-53610476D01*
X204509619Y-53800952D01*
X204509619Y-53943809D01*
X204557238Y-54134285D01*
X204604857Y-54229523D01*
X204700095Y-54324761D01*
X204842952Y-54372380D01*
X205081047Y-54372380D01*
X204319142Y-54467619D02*
X203557238Y-54467619D01*
X203271523Y-54372380D02*
X203081047Y-54372380D01*
X202985809Y-54324761D01*
X202938190Y-54277142D01*
X202842952Y-54134285D01*
X202795333Y-53943809D01*
X202795333Y-53562857D01*
X202842952Y-53467619D01*
X202890571Y-53420000D01*
X202985809Y-53372380D01*
X203176285Y-53372380D01*
X203271523Y-53420000D01*
X203319142Y-53467619D01*
X203366761Y-53562857D01*
X203366761Y-53800952D01*
X203319142Y-53896190D01*
X203271523Y-53943809D01*
X203176285Y-53991428D01*
X202985809Y-53991428D01*
X202890571Y-53943809D01*
X202842952Y-53896190D01*
X202795333Y-53800952D01*
X186031047Y-54372380D02*
X186031047Y-53372380D01*
X185792952Y-53372380D01*
X185650095Y-53420000D01*
X185554857Y-53515238D01*
X185507238Y-53610476D01*
X185459619Y-53800952D01*
X185459619Y-53943809D01*
X185507238Y-54134285D01*
X185554857Y-54229523D01*
X185650095Y-54324761D01*
X185792952Y-54372380D01*
X186031047Y-54372380D01*
X185269142Y-54467619D02*
X184507238Y-54467619D01*
X184126285Y-53800952D02*
X184221523Y-53753333D01*
X184269142Y-53705714D01*
X184316761Y-53610476D01*
X184316761Y-53562857D01*
X184269142Y-53467619D01*
X184221523Y-53420000D01*
X184126285Y-53372380D01*
X183935809Y-53372380D01*
X183840571Y-53420000D01*
X183792952Y-53467619D01*
X183745333Y-53562857D01*
X183745333Y-53610476D01*
X183792952Y-53705714D01*
X183840571Y-53753333D01*
X183935809Y-53800952D01*
X184126285Y-53800952D01*
X184221523Y-53848571D01*
X184269142Y-53896190D01*
X184316761Y-53991428D01*
X184316761Y-54181904D01*
X184269142Y-54277142D01*
X184221523Y-54324761D01*
X184126285Y-54372380D01*
X183935809Y-54372380D01*
X183840571Y-54324761D01*
X183792952Y-54277142D01*
X183745333Y-54181904D01*
X183745333Y-53991428D01*
X183792952Y-53896190D01*
X183840571Y-53848571D01*
X183935809Y-53800952D01*
X166981047Y-54372380D02*
X166981047Y-53372380D01*
X166742952Y-53372380D01*
X166600095Y-53420000D01*
X166504857Y-53515238D01*
X166457238Y-53610476D01*
X166409619Y-53800952D01*
X166409619Y-53943809D01*
X166457238Y-54134285D01*
X166504857Y-54229523D01*
X166600095Y-54324761D01*
X166742952Y-54372380D01*
X166981047Y-54372380D01*
X166219142Y-54467619D02*
X165457238Y-54467619D01*
X165314380Y-53372380D02*
X164647714Y-53372380D01*
X165076285Y-54372380D01*
X147931047Y-54372380D02*
X147931047Y-53372380D01*
X147692952Y-53372380D01*
X147550095Y-53420000D01*
X147454857Y-53515238D01*
X147407238Y-53610476D01*
X147359619Y-53800952D01*
X147359619Y-53943809D01*
X147407238Y-54134285D01*
X147454857Y-54229523D01*
X147550095Y-54324761D01*
X147692952Y-54372380D01*
X147931047Y-54372380D01*
X147169142Y-54467619D02*
X146407238Y-54467619D01*
X145740571Y-53372380D02*
X145931047Y-53372380D01*
X146026285Y-53420000D01*
X146073904Y-53467619D01*
X146169142Y-53610476D01*
X146216761Y-53800952D01*
X146216761Y-54181904D01*
X146169142Y-54277142D01*
X146121523Y-54324761D01*
X146026285Y-54372380D01*
X145835809Y-54372380D01*
X145740571Y-54324761D01*
X145692952Y-54277142D01*
X145645333Y-54181904D01*
X145645333Y-53943809D01*
X145692952Y-53848571D01*
X145740571Y-53800952D01*
X145835809Y-53753333D01*
X146026285Y-53753333D01*
X146121523Y-53800952D01*
X146169142Y-53848571D01*
X146216761Y-53943809D01*
X128881047Y-54372380D02*
X128881047Y-53372380D01*
X128642952Y-53372380D01*
X128500095Y-53420000D01*
X128404857Y-53515238D01*
X128357238Y-53610476D01*
X128309619Y-53800952D01*
X128309619Y-53943809D01*
X128357238Y-54134285D01*
X128404857Y-54229523D01*
X128500095Y-54324761D01*
X128642952Y-54372380D01*
X128881047Y-54372380D01*
X128119142Y-54467619D02*
X127357238Y-54467619D01*
X126642952Y-53372380D02*
X127119142Y-53372380D01*
X127166761Y-53848571D01*
X127119142Y-53800952D01*
X127023904Y-53753333D01*
X126785809Y-53753333D01*
X126690571Y-53800952D01*
X126642952Y-53848571D01*
X126595333Y-53943809D01*
X126595333Y-54181904D01*
X126642952Y-54277142D01*
X126690571Y-54324761D01*
X126785809Y-54372380D01*
X127023904Y-54372380D01*
X127119142Y-54324761D01*
X127166761Y-54277142D01*
X109831047Y-54372380D02*
X109831047Y-53372380D01*
X109592952Y-53372380D01*
X109450095Y-53420000D01*
X109354857Y-53515238D01*
X109307238Y-53610476D01*
X109259619Y-53800952D01*
X109259619Y-53943809D01*
X109307238Y-54134285D01*
X109354857Y-54229523D01*
X109450095Y-54324761D01*
X109592952Y-54372380D01*
X109831047Y-54372380D01*
X109069142Y-54467619D02*
X108307238Y-54467619D01*
X107640571Y-53705714D02*
X107640571Y-54372380D01*
X107878666Y-53324761D02*
X108116761Y-54039047D01*
X107497714Y-54039047D01*
X90781047Y-54372380D02*
X90781047Y-53372380D01*
X90542952Y-53372380D01*
X90400095Y-53420000D01*
X90304857Y-53515238D01*
X90257238Y-53610476D01*
X90209619Y-53800952D01*
X90209619Y-53943809D01*
X90257238Y-54134285D01*
X90304857Y-54229523D01*
X90400095Y-54324761D01*
X90542952Y-54372380D01*
X90781047Y-54372380D01*
X90019142Y-54467619D02*
X89257238Y-54467619D01*
X89114380Y-53372380D02*
X88495333Y-53372380D01*
X88828666Y-53753333D01*
X88685809Y-53753333D01*
X88590571Y-53800952D01*
X88542952Y-53848571D01*
X88495333Y-53943809D01*
X88495333Y-54181904D01*
X88542952Y-54277142D01*
X88590571Y-54324761D01*
X88685809Y-54372380D01*
X88971523Y-54372380D01*
X89066761Y-54324761D01*
X89114380Y-54277142D01*
X71731047Y-54372380D02*
X71731047Y-53372380D01*
X71492952Y-53372380D01*
X71350095Y-53420000D01*
X71254857Y-53515238D01*
X71207238Y-53610476D01*
X71159619Y-53800952D01*
X71159619Y-53943809D01*
X71207238Y-54134285D01*
X71254857Y-54229523D01*
X71350095Y-54324761D01*
X71492952Y-54372380D01*
X71731047Y-54372380D01*
X70969142Y-54467619D02*
X70207238Y-54467619D01*
X70016761Y-53467619D02*
X69969142Y-53420000D01*
X69873904Y-53372380D01*
X69635809Y-53372380D01*
X69540571Y-53420000D01*
X69492952Y-53467619D01*
X69445333Y-53562857D01*
X69445333Y-53658095D01*
X69492952Y-53800952D01*
X70064380Y-54372380D01*
X69445333Y-54372380D01*
X52681047Y-54372380D02*
X52681047Y-53372380D01*
X52442952Y-53372380D01*
X52300095Y-53420000D01*
X52204857Y-53515238D01*
X52157238Y-53610476D01*
X52109619Y-53800952D01*
X52109619Y-53943809D01*
X52157238Y-54134285D01*
X52204857Y-54229523D01*
X52300095Y-54324761D01*
X52442952Y-54372380D01*
X52681047Y-54372380D01*
X51919142Y-54467619D02*
X51157238Y-54467619D01*
X50395333Y-54372380D02*
X50966761Y-54372380D01*
X50681047Y-54372380D02*
X50681047Y-53372380D01*
X50776285Y-53515238D01*
X50871523Y-53610476D01*
X50966761Y-53658095D01*
X33631047Y-54372380D02*
X33631047Y-53372380D01*
X33392952Y-53372380D01*
X33250095Y-53420000D01*
X33154857Y-53515238D01*
X33107238Y-53610476D01*
X33059619Y-53800952D01*
X33059619Y-53943809D01*
X33107238Y-54134285D01*
X33154857Y-54229523D01*
X33250095Y-54324761D01*
X33392952Y-54372380D01*
X33631047Y-54372380D01*
X32869142Y-54467619D02*
X32107238Y-54467619D01*
X31678666Y-53372380D02*
X31583428Y-53372380D01*
X31488190Y-53420000D01*
X31440571Y-53467619D01*
X31392952Y-53562857D01*
X31345333Y-53753333D01*
X31345333Y-53991428D01*
X31392952Y-54181904D01*
X31440571Y-54277142D01*
X31488190Y-54324761D01*
X31583428Y-54372380D01*
X31678666Y-54372380D01*
X31773904Y-54324761D01*
X31821523Y-54277142D01*
X31869142Y-54181904D01*
X31916761Y-53991428D01*
X31916761Y-53753333D01*
X31869142Y-53562857D01*
X31821523Y-53467619D01*
X31773904Y-53420000D01*
X31678666Y-53372380D01*
D12*
X339724904Y-105461571D02*
X339748714Y-105485380D01*
X339820142Y-105509190D01*
X339867761Y-105509190D01*
X339939190Y-105485380D01*
X339986809Y-105437761D01*
X340010619Y-105390142D01*
X340034428Y-105294904D01*
X340034428Y-105223476D01*
X340010619Y-105128238D01*
X339986809Y-105080619D01*
X339939190Y-105033000D01*
X339867761Y-105009190D01*
X339820142Y-105009190D01*
X339748714Y-105033000D01*
X339724904Y-105056809D01*
X339224904Y-105509190D02*
X339391571Y-105271095D01*
X339510619Y-105509190D02*
X339510619Y-105009190D01*
X339320142Y-105009190D01*
X339272523Y-105033000D01*
X339248714Y-105056809D01*
X339224904Y-105104428D01*
X339224904Y-105175857D01*
X339248714Y-105223476D01*
X339272523Y-105247285D01*
X339320142Y-105271095D01*
X339510619Y-105271095D01*
X339034428Y-105485380D02*
X338963000Y-105509190D01*
X338843952Y-105509190D01*
X338796333Y-105485380D01*
X338772523Y-105461571D01*
X338748714Y-105413952D01*
X338748714Y-105366333D01*
X338772523Y-105318714D01*
X338796333Y-105294904D01*
X338843952Y-105271095D01*
X338939190Y-105247285D01*
X338986809Y-105223476D01*
X339010619Y-105199666D01*
X339034428Y-105152047D01*
X339034428Y-105104428D01*
X339010619Y-105056809D01*
X338986809Y-105033000D01*
X338939190Y-105009190D01*
X338820142Y-105009190D01*
X338748714Y-105033000D01*
X338605857Y-105009190D02*
X338320142Y-105009190D01*
X338463000Y-105509190D02*
X338463000Y-105009190D01*
X337891571Y-105509190D02*
X338177285Y-105509190D01*
X338034428Y-105509190D02*
X338034428Y-105009190D01*
X338082047Y-105080619D01*
X338129666Y-105128238D01*
X338177285Y-105152047D01*
X317226971Y-95521566D02*
X317260643Y-95521566D01*
X317327986Y-95487895D01*
X317361658Y-95454223D01*
X317395330Y-95386879D01*
X317395330Y-95319536D01*
X317378494Y-95269028D01*
X317327986Y-95184849D01*
X317277478Y-95134341D01*
X317193299Y-95083834D01*
X317142791Y-95066998D01*
X317075448Y-95066998D01*
X317008104Y-95100669D01*
X316974433Y-95134341D01*
X316940761Y-95201685D01*
X316940761Y-95235356D01*
X316806074Y-95639417D02*
X316772402Y-95706761D01*
X316772402Y-95740433D01*
X316789238Y-95790940D01*
X316839746Y-95841448D01*
X316890253Y-95858284D01*
X316923925Y-95858284D01*
X316974433Y-95841448D01*
X317109120Y-95706761D01*
X316755566Y-95353208D01*
X316637715Y-95471059D01*
X316620879Y-95521566D01*
X316620879Y-95555238D01*
X316637715Y-95605746D01*
X316671387Y-95639417D01*
X316721895Y-95656253D01*
X316755566Y-95656253D01*
X316806074Y-95639417D01*
X316923925Y-95521566D01*
X316503028Y-95908791D02*
X316519864Y-95858284D01*
X316519864Y-95824612D01*
X316503028Y-95774104D01*
X316486192Y-95757269D01*
X316435685Y-95740433D01*
X316402013Y-95740433D01*
X316351505Y-95757269D01*
X316284162Y-95824612D01*
X316267326Y-95875120D01*
X316267326Y-95908791D01*
X316284162Y-95959299D01*
X316300998Y-95976135D01*
X316351505Y-95992971D01*
X316385177Y-95992971D01*
X316435685Y-95976135D01*
X316503028Y-95908791D01*
X316553536Y-95891956D01*
X316587208Y-95891956D01*
X316637715Y-95908791D01*
X316705059Y-95976135D01*
X316721895Y-96026643D01*
X316721895Y-96060314D01*
X316705059Y-96110822D01*
X316637715Y-96178165D01*
X316587208Y-96195001D01*
X316553536Y-96195001D01*
X316503028Y-96178165D01*
X316435685Y-96110822D01*
X316418849Y-96060314D01*
X316418849Y-96026643D01*
X316435685Y-95976135D01*
X316464971Y-94759566D02*
X316498643Y-94759566D01*
X316565986Y-94725895D01*
X316599658Y-94692223D01*
X316633330Y-94624879D01*
X316633330Y-94557536D01*
X316616494Y-94507028D01*
X316565986Y-94422849D01*
X316515478Y-94372341D01*
X316431299Y-94321834D01*
X316380791Y-94304998D01*
X316313448Y-94304998D01*
X316246104Y-94338669D01*
X316212433Y-94372341D01*
X316178761Y-94439685D01*
X316178761Y-94473356D01*
X316044074Y-94877417D02*
X316010402Y-94944761D01*
X316010402Y-94978433D01*
X316027238Y-95028940D01*
X316077746Y-95079448D01*
X316128253Y-95096284D01*
X316161925Y-95096284D01*
X316212433Y-95079448D01*
X316347120Y-94944761D01*
X315993566Y-94591208D01*
X315875715Y-94709059D01*
X315858879Y-94759566D01*
X315858879Y-94793238D01*
X315875715Y-94843746D01*
X315909387Y-94877417D01*
X315959895Y-94894253D01*
X315993566Y-94894253D01*
X316044074Y-94877417D01*
X316161925Y-94759566D01*
X315673685Y-94911089D02*
X315437982Y-95146791D01*
X315943059Y-95348822D01*
X326723333Y-106223571D02*
X326747142Y-106247380D01*
X326818571Y-106271190D01*
X326866190Y-106271190D01*
X326937619Y-106247380D01*
X326985238Y-106199761D01*
X327009047Y-106152142D01*
X327032857Y-106056904D01*
X327032857Y-105985476D01*
X327009047Y-105890238D01*
X326985238Y-105842619D01*
X326937619Y-105795000D01*
X326866190Y-105771190D01*
X326818571Y-105771190D01*
X326747142Y-105795000D01*
X326723333Y-105818809D01*
X326342380Y-106009285D02*
X326270952Y-106033095D01*
X326247142Y-106056904D01*
X326223333Y-106104523D01*
X326223333Y-106175952D01*
X326247142Y-106223571D01*
X326270952Y-106247380D01*
X326318571Y-106271190D01*
X326509047Y-106271190D01*
X326509047Y-105771190D01*
X326342380Y-105771190D01*
X326294761Y-105795000D01*
X326270952Y-105818809D01*
X326247142Y-105866428D01*
X326247142Y-105914047D01*
X326270952Y-105961666D01*
X326294761Y-105985476D01*
X326342380Y-106009285D01*
X326509047Y-106009285D01*
X325794761Y-105771190D02*
X325890000Y-105771190D01*
X325937619Y-105795000D01*
X325961428Y-105818809D01*
X326009047Y-105890238D01*
X326032857Y-105985476D01*
X326032857Y-106175952D01*
X326009047Y-106223571D01*
X325985238Y-106247380D01*
X325937619Y-106271190D01*
X325842380Y-106271190D01*
X325794761Y-106247380D01*
X325770952Y-106223571D01*
X325747142Y-106175952D01*
X325747142Y-106056904D01*
X325770952Y-106009285D01*
X325794761Y-105985476D01*
X325842380Y-105961666D01*
X325937619Y-105961666D01*
X325985238Y-105985476D01*
X326009047Y-106009285D01*
X326032857Y-106056904D01*
X326723333Y-107366571D02*
X326747142Y-107390380D01*
X326818571Y-107414190D01*
X326866190Y-107414190D01*
X326937619Y-107390380D01*
X326985238Y-107342761D01*
X327009047Y-107295142D01*
X327032857Y-107199904D01*
X327032857Y-107128476D01*
X327009047Y-107033238D01*
X326985238Y-106985619D01*
X326937619Y-106938000D01*
X326866190Y-106914190D01*
X326818571Y-106914190D01*
X326747142Y-106938000D01*
X326723333Y-106961809D01*
X326342380Y-107152285D02*
X326270952Y-107176095D01*
X326247142Y-107199904D01*
X326223333Y-107247523D01*
X326223333Y-107318952D01*
X326247142Y-107366571D01*
X326270952Y-107390380D01*
X326318571Y-107414190D01*
X326509047Y-107414190D01*
X326509047Y-106914190D01*
X326342380Y-106914190D01*
X326294761Y-106938000D01*
X326270952Y-106961809D01*
X326247142Y-107009428D01*
X326247142Y-107057047D01*
X326270952Y-107104666D01*
X326294761Y-107128476D01*
X326342380Y-107152285D01*
X326509047Y-107152285D01*
X325770952Y-106914190D02*
X326009047Y-106914190D01*
X326032857Y-107152285D01*
X326009047Y-107128476D01*
X325961428Y-107104666D01*
X325842380Y-107104666D01*
X325794761Y-107128476D01*
X325770952Y-107152285D01*
X325747142Y-107199904D01*
X325747142Y-107318952D01*
X325770952Y-107366571D01*
X325794761Y-107390380D01*
X325842380Y-107414190D01*
X325961428Y-107414190D01*
X326009047Y-107390380D01*
X326032857Y-107366571D01*
D10*
X329187142Y-101568333D02*
X329234761Y-101520714D01*
X329282380Y-101377857D01*
X329282380Y-101282619D01*
X329234761Y-101139761D01*
X329139523Y-101044523D01*
X329044285Y-100996904D01*
X328853809Y-100949285D01*
X328710952Y-100949285D01*
X328520476Y-100996904D01*
X328425238Y-101044523D01*
X328330000Y-101139761D01*
X328282380Y-101282619D01*
X328282380Y-101377857D01*
X328330000Y-101520714D01*
X328377619Y-101568333D01*
X328758571Y-102330238D02*
X328806190Y-102473095D01*
X328853809Y-102520714D01*
X328949047Y-102568333D01*
X329091904Y-102568333D01*
X329187142Y-102520714D01*
X329234761Y-102473095D01*
X329282380Y-102377857D01*
X329282380Y-101996904D01*
X328282380Y-101996904D01*
X328282380Y-102330238D01*
X328330000Y-102425476D01*
X328377619Y-102473095D01*
X328472857Y-102520714D01*
X328568095Y-102520714D01*
X328663333Y-102473095D01*
X328710952Y-102425476D01*
X328758571Y-102330238D01*
X328758571Y-101996904D01*
X328615714Y-103425476D02*
X329282380Y-103425476D01*
X328234761Y-103187380D02*
X328949047Y-102949285D01*
X328949047Y-103568333D01*
D12*
X311610333Y-102540571D02*
X311634142Y-102564380D01*
X311705571Y-102588190D01*
X311753190Y-102588190D01*
X311824619Y-102564380D01*
X311872238Y-102516761D01*
X311896047Y-102469142D01*
X311919857Y-102373904D01*
X311919857Y-102302476D01*
X311896047Y-102207238D01*
X311872238Y-102159619D01*
X311824619Y-102112000D01*
X311753190Y-102088190D01*
X311705571Y-102088190D01*
X311634142Y-102112000D01*
X311610333Y-102135809D01*
X311229380Y-102326285D02*
X311157952Y-102350095D01*
X311134142Y-102373904D01*
X311110333Y-102421523D01*
X311110333Y-102492952D01*
X311134142Y-102540571D01*
X311157952Y-102564380D01*
X311205571Y-102588190D01*
X311396047Y-102588190D01*
X311396047Y-102088190D01*
X311229380Y-102088190D01*
X311181761Y-102112000D01*
X311157952Y-102135809D01*
X311134142Y-102183428D01*
X311134142Y-102231047D01*
X311157952Y-102278666D01*
X311181761Y-102302476D01*
X311229380Y-102326285D01*
X311396047Y-102326285D01*
X310943666Y-102088190D02*
X310634142Y-102088190D01*
X310800809Y-102278666D01*
X310729380Y-102278666D01*
X310681761Y-102302476D01*
X310657952Y-102326285D01*
X310634142Y-102373904D01*
X310634142Y-102492952D01*
X310657952Y-102540571D01*
X310681761Y-102564380D01*
X310729380Y-102588190D01*
X310872238Y-102588190D01*
X310919857Y-102564380D01*
X310943666Y-102540571D01*
X311610333Y-101397571D02*
X311634142Y-101421380D01*
X311705571Y-101445190D01*
X311753190Y-101445190D01*
X311824619Y-101421380D01*
X311872238Y-101373761D01*
X311896047Y-101326142D01*
X311919857Y-101230904D01*
X311919857Y-101159476D01*
X311896047Y-101064238D01*
X311872238Y-101016619D01*
X311824619Y-100969000D01*
X311753190Y-100945190D01*
X311705571Y-100945190D01*
X311634142Y-100969000D01*
X311610333Y-100992809D01*
X311229380Y-101183285D02*
X311157952Y-101207095D01*
X311134142Y-101230904D01*
X311110333Y-101278523D01*
X311110333Y-101349952D01*
X311134142Y-101397571D01*
X311157952Y-101421380D01*
X311205571Y-101445190D01*
X311396047Y-101445190D01*
X311396047Y-100945190D01*
X311229380Y-100945190D01*
X311181761Y-100969000D01*
X311157952Y-100992809D01*
X311134142Y-101040428D01*
X311134142Y-101088047D01*
X311157952Y-101135666D01*
X311181761Y-101159476D01*
X311229380Y-101183285D01*
X311396047Y-101183285D01*
X310919857Y-100992809D02*
X310896047Y-100969000D01*
X310848428Y-100945190D01*
X310729380Y-100945190D01*
X310681761Y-100969000D01*
X310657952Y-100992809D01*
X310634142Y-101040428D01*
X310634142Y-101088047D01*
X310657952Y-101159476D01*
X310943666Y-101445190D01*
X310634142Y-101445190D01*
D10*
X328898166Y-99634642D02*
X328945785Y-99682261D01*
X329088642Y-99729880D01*
X329183880Y-99729880D01*
X329326738Y-99682261D01*
X329421976Y-99587023D01*
X329469595Y-99491785D01*
X329517214Y-99301309D01*
X329517214Y-99158452D01*
X329469595Y-98967976D01*
X329421976Y-98872738D01*
X329326738Y-98777500D01*
X329183880Y-98729880D01*
X329088642Y-98729880D01*
X328945785Y-98777500D01*
X328898166Y-98825119D01*
X328136261Y-99206071D02*
X327993404Y-99253690D01*
X327945785Y-99301309D01*
X327898166Y-99396547D01*
X327898166Y-99539404D01*
X327945785Y-99634642D01*
X327993404Y-99682261D01*
X328088642Y-99729880D01*
X328469595Y-99729880D01*
X328469595Y-98729880D01*
X328136261Y-98729880D01*
X328041023Y-98777500D01*
X327993404Y-98825119D01*
X327945785Y-98920357D01*
X327945785Y-99015595D01*
X327993404Y-99110833D01*
X328041023Y-99158452D01*
X328136261Y-99206071D01*
X328469595Y-99206071D01*
X326945785Y-99729880D02*
X327517214Y-99729880D01*
X327231500Y-99729880D02*
X327231500Y-98729880D01*
X327326738Y-98872738D01*
X327421976Y-98967976D01*
X327517214Y-99015595D01*
M02*
