M48
; DRILL file {KiCad (5.1.4)-1} date 7/2/2020 10:20:58 PM
; FORMAT={-:-/ absolute / inch / decimal}
; #@! TF.CreationDate,2020-07-02T22:20:58-04:00
; #@! TF.GenerationSoftware,Kicad,Pcbnew,(5.1.4)-1
; #@! TF.FileFunction,Plated,1,2,PTH
FMAT,2
INCH
T1C0.0118
T2C0.0157
T3C0.0236
T4C0.0400
T5C0.0409
T6C0.0579
%
G90
G05
T1
X12.62Y-3.83
X12.725Y-3.73
X12.725Y-3.945
X12.78Y-3.805
X13.115Y-3.92
X13.2Y-3.755
X13.2Y-3.8026
X13.23Y-3.731
X13.23Y-3.78
X13.323Y-3.9904
X13.35Y-3.985
X13.409Y-3.731
X13.41Y-3.8026
X13.73Y-4.115
T2
X1.11Y-2.665
X1.11Y-5.43
X1.1616Y-2.5334
X1.195Y-3.2
X1.265Y-3.95
X1.305Y-4.7
X1.685Y-2.155
X1.6875Y-2.4475
X1.69Y-2.895
X1.735Y-3.38
X1.735Y-4.135
X1.735Y-4.865
X1.74Y-5.205
X1.74Y-5.535
X1.9125Y-2.562
X2.4375Y-2.45
X2.61Y-2.5797
X3.0375Y-3.2835
X3.1875Y-2.45
X3.565Y-3.2
X3.7875Y-3.3013
X3.9375Y-2.45
X4.31Y-3.205
X4.5375Y-3.319
X4.6875Y-2.45
X5.06Y-3.205
X5.2875Y-3.3367
X5.4375Y-2.45
X5.815Y-3.2
X6.0375Y-3.3544
X6.06Y-3.64
X6.09Y-4.07
X6.1875Y-2.45
X6.195Y-2.155
X6.275Y-4.84
X6.35Y-4.43
X6.395Y-2.895
X6.47Y-5.19
X6.565Y-3.195
X6.7875Y-3.3721
X6.9375Y-2.45
X7.31Y-3.205
X7.5375Y-3.3898
X7.6875Y-2.45
X8.065Y-3.2
X8.3372Y-3.4076
X8.4375Y-2.45
X8.815Y-3.2
X9.1875Y-2.45
X9.565Y-3.205
X9.6Y-4.8575
X9.9375Y-2.4475
X10.315Y-3.205
X10.45Y-4.95
X10.78Y-4.5
X10.79Y-2.225
X10.8175Y-4.9663
X10.8275Y-2.5425
X10.87Y-3.725
X11.02Y-3.47
X11.055Y-3.21
X11.115Y-5.525
X11.165Y-5.265
X11.245Y-5.025
X11.92Y-3.605
X11.94Y-4.984
X11.98Y-2.74
X12.065Y-1.99
X12.085Y-3.255
X12.14Y-3.94
X12.15Y-2.305
X12.375Y-5.035
X12.38Y-3.985
X12.435Y-3.255
X12.4823Y-2.305
X12.49Y-1.99
X12.53Y-2.74
X12.53Y-3.145
X12.58Y-3.7
X12.725Y-4.22
X12.87Y-3.52
X12.905Y-3.9
X12.935Y-4.075
X13.125Y-2.615
X13.125Y-2.95
X13.24Y-4.56
X13.545Y-4.665
X12.1607Y-1.9019
X12.1607Y-1.955
X12.1942Y-1.9019
X12.1942Y-1.955
X12.2277Y-1.9019
X12.2277Y-1.955
X12.2611Y-1.9019
X12.2611Y-1.955
X12.2946Y-1.9019
X12.2946Y-1.955
X12.3281Y-1.9019
X12.3281Y-1.955
X12.3615Y-1.9019
X12.3615Y-1.955
X12.395Y-1.9019
X12.395Y-1.955
T4
X13.645Y-3.785
X13.645Y-3.985
X13.655Y-3.885
X13.745Y-3.785
X13.745Y-3.985
X13.755Y-3.885
T5
X7.45Y-4.7
X7.55Y-4.7
X3.7Y-4.7
X3.8Y-4.7
X7.2625Y-2.45
X7.3625Y-2.45
X11.1062Y-4.7
X11.2062Y-4.7
X6.0438Y-5.45
X6.1437Y-5.45
X3.1375Y-3.2
X3.2375Y-3.2
X8.95Y-4.7
X9.05Y-4.7
X4.6375Y-3.2
X4.7375Y-3.2
X2.575Y-3.95
X2.675Y-3.95
X6.1375Y-3.2
X6.2375Y-3.2
X9.8875Y-3.2
X9.9875Y-3.2
X8.2Y-4.7
X8.3Y-4.7
X1.45Y-3.2
X1.55Y-3.2
X1.3562Y-5.45
X1.4563Y-5.45
X4.2625Y-2.45
X4.3625Y-2.45
X5.575Y-3.95
X5.675Y-3.95
X13.45Y-3.2
X13.55Y-3.2
X11.3875Y-2.45
X11.4875Y-2.45
X4.075Y-3.95
X4.175Y-3.95
X7.6375Y-3.2
X7.7375Y-3.2
X8.3875Y-3.2
X8.4875Y-3.2
X10.2625Y-2.45
X10.3625Y-2.45
X9.1375Y-3.2
X9.2375Y-3.2
X5.3875Y-3.2
X5.4875Y-3.2
X5.2Y-4.7
X5.3Y-4.7
X3.5125Y-2.45
X3.6125Y-2.45
X2.95Y-4.7
X3.05Y-4.7
X2.3875Y-3.2
X2.4875Y-3.2
X11.2937Y-3.95
X11.3937Y-3.95
X10.075Y-3.95
X10.175Y-3.95
X5.7625Y-2.45
X5.8625Y-2.45
X7.075Y-3.95
X7.175Y-3.95
X3.2312Y-5.45
X3.3312Y-5.45
X13.45Y-2.45
X13.55Y-2.45
X7.825Y-3.95
X7.925Y-3.95
X5.0125Y-2.45
X5.1125Y-2.45
X12.7Y-4.7
X12.8Y-4.7
X1.2625Y-2.45
X1.3625Y-2.45
X4.825Y-3.95
X4.925Y-3.95
X8.7625Y-2.45
X8.8625Y-2.45
X12.7Y-5.45
X12.8Y-5.45
X1.7312Y-4.7
X1.8313Y-4.7
X6.5125Y-2.45
X6.6125Y-2.45
X10.7312Y-5.45
X10.8312Y-5.45
X12.7Y-3.2
X12.8Y-3.2
X8.8562Y-5.45
X8.9562Y-5.45
X9.7Y-4.7
X9.8Y-4.7
X3.8875Y-3.2
X3.9875Y-3.2
X2.0125Y-2.45
X2.1125Y-2.45
X6.7Y-4.7
X6.8Y-4.7
X9.5125Y-2.45
X9.6125Y-2.45
X6.8875Y-3.2
X6.9875Y-3.2
X3.325Y-3.95
X3.425Y-3.95
X12.7Y-2.45
X12.8Y-2.45
X8.575Y-3.95
X8.675Y-3.95
X10.6375Y-3.2
X10.7375Y-3.2
X2.2937Y-5.45
X2.3937Y-5.45
X8.0125Y-2.45
X8.1125Y-2.45
X4.45Y-4.7
X4.55Y-4.7
X2.7625Y-2.45
X2.8625Y-2.45
X6.325Y-3.95
X6.425Y-3.95
X1.5437Y-3.95
X1.6438Y-3.95
X11.95Y-5.45
X12.05Y-5.45
X9.325Y-3.95
X9.425Y-3.95
X9.7937Y-5.45
X9.8937Y-5.45
X13.45Y-5.45
X13.55Y-5.45
X11.575Y-3.2
X11.675Y-3.2
X5.95Y-4.7
X6.05Y-4.7
T6
X7.35Y-4.4
X7.6Y-4.3
X3.6Y-4.4
X3.85Y-4.3
X7.1625Y-2.15
X7.4125Y-2.05
X11.0062Y-4.4
X11.2562Y-4.3
X5.9437Y-5.15
X6.1937Y-5.05
X3.0375Y-2.9
X3.2875Y-2.8
X8.85Y-4.4
X9.1Y-4.3
X4.5375Y-2.9
X4.7875Y-2.8
X2.475Y-3.65
X2.725Y-3.55
X6.0375Y-2.9
X6.2875Y-2.8
X9.7875Y-2.9
X10.0375Y-2.8
X8.1Y-4.4
X8.35Y-4.3
X1.35Y-2.9
X1.6Y-2.8
X1.2562Y-5.15
X1.5062Y-5.05
X4.1625Y-2.15
X4.4125Y-2.05
X5.475Y-3.65
X5.725Y-3.55
X13.35Y-2.9
X13.6Y-2.8
X11.2875Y-2.15
X11.5375Y-2.05
X3.975Y-3.65
X4.225Y-3.55
X7.5375Y-2.9
X7.7875Y-2.8
X8.2875Y-2.9
X8.5375Y-2.8
X10.1625Y-2.15
X10.4125Y-2.05
X9.0375Y-2.9
X9.2875Y-2.8
X5.2875Y-2.9
X5.5375Y-2.8
X5.1Y-4.4
X5.35Y-4.3
X3.4125Y-2.15
X3.6625Y-2.05
X2.85Y-4.4
X3.1Y-4.3
X2.2875Y-2.9
X2.5375Y-2.8
X11.1937Y-3.65
X11.4437Y-3.55
X9.975Y-3.65
X10.225Y-3.55
X5.6625Y-2.15
X5.9125Y-2.05
X6.975Y-3.65
X7.225Y-3.55
X3.1313Y-5.15
X3.3813Y-5.05
X13.35Y-2.15
X13.6Y-2.05
X7.725Y-3.65
X7.975Y-3.55
X4.9125Y-2.15
X5.1625Y-2.05
X12.6Y-4.4
X12.85Y-4.3
X1.1625Y-2.15
X1.4125Y-2.05
X4.725Y-3.65
X4.975Y-3.55
X8.6625Y-2.15
X8.9125Y-2.05
X12.6Y-5.15
X12.85Y-5.05
X1.6312Y-4.4
X1.8812Y-4.3
X6.4125Y-2.15
X6.6625Y-2.05
X10.6312Y-5.15
X10.8812Y-5.05
X12.6Y-2.9
X12.85Y-2.8
X8.7562Y-5.15
X9.0062Y-5.05
X9.6Y-4.4
X9.85Y-4.3
X3.7875Y-2.9
X4.0375Y-2.8
X1.9125Y-2.15
X2.1625Y-2.05
X6.6Y-4.4
X6.85Y-4.3
X9.4125Y-2.15
X9.6625Y-2.05
X6.7875Y-2.9
X7.0375Y-2.8
X3.225Y-3.65
X3.475Y-3.55
X12.6Y-2.15
X12.85Y-2.05
X8.475Y-3.65
X8.725Y-3.55
X10.5375Y-2.9
X10.7875Y-2.8
X2.1938Y-5.15
X2.4438Y-5.05
X7.9125Y-2.15
X8.1625Y-2.05
X4.35Y-4.4
X4.6Y-4.3
X2.6625Y-2.15
X2.9125Y-2.05
X6.225Y-3.65
X6.475Y-3.55
X1.4437Y-3.65
X1.6937Y-3.55
X11.85Y-5.15
X12.1Y-5.05
X9.225Y-3.65
X9.475Y-3.55
X9.6937Y-5.15
X9.9437Y-5.05
X13.35Y-5.15
X13.6Y-5.05
X11.475Y-2.9
X11.725Y-2.8
X5.85Y-4.4
X6.1Y-4.3
T3
G00X12.1076Y-1.7991
M15
G01X12.1076Y-1.7676
M16
G05
G00X12.1076Y-1.9459
M15
G01X12.1076Y-1.8869
M16
G05
G00X12.4481Y-1.7991
M15
G01X12.4481Y-1.7676
M16
G05
G00X12.4481Y-1.9459
M15
G01X12.4481Y-1.8869
M16
G05
T0
M30
