G04 #@! TF.GenerationSoftware,KiCad,Pcbnew,(5.1.4)-1*
G04 #@! TF.CreationDate,2020-07-02T23:01:46-04:00*
G04 #@! TF.ProjectId,soph68,736f7068-3638-42e6-9b69-6361645f7063,rev?*
G04 #@! TF.SameCoordinates,Original*
G04 #@! TF.FileFunction,Soldermask,Top*
G04 #@! TF.FilePolarity,Negative*
%FSLAX46Y46*%
G04 Gerber Fmt 4.6, Leading zero omitted, Abs format (unit mm)*
G04 Created by KiCad (PCBNEW (5.1.4)-1) date 2020-07-02 23:01:46*
%MOMM*%
%LPD*%
G04 APERTURE LIST*
%ADD10C,1.750000*%
%ADD11C,3.987800*%
%ADD12C,3.048000*%
%ADD13O,0.900000X1.700000*%
%ADD14O,0.900000X2.400000*%
%ADD15C,0.700000*%
%ADD16C,2.082800*%
G04 APERTURE END LIST*
D10*
X224155000Y-95250000D03*
X213995000Y-95250000D03*
D11*
X219075000Y-95250000D03*
D10*
X257492500Y-76200000D03*
X247332500Y-76200000D03*
D11*
X252412500Y-76200000D03*
D10*
X109855000Y-95250000D03*
X99695000Y-95250000D03*
D11*
X104775000Y-95250000D03*
X57181750Y-122555000D03*
X33305750Y-122555000D03*
D12*
X57181750Y-107315000D03*
X33305750Y-107315000D03*
D10*
X50323750Y-114300000D03*
X40163750Y-114300000D03*
D11*
X45243750Y-114300000D03*
D13*
X307533000Y-45297000D03*
X316183000Y-45297000D03*
D14*
X307533000Y-48677000D03*
X316183000Y-48677000D03*
D15*
X311433000Y-48307000D03*
X308883000Y-48307000D03*
X309733000Y-48307000D03*
X310583000Y-48307000D03*
X314833000Y-48307000D03*
X313133000Y-48307000D03*
X312283000Y-48307000D03*
X313983000Y-48307000D03*
X308883000Y-49657000D03*
X309733000Y-49657000D03*
X310583000Y-49657000D03*
X311433000Y-49657000D03*
X312283000Y-49657000D03*
X313133000Y-49657000D03*
X313983000Y-49657000D03*
X314833000Y-49657000D03*
D11*
X295306750Y-122555000D03*
X271430750Y-122555000D03*
D12*
X295306750Y-107315000D03*
X271430750Y-107315000D03*
D10*
X288448750Y-114300000D03*
X278288750Y-114300000D03*
D11*
X283368750Y-114300000D03*
X300069250Y-103505000D03*
X276193250Y-103505000D03*
D12*
X300069250Y-88265000D03*
X276193250Y-88265000D03*
D10*
X293211250Y-95250000D03*
X283051250Y-95250000D03*
D11*
X288131250Y-95250000D03*
D10*
X86042500Y-76200000D03*
X75882500Y-76200000D03*
D11*
X80962500Y-76200000D03*
D10*
X200342500Y-76200000D03*
X190182500Y-76200000D03*
D11*
X195262500Y-76200000D03*
D16*
X346583000Y-96139000D03*
X349123000Y-96139000D03*
X346837000Y-98679000D03*
X349377000Y-98679000D03*
X346583000Y-101219000D03*
X349123000Y-101219000D03*
D10*
X347980000Y-133350000D03*
X337820000Y-133350000D03*
D11*
X342900000Y-133350000D03*
D10*
X328930000Y-133350000D03*
X318770000Y-133350000D03*
D11*
X323850000Y-133350000D03*
D10*
X309880000Y-133350000D03*
X299720000Y-133350000D03*
D11*
X304800000Y-133350000D03*
D10*
X278923750Y-133350000D03*
X268763750Y-133350000D03*
D11*
X273843750Y-133350000D03*
D10*
X255111250Y-133350000D03*
X244951250Y-133350000D03*
D11*
X250031250Y-133350000D03*
D10*
X231298750Y-133350000D03*
X221138750Y-133350000D03*
D11*
X226218750Y-133350000D03*
X204781150Y-141605000D03*
X104781350Y-141605000D03*
D12*
X204781150Y-126365000D03*
X104781350Y-126365000D03*
D10*
X159861250Y-133350000D03*
X149701250Y-133350000D03*
D11*
X154781250Y-133350000D03*
D10*
X88423750Y-133350000D03*
X78263750Y-133350000D03*
D11*
X83343750Y-133350000D03*
D10*
X64611250Y-133350000D03*
X54451250Y-133350000D03*
D11*
X59531250Y-133350000D03*
D10*
X40798750Y-133350000D03*
X30638750Y-133350000D03*
D11*
X35718750Y-133350000D03*
D10*
X328930000Y-114300000D03*
X318770000Y-114300000D03*
D11*
X323850000Y-114300000D03*
D10*
X252730000Y-114300000D03*
X242570000Y-114300000D03*
D11*
X247650000Y-114300000D03*
D10*
X233680000Y-114300000D03*
X223520000Y-114300000D03*
D11*
X228600000Y-114300000D03*
D10*
X214630000Y-114300000D03*
X204470000Y-114300000D03*
D11*
X209550000Y-114300000D03*
D10*
X195580000Y-114300000D03*
X185420000Y-114300000D03*
D11*
X190500000Y-114300000D03*
D10*
X176530000Y-114300000D03*
X166370000Y-114300000D03*
D11*
X171450000Y-114300000D03*
D10*
X157480000Y-114300000D03*
X147320000Y-114300000D03*
D11*
X152400000Y-114300000D03*
D10*
X138430000Y-114300000D03*
X128270000Y-114300000D03*
D11*
X133350000Y-114300000D03*
D10*
X119380000Y-114300000D03*
X109220000Y-114300000D03*
D11*
X114300000Y-114300000D03*
D10*
X100330000Y-114300000D03*
X90170000Y-114300000D03*
D11*
X95250000Y-114300000D03*
D10*
X81280000Y-114300000D03*
X71120000Y-114300000D03*
D11*
X76200000Y-114300000D03*
D10*
X262255000Y-95250000D03*
X252095000Y-95250000D03*
D11*
X257175000Y-95250000D03*
D10*
X243205000Y-95250000D03*
X233045000Y-95250000D03*
D11*
X238125000Y-95250000D03*
D10*
X205105000Y-95250000D03*
X194945000Y-95250000D03*
D11*
X200025000Y-95250000D03*
D10*
X186055000Y-95250000D03*
X175895000Y-95250000D03*
D11*
X180975000Y-95250000D03*
D10*
X167005000Y-95250000D03*
X156845000Y-95250000D03*
D11*
X161925000Y-95250000D03*
D10*
X147955000Y-95250000D03*
X137795000Y-95250000D03*
D11*
X142875000Y-95250000D03*
D10*
X128905000Y-95250000D03*
X118745000Y-95250000D03*
D11*
X123825000Y-95250000D03*
D10*
X90805000Y-95250000D03*
X80645000Y-95250000D03*
D11*
X85725000Y-95250000D03*
D10*
X71755000Y-95250000D03*
X61595000Y-95250000D03*
D11*
X66675000Y-95250000D03*
D10*
X45561250Y-95250000D03*
X35401250Y-95250000D03*
D11*
X40481250Y-95250000D03*
D10*
X347980000Y-76200000D03*
X337820000Y-76200000D03*
D11*
X342900000Y-76200000D03*
D10*
X328930000Y-76200000D03*
X318770000Y-76200000D03*
D11*
X323850000Y-76200000D03*
D10*
X300355000Y-76200000D03*
X290195000Y-76200000D03*
D11*
X295275000Y-76200000D03*
D10*
X276542500Y-76200000D03*
X266382500Y-76200000D03*
D11*
X271462500Y-76200000D03*
D10*
X238442500Y-76200000D03*
X228282500Y-76200000D03*
D11*
X233362500Y-76200000D03*
D10*
X219392500Y-76200000D03*
X209232500Y-76200000D03*
D11*
X214312500Y-76200000D03*
D10*
X181292500Y-76200000D03*
X171132500Y-76200000D03*
D11*
X176212500Y-76200000D03*
D10*
X162242500Y-76200000D03*
X152082500Y-76200000D03*
D11*
X157162500Y-76200000D03*
D10*
X143192500Y-76200000D03*
X133032500Y-76200000D03*
D11*
X138112500Y-76200000D03*
D10*
X124142500Y-76200000D03*
X113982500Y-76200000D03*
D11*
X119062500Y-76200000D03*
D10*
X105092500Y-76200000D03*
X94932500Y-76200000D03*
D11*
X100012500Y-76200000D03*
D10*
X66992500Y-76200000D03*
X56832500Y-76200000D03*
D11*
X61912500Y-76200000D03*
D10*
X43180000Y-76200000D03*
X33020000Y-76200000D03*
D11*
X38100000Y-76200000D03*
D10*
X347980000Y-57150000D03*
X337820000Y-57150000D03*
D11*
X342900000Y-57150000D03*
D10*
X328930000Y-57150000D03*
X318770000Y-57150000D03*
D11*
X323850000Y-57150000D03*
X302450500Y-65405000D03*
X278574500Y-65405000D03*
D12*
X302450500Y-50165000D03*
X278574500Y-50165000D03*
D10*
X295592500Y-57150000D03*
X285432500Y-57150000D03*
D11*
X290512500Y-57150000D03*
D10*
X267017500Y-57150000D03*
X256857500Y-57150000D03*
D11*
X261937500Y-57150000D03*
D10*
X247967500Y-57150000D03*
X237807500Y-57150000D03*
D11*
X242887500Y-57150000D03*
D10*
X228917500Y-57150000D03*
X218757500Y-57150000D03*
D11*
X223837500Y-57150000D03*
D10*
X209867500Y-57150000D03*
X199707500Y-57150000D03*
D11*
X204787500Y-57150000D03*
D10*
X190817500Y-57150000D03*
X180657500Y-57150000D03*
D11*
X185737500Y-57150000D03*
D10*
X171767500Y-57150000D03*
X161607500Y-57150000D03*
D11*
X166687500Y-57150000D03*
D10*
X152717500Y-57150000D03*
X142557500Y-57150000D03*
D11*
X147637500Y-57150000D03*
D10*
X133667500Y-57150000D03*
X123507500Y-57150000D03*
D11*
X128587500Y-57150000D03*
D10*
X114617500Y-57150000D03*
X104457500Y-57150000D03*
D11*
X109537500Y-57150000D03*
D10*
X95567500Y-57150000D03*
X85407500Y-57150000D03*
D11*
X90487500Y-57150000D03*
D10*
X76517500Y-57150000D03*
X66357500Y-57150000D03*
D11*
X71437500Y-57150000D03*
D10*
X57467500Y-57150000D03*
X47307500Y-57150000D03*
D11*
X52387500Y-57150000D03*
D10*
X38417500Y-57150000D03*
X28257500Y-57150000D03*
D11*
X33337500Y-57150000D03*
M02*
