M48
; DRILL file {KiCad (5.1.4)-1} date 07/03/20 12:22:04
; FORMAT={-:-/ absolute / inch / decimal}
; #@! TF.CreationDate,2020-07-03T12:22:04-04:00
; #@! TF.GenerationSoftware,Kicad,Pcbnew,(5.1.4)-1
; #@! TF.FileFunction,NonPlated,1,2,NPTH
FMAT,2
INCH
T1C0.0689
T2C0.1200
T3C0.1570
%
G90
G05
T1
X11.2375Y-2.25
X11.6375Y-2.25
X3.925Y-3.75
X4.325Y-3.75
X7.4875Y-3.0
X7.8875Y-3.0
X8.2375Y-3.0
X8.6375Y-3.0
X10.1125Y-2.25
X10.5125Y-2.25
X8.9875Y-3.0
X9.3875Y-3.0
X5.2375Y-3.0
X5.6375Y-3.0
X5.05Y-4.5
X5.45Y-4.5
X3.3625Y-2.25
X3.7625Y-2.25
X2.8Y-4.5
X3.2Y-4.5
X2.2375Y-3.0
X2.6375Y-3.0
X11.1437Y-3.75
X11.5437Y-3.75
X9.925Y-3.75
X10.325Y-3.75
X5.6125Y-2.25
X6.0125Y-2.25
X6.925Y-3.75
X7.325Y-3.75
X3.0812Y-5.25
X3.4812Y-5.25
X13.3Y-2.25
X13.7Y-2.25
X7.675Y-3.75
X8.075Y-3.75
X4.8625Y-2.25
X5.2625Y-2.25
X12.55Y-4.5
X12.95Y-4.5
X1.1125Y-2.25
X1.5125Y-2.25
X4.675Y-3.75
X5.075Y-3.75
X8.6125Y-2.25
X9.0125Y-2.25
X12.55Y-5.25
X12.95Y-5.25
X1.5813Y-4.5
X1.9812Y-4.5
X6.3625Y-2.25
X6.7625Y-2.25
X10.5812Y-5.25
X10.9812Y-5.25
X12.55Y-3.0
X12.95Y-3.0
X8.7062Y-5.25
X9.1062Y-5.25
X9.55Y-4.5
X9.95Y-4.5
X3.7375Y-3.0
X4.1375Y-3.0
X1.8625Y-2.25
X2.2625Y-2.25
X6.55Y-4.5
X6.95Y-4.5
X9.3625Y-2.25
X9.7625Y-2.25
X6.7375Y-3.0
X7.1375Y-3.0
X3.175Y-3.75
X3.575Y-3.75
X12.55Y-2.25
X12.95Y-2.25
X8.425Y-3.75
X8.825Y-3.75
X10.4875Y-3.0
X10.8875Y-3.0
X2.1437Y-5.25
X2.5437Y-5.25
X7.8625Y-2.25
X8.2625Y-2.25
X4.3Y-4.5
X4.7Y-4.5
X2.6125Y-2.25
X3.0125Y-2.25
X6.175Y-3.75
X6.575Y-3.75
X1.3938Y-3.75
X1.7937Y-3.75
X11.8Y-5.25
X12.2Y-5.25
X9.175Y-3.75
X9.575Y-3.75
X9.6437Y-5.25
X10.0437Y-5.25
X13.3Y-5.25
X13.7Y-5.25
X11.425Y-3.0
X11.825Y-3.0
X5.8Y-4.5
X6.2Y-4.5
X7.3Y-4.5
X7.7Y-4.5
X3.55Y-4.5
X3.95Y-4.5
X7.1125Y-2.25
X7.5125Y-2.25
X10.9562Y-4.5
X11.3562Y-4.5
X5.8937Y-5.25
X6.2938Y-5.25
X2.9875Y-3.0
X3.3875Y-3.0
X8.8Y-4.5
X9.2Y-4.5
X4.4875Y-3.0
X4.8875Y-3.0
X2.425Y-3.75
X2.825Y-3.75
X5.9875Y-3.0
X6.3875Y-3.0
X9.7375Y-3.0
X10.1375Y-3.0
X8.05Y-4.5
X8.45Y-4.5
X1.3Y-3.0
X1.7Y-3.0
X1.2063Y-5.25
X1.6062Y-5.25
X4.1125Y-2.25
X4.5125Y-2.25
X5.425Y-3.75
X5.825Y-3.75
X13.3Y-3.0
X13.7Y-3.0
T2
X1.3113Y-4.225
X2.2512Y-4.225
X10.6862Y-4.225
X11.6262Y-4.225
X4.1253Y-4.975
X8.0623Y-4.975
X10.9675Y-1.975
X11.9075Y-1.975
X10.8737Y-3.475
X11.8137Y-3.475
T3
X10.9675Y-2.575
X11.4375Y-2.25
X11.9075Y-2.575
X4.125Y-3.75
X7.6875Y-3.0
X8.4375Y-3.0
X10.3125Y-2.25
X9.1875Y-3.0
X5.4375Y-3.0
X5.25Y-4.5
X3.5625Y-2.25
X3.0Y-4.5
X2.4375Y-3.0
X10.8737Y-4.075
X11.3438Y-3.75
X11.8137Y-4.075
X10.125Y-3.75
X5.8125Y-2.25
X7.125Y-3.75
X3.2812Y-5.25
X13.5Y-2.25
X7.875Y-3.75
X5.0625Y-2.25
X12.75Y-4.5
X1.3125Y-2.25
X4.875Y-3.75
X8.8125Y-2.25
X12.75Y-5.25
X1.3113Y-4.825
X1.7812Y-4.5
X2.2512Y-4.825
X6.5625Y-2.25
X10.7812Y-5.25
X12.75Y-3.0
X8.9062Y-5.25
X9.75Y-4.5
X3.9375Y-3.0
X2.0625Y-2.25
X6.75Y-4.5
X9.5625Y-2.25
X6.9375Y-3.0
X3.375Y-3.75
X12.75Y-2.25
X8.625Y-3.75
X10.6875Y-3.0
X2.3438Y-5.25
X8.0625Y-2.25
X4.5Y-4.5
X2.8125Y-2.25
X6.375Y-3.75
X1.5938Y-3.75
X12.0Y-5.25
X9.375Y-3.75
X9.8438Y-5.25
X13.5Y-5.25
X11.625Y-3.0
X6.0Y-4.5
X7.5Y-4.5
X3.75Y-4.5
X7.3125Y-2.25
X10.6862Y-4.825
X11.1562Y-4.5
X11.6262Y-4.825
X4.1253Y-5.575
X6.0938Y-5.25
X8.0623Y-5.575
X3.1875Y-3.0
X9.0Y-4.5
X4.6875Y-3.0
X2.625Y-3.75
X6.1875Y-3.0
X9.9375Y-3.0
X8.25Y-4.5
X1.5Y-3.0
X1.4062Y-5.25
X4.3125Y-2.25
X5.625Y-3.75
X13.5Y-3.0
T0
M30
